<?xml version="1.0" encoding="UTF-8"?>
<svg id="Calque_2" data-name="Calque 2" xmlns="http://www.w3.org/2000/svg" viewBox="0 0 820.48 438.76">
  <defs>
    <style>
      .cls-1 {
        fill: #1c3326;
        stroke-width: 0px;
      }
    </style>
  </defs>
  <g id="Calque_1-2" data-name="Calque 1">
    <g>
      <path class="cls-1" d="m267.56,21.64c-1.53-2.27-2.32-4.98-2.32-7.7,0-7.7,6.23-13.93,13.93-13.93h61.91c6.34,0,12.29,3.34,15.52,8.78l38.8,64.63c-27.3,3.46-51.71,16.2-69.89,35.06l-57.94-86.83Zm285.3,0l-57.89,86.83c-18.18-18.86-42.59-31.61-69.89-35.06l38.8-64.63c3.29-5.44,9.18-8.78,15.52-8.78h61.91c7.7,0,13.93,6.23,13.93,13.93,0,2.72-.79,5.44-2.32,7.7h-.06Zm-242.31,168.68c0-55.06,44.63-99.69,99.69-99.69s99.69,44.63,99.69,99.69-44.63,99.69-99.69,99.69-99.69-44.63-99.69-99.69Zm104.45-53.75c-1.93-3.96-7.53-3.96-9.52,0l-12.69,25.71c-.79,1.59-2.27,2.66-3.96,2.89l-28.43,4.13c-4.36.62-6.06,5.95-2.95,9.06l20.56,20.05c1.25,1.25,1.81,2.95,1.53,4.7l-4.87,28.26c-.74,4.3,3.79,7.65,7.7,5.61l25.38-13.37c1.53-.79,3.4-.79,4.93,0l25.37,13.37c3.91,2.04,8.44-1.25,7.7-5.61l-4.87-28.26c-.28-1.7.28-3.46,1.53-4.7l20.56-20.05c3.17-3.06,1.42-8.38-2.95-9.06l-28.38-4.13c-1.7-.23-3.23-1.36-3.96-2.89l-12.69-25.71Z"/>
      <g>
        <path class="cls-1" d="m94.8,419.71c-8.4,11.4-23.4,19.05-42.3,19.05-31.05,0-52.5-21.15-52.5-52.05s21.45-52.05,52.5-52.05c17.1,0,31.05,6,40.65,16.95,1.65,1.95,2.85,4.65,2.85,7.95,0,6.3-4.5,10.8-10.8,10.8-3.9,0-7.05-1.5-9.15-4.2-5.25-6.9-13.2-11.1-23.4-11.1-17.7,0-29.85,12.9-29.85,31.65s12.15,31.65,29.85,31.65c10.95,0,18.9-4.5,24.45-12.3,1.95-2.7,5.25-4.5,9.15-4.5,6.6,0,10.8,4.5,10.8,10.8,0,3-.9,5.4-2.25,7.35Z"/>
        <path class="cls-1" d="m128.4,342.01v84.9c0,6.75-3.9,10.95-10.35,10.95s-10.2-4.2-10.2-10.95v-84.9c0-6.75,3.9-10.95,10.2-10.95s10.35,4.2,10.35,10.95Z"/>
        <path class="cls-1" d="m219,374.86v52.05c0,6.75-3.9,10.95-10.35,10.95-5.4,0-9.15-3.15-10.05-8.4h-.3c-5.1,6-12.75,9.3-22.35,9.3-20.85,0-34.65-14.85-34.65-37.8s13.8-37.8,34.65-37.8c9.6,0,17.25,3.3,22.35,9.3h.3c.9-5.4,4.65-8.4,10.05-8.4,6.45,0,10.35,4.05,10.35,10.8Zm-20.55,26.1c0-11.1-7.65-19.05-18.3-19.05s-17.85,7.65-17.85,19.05,7.35,19.05,17.85,19.05,18.3-7.95,18.3-19.05Z"/>
        <path class="cls-1" d="m266.7,392.41c22.8,0,31.65,7.35,31.65,22.65s-12,23.7-31.65,23.7c-15.9,0-24.15-2.1-31.95-8.1-2.1-1.65-3.45-4.05-3.45-7.05,0-5.55,3.75-9.3,9-9.3,2.7,0,4.5.9,6.75,2.4,4.35,2.85,10.95,4.5,18,4.5,8.4,0,13.05-2.4,13.05-6.6,0-3.75-3.3-5.55-15-5.55-22.2,0-31.05-7.05-31.05-21.9s12.15-24,31.8-24c12.9,0,20.4,1.8,27.15,6.6,2.85,2.1,4.2,4.65,4.2,7.65,0,5.55-3.75,9.3-9.15,9.3-2.55,0-4.8-1.05-6.6-2.25-3.75-2.4-8.7-3.75-14.1-3.75-8.1,0-13.05,2.55-13.05,6.6,0,3.45,3.3,5.1,14.4,5.1Z"/>
        <path class="cls-1" d="m342.14,392.41c22.8,0,31.65,7.35,31.65,22.65s-12,23.7-31.65,23.7c-15.9,0-24.15-2.1-31.95-8.1-2.1-1.65-3.45-4.05-3.45-7.05,0-5.55,3.75-9.3,9-9.3,2.7,0,4.5.9,6.75,2.4,4.35,2.85,10.95,4.5,18,4.5,8.4,0,13.05-2.4,13.05-6.6,0-3.75-3.3-5.55-15-5.55-22.2,0-31.05-7.05-31.05-21.9s12.15-24,31.8-24c12.9,0,20.4,1.8,27.15,6.6,2.85,2.1,4.2,4.65,4.2,7.65,0,5.55-3.75,9.3-9.15,9.3-2.55,0-4.8-1.05-6.6-2.25-3.75-2.4-8.7-3.75-14.1-3.75-8.1,0-13.05,2.55-13.05,6.6,0,3.45,3.3,5.1,14.4,5.1Z"/>
        <path class="cls-1" d="m422.24,438.76c-23.85,0-39.75-15.3-39.75-37.8s15.9-37.8,39-37.8c20.7,0,36.75,15,36.75,32.25v1.2c0,6.45-4.2,10.65-10.5,10.65h-44.25c2.25,8.55,9,13.8,18.75,13.8,6.45,0,11.1-1.95,15.6-6.15,1.8-1.8,4.2-2.85,6.75-2.85,5.4,0,9,3.45,9,8.85,0,2.25-.75,4.2-2.1,6-6.6,7.65-16.65,11.85-29.25,11.85Zm-18.75-45.6h35.25c-1.65-7.5-8.7-12.3-17.25-12.3s-16.35,4.8-18,12.3Z"/>
        <path class="cls-1" d="m581.54,394.81v32.1c0,6.75-3.9,10.95-10.35,10.95s-10.2-4.2-10.2-10.95v-29.7c0-10.05-4.05-15.3-12-15.3-8.4,0-13.05,6.3-13.05,17.25v27.75c0,6.75-3.9,10.95-10.2,10.95s-10.35-4.2-10.35-10.95v-29.7c0-10.05-4.05-15.3-12-15.3s-12.9,6.3-12.9,17.25v27.75c0,6.75-3.9,10.95-10.35,10.95s-10.2-4.2-10.2-10.95v-52.05c0-6.75,3.9-10.8,10.2-10.8,5.4,0,9.15,2.85,10.2,7.5h.3c4.35-5.4,10.8-8.4,18.45-8.4,9.6,0,16.35,3.6,20.7,10.2h.3c4.95-6.6,12.75-10.2,23.25-10.2,19.05,0,28.2,10.8,28.2,31.65Z"/>
        <path class="cls-1" d="m632.84,438.76c-23.85,0-39.75-15.3-39.75-37.8s15.9-37.8,39-37.8c20.7,0,36.75,15,36.75,32.25v1.2c0,6.45-4.2,10.65-10.5,10.65h-44.25c2.25,8.55,9,13.8,18.75,13.8,6.45,0,11.1-1.95,15.6-6.15,1.8-1.8,4.2-2.85,6.75-2.85,5.4,0,9,3.45,9,8.85,0,2.25-.75,4.2-2.1,6-6.6,7.65-16.65,11.85-29.25,11.85Zm-18.75-45.6h35.25c-1.65-7.5-8.7-12.3-17.25-12.3s-16.35,4.8-18,12.3Z"/>
        <path class="cls-1" d="m752.99,396.46v30.45c0,6.75-3.9,10.95-10.35,10.95s-10.2-4.2-10.2-10.95v-28.05c0-11.1-5.1-16.95-15-16.95s-16.35,7.05-16.35,18.9v26.1c0,6.75-3.9,10.95-10.35,10.95s-10.2-4.2-10.2-10.95v-51.9c0-6.75,3.9-10.95,10.2-10.95,5.4,0,9.15,3,10.2,8.1h.3c4.95-5.85,12.15-9,21.6-9,19.65,0,30.15,11.7,30.15,33.3Z"/>
        <path class="cls-1" d="m819.29,426.16c-4.5,8.4-13.2,12.6-25.05,12.6-17.85,0-28.35-10.95-28.35-29.7v-58.35c0-6.75,3.9-10.95,10.2-10.95s10.35,4.2,10.35,10.95v14.25h21c6.15,0,10.05,3.45,10.05,9.3s-3.9,9.45-10.05,9.45h-21v26.1c0,6.45,3.3,10.2,8.85,10.2,3.45,0,5.7-1.5,8.25-4.65,1.95-2.55,4.65-3.75,7.65-3.75,5.4,0,9.3,3.9,9.3,9.6,0,1.8-.45,3.45-1.2,4.95Z"/>
      </g>
    </g>
  </g>
</svg>