<?xml version="1.0" encoding="UTF-8"?>
<svg id="Calque_2" data-name="Calque 2" xmlns="http://www.w3.org/2000/svg" viewBox="0 0 354.14 438.76">
  <defs>
    <style>
      .cls-1 {
        fill: #ffefe1;
        stroke-width: 0px;
      }
    </style>
  </defs>
  <g id="Calque_1-2" data-name="Calque 1">
    <g>
      <g>
        <path class="cls-1" d="m316.29,256.36l-41.79-41.79-27.86,27.86,41.79,41.79c7.71,7.71,20.16,7.71,27.86,0,7.71-7.71,7.71-20.16,0-27.86Z"/>
        <path class="cls-1" d="m321.82,127.8c-1-6.23-4.92-11.62-10.62-14.45l-1.74-.87c-22.27-11.16-47.15-13.59-70.26-8.11-3.63.86-7.45-.12-10.28-2.55l-50.98-43.7c-7.44-6.38-7.87-17.73-.95-24.66h0c7.61-7.61,7.7-19.84.29-27.57-7.66-7.98-20.69-7.76-28.52.06L38.03,116.69c-7.82,7.82-8.05,20.85-.06,28.52,7.73,7.41,19.96,7.32,27.57-.29,6.93-6.93,18.29-6.49,24.66.95l43.7,50.98c2.43,2.83,3.41,6.65,2.55,10.28-5.49,23.11-3.05,47.99,8.11,70.26l.87,1.74c2.79,5.66,8.14,9.62,14.45,10.62,6.31,1,12.63-1.04,17.11-5.53l139.31-139.31c4.48-4.48,6.53-10.88,5.53-17.11Z"/>
      </g>
      <g>
        <path class="cls-1" d="m40.2,336.46c34.95,0,55.05,18.45,55.05,50.25s-20.1,50.25-55.05,50.25H12c-7.5,0-12-4.5-12-12v-76.5c0-7.5,4.5-12,12-12h28.2Zm1.2,80.1c19.5,0,31.05-11.1,31.05-29.85s-11.55-29.85-31.05-29.85h-19.05v59.7h19.05Z"/>
        <path class="cls-1" d="m145.35,438.76c-23.85,0-39.75-15.3-39.75-37.8s15.9-37.8,39-37.8c20.7,0,36.75,15,36.75,32.25v1.2c0,6.45-4.2,10.65-10.5,10.65h-44.25c2.25,8.55,9,13.8,18.75,13.8,6.45,0,11.1-1.95,15.6-6.15,1.8-1.8,4.2-2.85,6.75-2.85,5.4,0,9,3.45,9,8.85,0,2.25-.75,4.2-2.1,6-6.6,7.65-16.65,11.85-29.25,11.85Zm-18.75-45.6h35.25c-1.65-7.5-8.7-12.3-17.25-12.3s-16.35,4.8-18,12.3Zm36.15-52.35l-16.35,13.35c-1.8,1.5-3.6,2.25-5.7,2.25-4.5,0-7.5-3.45-7.5-7.8,0-2.7,1.05-4.5,3.3-6.45l15.15-14.1c1.95-1.8,3.9-2.55,6.15-2.55,4.65,0,8.1,3.6,8.1,8.4,0,2.7-1.05,5.1-3.15,6.9Z"/>
        <path class="cls-1" d="m213.6,359.11v5.85h21c6.3,0,10.05,3.45,10.05,9.3s-3.75,9.45-10.05,9.45h-21v43.2c0,6.75-3.9,10.95-10.35,10.95s-10.2-4.2-10.2-10.95v-67.05c0-18.75,10.5-29.7,28.8-29.7,11.7,0,20.4,4.35,24.9,12,.9,1.65,1.5,3.45,1.5,5.55,0,5.55-3.6,9.15-8.85,9.15-3.3,0-6.15-1.35-7.8-3.45-2.4-3-5.1-4.5-8.85-4.5-5.7,0-9.15,3.75-9.15,10.2Z"/>
        <path class="cls-1" d="m252.9,342.91c0-7.05,4.65-11.55,11.55-11.55s11.7,4.5,11.7,11.55-4.65,11.85-11.7,11.85-11.55-4.8-11.55-11.85Zm21.9,31.95v52.05c0,6.75-3.9,10.95-10.35,10.95s-10.2-4.2-10.2-10.95v-52.05c0-6.75,3.9-10.8,10.2-10.8s10.35,4.05,10.35,10.8Z"/>
        <path class="cls-1" d="m322.49,392.41c22.8,0,31.65,7.35,31.65,22.65s-12,23.7-31.65,23.7c-15.9,0-24.15-2.1-31.95-8.1-2.1-1.65-3.45-4.05-3.45-7.05,0-5.55,3.75-9.3,9-9.3,2.7,0,4.5.9,6.75,2.4,4.35,2.85,10.95,4.5,18,4.5,8.4,0,13.05-2.4,13.05-6.6,0-3.75-3.3-5.55-15-5.55-22.2,0-31.05-7.05-31.05-21.9s12.15-24,31.8-24c12.9,0,20.4,1.8,27.15,6.6,2.85,2.1,4.2,4.65,4.2,7.65,0,5.55-3.75,9.3-9.15,9.3-2.55,0-4.8-1.05-6.6-2.25-3.75-2.4-8.7-3.75-14.1-3.75-8.1,0-13.05,2.55-13.05,6.6,0,3.45,3.3,5.1,14.4,5.1Z"/>
      </g>
    </g>
  </g>
</svg>