<?xml version="1.0" encoding="UTF-8"?>
<svg id="Calque_2" data-name="Calque 2" xmlns="http://www.w3.org/2000/svg" viewBox="0 0 996.01 996.01">
  <defs>
    <style>
      .cls-1 {
        fill: #2bba7c;
      }

      .cls-1, .cls-2 {
        stroke-width: 0px;
      }

      .cls-2 {
        fill: #ffefe1;
      }
    </style>
  </defs>
  <g id="Calque_1-2" data-name="Calque 1">
    <g>
      <rect class="cls-2" x="0" y="0" width="996.01" height="996.01" rx="498.01" ry="498.01"/>
      <path class="cls-1" d="m606.9,154.59c-189.36-60.04-392.27,45.17-452.31,234.53-60.04,189.36,45.17,392.26,234.53,452.31,189.36,60.04,392.27-45.16,452.31-234.52,60.04-189.36-45.16-392.27-234.52-452.31Zm-11.9,37.53c10.97,3.48,21.61,7.51,31.92,12.02-29.85,27.84-57.59,58.04-82.62,90.14-1.5,1.92-2.99,3.85-4.48,5.78-9.19,11.89-17.88,23.12-28.1,32.04-11.71,10.22-24.34,15.89-35.57,15.96-17.94.13-34.04-12.39-52.7-26.89-17.4-13.52-37.13-28.83-61.39-34.34-19.9-4.51-38.72-1.76-56.91.9-9.79,1.43-19.03,2.78-27.88,2.89-7.25.09-14.63-.66-22.22-2.23,81.4-94.08,214.03-136.2,339.94-96.27Zm-193.99,611.78c-88.73-28.13-156.7-91.49-193.42-169.78,37.45-3.63,60.87-40.8,70.45-75.5,1.25-4.55,2.43-9.2,3.62-13.87,5.81-22.92,11.31-44.57,25.99-56.06,17.96-14.07,46.31-8.53,65.05,4.24,22.91,15.57,38.86,41.3,54.29,66.18,16.74,27.01,35.72,57.62,65.94,77.89,15.41,10.34,31.99,16.81,48.03,23.06,9.67,3.77,18.8,7.33,27.41,11.61,42.26,20.97,73.33,60.4,98.26,99.2-76.81,47.4-173.03,62.4-265.62,33.04Zm402.88-208.9c-19.85,62.62-57.26,114.89-105.06,153.15-27.77-42.99-62.97-86.95-112.96-111.75-10.18-5.06-20.57-9.11-30.62-13.02-14.7-5.73-28.58-11.15-40.39-19.07-23.17-15.54-39.77-42.32-54.42-65.94-16.78-27.06-35.79-57.73-65.61-78-29.6-20.15-77.1-29.59-111.46-2.68-25.26,19.77-33.03,50.38-39.88,77.38-1.12,4.42-2.24,8.81-3.41,13.1-5.92,21.44-19.45,46.6-38.09,46.91-3.12.05-6.45-.57-10.34-1.94-18.89-60.53-20.12-127.21.46-192.11,9.04-28.52,21.74-54.89,37.38-78.77.43.14.86.31,1.29.44,16.09,5.1,31.59,7.5,46.99,7.3,11.46-.14,22.45-1.75,33.08-3.3,15.3-2.24,29.75-4.35,42.51-1.46,15.74,3.58,30.41,14.97,45.94,27.04,21.35,16.59,45.55,35.39,77.13,35.17,26.46-.18,47.87-14.06,61.18-25.67,13.12-11.46,23.4-24.75,33.35-37.61,1.45-1.88,2.91-3.76,4.38-5.64,26.64-34.16,56.47-66.07,88.78-95.07,48.28,29.21,87.08,70.22,113.77,117.94-6.35,1.89-13.23,3.41-20.32,4.97-9.87,2.17-20.07,4.42-30.08,7.93-35.32,12.33-64.69,40.46-78.58,75.25-11.3,28.36-9.01,56.62,6.14,75.61,9.16,11.48,21.43,17.99,33.68,21.88,12.12,3.84,24.22,5.11,33.28,6.06l93.74,9.85c-2.47,17.39-6.38,34.8-11.86,52.09Zm14.97-91.35l-92.74-9.75c-16.38-1.71-32.98-4.15-40.31-13.34-7.32-9.18-4.76-25.38-.34-36.46,9.72-24.35,30.28-44.04,55.02-52.68,7.78-2.73,16.4-4.63,25.53-6.64,9.66-2.12,19.5-4.33,29.09-7.63,16.17,39.65,24.5,82.63,23.75,126.5Z"/>
    </g>
  </g>
</svg>