<?xml version="1.0" encoding="UTF-8"?>
<svg id="Calque_2" data-name="Calque 2" xmlns="http://www.w3.org/2000/svg" viewBox="0 0 360.44 434.67">
  <defs>
    <style>
      .cls-1 {
        fill: #1c3326;
        stroke-width: 0px;
      }
    </style>
  </defs>
  <g id="Calque_1-2" data-name="Calque 1">
    <g>
      <path class="cls-1" d="m180.22,145c38.92,0,70.47-32.46,70.47-72.5S219.14,0,180.22,0s-70.47,32.46-70.47,72.5,31.55,72.5,70.47,72.5Zm-25.16,27.19c-54.23,0-98.16,45.2-98.16,100.99,0,9.29,7.32,16.82,16.35,16.82h213.94c9.03,0,16.35-7.53,16.35-16.82,0-55.79-43.93-100.99-98.16-100.99h-50.32Z"/>
      <g>
        <path class="cls-1" d="m52.95,332.38c22.65,0,34.95,11.55,34.95,33s-12.3,33.15-34.95,33.15h-30.6v23.4c0,7.35-4.2,11.85-11.1,11.85s-11.25-4.5-11.25-11.85v-77.55c0-7.5,4.5-12,12-12h40.95Zm-2.55,45.75c9.6,0,14.7-4.35,14.7-12.75s-5.1-12.6-14.7-12.6h-28.05v25.35h28.05Z"/>
        <path class="cls-1" d="m149.55,369.72c0,6.3-4.2,10.2-10.2,10.2-13.05,0-20.4,5.85-20.4,21.45v21.45c0,6.75-3.9,10.95-10.35,10.95s-10.2-4.2-10.2-10.95v-52.05c0-6.75,3.9-10.8,10.2-10.8s10.2,3.9,10.35,10.2h.3c4.2-7.05,10.95-10.65,20.1-10.65,6,0,10.2,3.75,10.2,10.2Z"/>
        <path class="cls-1" d="m190.5,359.08c23.25,0,39.15,15.3,39.15,37.8s-15.9,37.8-39.15,37.8-39-15.45-39-37.8,15.9-37.8,39-37.8Zm0,56.85c10.8,0,18.15-7.8,18.15-19.05s-7.35-19.05-18.15-19.05-18,7.65-18,19.05,7.35,19.05,18,19.05Z"/>
        <path class="cls-1" d="m263.1,355.03v5.85h21c6.3,0,10.05,3.45,10.05,9.3s-3.75,9.45-10.05,9.45h-21v43.2c0,6.75-3.9,10.95-10.35,10.95s-10.2-4.2-10.2-10.95v-67.05c0-18.75,10.5-29.7,28.8-29.7,11.7,0,20.4,4.35,24.9,12,.9,1.65,1.5,3.45,1.5,5.55,0,5.55-3.6,9.15-8.85,9.15-3.3,0-6.15-1.35-7.8-3.45-2.4-3-5.1-4.5-8.85-4.5-5.7,0-9.15,3.75-9.15,10.2Z"/>
        <path class="cls-1" d="m302.4,338.83c0-7.05,4.65-11.55,11.55-11.55s11.7,4.5,11.7,11.55-4.65,11.85-11.7,11.85-11.55-4.8-11.55-11.85Zm21.9,31.95v52.05c0,6.75-3.9,10.95-10.35,10.95s-10.2-4.2-10.2-10.95v-52.05c0-6.75,3.9-10.8,10.2-10.8s10.35,4.05,10.35,10.8Z"/>
        <path class="cls-1" d="m360.44,337.93v84.9c0,6.75-3.9,10.95-10.35,10.95s-10.2-4.2-10.2-10.95v-84.9c0-6.75,3.9-10.95,10.2-10.95s10.35,4.2,10.35,10.95Z"/>
      </g>
    </g>
  </g>
</svg>