<?xml version="1.0" encoding="UTF-8"?>
<svg id="Calque_2" data-name="Calque 2" xmlns="http://www.w3.org/2000/svg" viewBox="0 0 580.34 438.76">
  <defs>
    <style>
      .cls-1 {
        fill: #1c3326;
        stroke-width: 0px;
      }
    </style>
  </defs>
  <g id="Calque_1-2" data-name="Calque 1">
    <g>
      <path class="cls-1" d="m145.17,31.07c0-17.15,13.92-31.07,31.07-31.07h62.14c17.15,0,31.07,13.92,31.07,31.07v62.14c0,17.15-13.92,31.07-31.07,31.07h-62.14c-17.15,0-31.07-13.92-31.07-31.07V31.07Zm41.43,10.36v41.43h41.43v-41.43h-41.43Zm-41.43,155.36c0-17.15,13.92-31.07,31.07-31.07h62.14c17.15,0,31.07,13.92,31.07,31.07v62.14c0,17.15-13.92,31.07-31.07,31.07h-62.14c-17.15,0-31.07-13.92-31.07-31.07v-62.14Zm41.43,10.36v41.43h41.43v-41.43h-41.43ZM341.96,0h62.14c17.15,0,31.07,13.92,31.07,31.07v62.14c0,17.15-13.92,31.07-31.07,31.07h-62.14c-17.15,0-31.07-13.92-31.07-31.07V31.07c0-17.15,13.92-31.07,31.07-31.07Zm51.79,41.43h-41.43v41.43h41.43v-41.43Zm-82.86,134.64c0-5.7,4.66-10.36,10.36-10.36h41.43c5.7,0,10.36,4.66,10.36,10.36s4.66,10.36,10.36,10.36h20.71c5.7,0,10.36-4.66,10.36-10.36s4.66-10.36,10.36-10.36,10.36,4.66,10.36,10.36v62.14c0,5.7-4.66,10.36-10.36,10.36h-41.43c-5.7,0-10.36-4.66-10.36-10.36s-4.66-10.36-10.36-10.36-10.36,4.66-10.36,10.36v41.43c0,5.7-4.66,10.36-10.36,10.36h-20.71c-5.7,0-10.36-4.66-10.36-10.36v-103.57Zm72.5,113.93c-5.72,0-10.36-4.64-10.36-10.36s4.64-10.36,10.36-10.36,10.36,4.64,10.36,10.36-4.64,10.36-10.36,10.36Zm41.43,0c-5.72,0-10.36-4.64-10.36-10.36s4.64-10.36,10.36-10.36,10.36,4.64,10.36,10.36-4.64,10.36-10.36,10.36Z"/>
      <g>
        <path class="cls-1" d="m46.65,375.76c30.6,0,42.6,9.6,42.6,29.7,0,21.45-15.9,33.3-44.4,33.3-18.9,0-33.15-4.8-41.85-14.1-1.95-1.95-3-4.65-3-8.1,0-6,4.05-10.35,10.5-10.35,2.4,0,4.65.75,7.05,2.7,7.2,6.3,17.4,9.75,28.95,9.75,12.75,0,20.1-4.5,20.1-12.3,0-6.45-5.25-9.3-23.25-9.45-30.3-.3-41.85-9.45-41.85-28.95s16.95-33.3,43.95-33.3c15,0,27,3.75,35.55,10.95,2.4,1.95,3.9,4.95,3.9,8.85,0,6-4.05,10.35-10.5,10.35-2.4,0-4.5-.75-6.75-2.4-6.9-5.1-14.85-7.65-23.85-7.65-11.85,0-19.65,4.8-19.65,12.3,0,6,5.4,8.7,22.5,8.7Z"/>
        <path class="cls-1" d="m167.25,426.16c-6.75,8.1-17.25,12.6-29.55,12.6-23.1,0-39-15.45-39-37.8s15.9-37.8,39-37.8c10.65,0,19.8,3.3,27.15,10.05,1.95,1.95,3,4.35,3,7.05,0,5.7-3.75,9.45-9.45,9.45-2.4,0-4.5-.75-6.3-2.25-4.2-3.6-9-5.55-14.4-5.55-10.65,0-18,7.65-18,19.05s7.35,19.05,18,19.05c6.45,0,11.25-2.55,15-6.45,1.8-1.95,4.2-3,6.9-3,5.85,0,9.75,3.9,9.75,9.6,0,2.25-.75,4.35-2.1,6Z"/>
        <path class="cls-1" d="m255.45,374.86v52.05c0,6.75-3.9,10.95-10.35,10.95-5.4,0-9.15-3.15-10.05-8.4h-.3c-5.1,6-12.75,9.3-22.35,9.3-20.85,0-34.65-14.85-34.65-37.8s13.8-37.8,34.65-37.8c9.6,0,17.25,3.3,22.35,9.3h.3c.9-5.4,4.65-8.4,10.05-8.4,6.45,0,10.35,4.05,10.35,10.8Zm-20.55,26.1c0-11.1-7.65-19.05-18.3-19.05s-17.85,7.65-17.85,19.05,7.35,19.05,17.85,19.05,18.3-7.95,18.3-19.05Z"/>
        <path class="cls-1" d="m343.5,396.46v30.45c0,6.75-3.9,10.95-10.35,10.95s-10.2-4.2-10.2-10.95v-28.05c0-11.1-5.1-16.95-15-16.95s-16.35,7.05-16.35,18.9v26.1c0,6.75-3.9,10.95-10.35,10.95s-10.2-4.2-10.2-10.95v-51.9c0-6.75,3.9-10.95,10.2-10.95,5.4,0,9.15,3,10.2,8.1h.3c4.95-5.85,12.15-9,21.6-9,19.65,0,30.15,11.7,30.15,33.3Z"/>
        <path class="cls-1" d="m430.19,396.46v30.45c0,6.75-3.9,10.95-10.35,10.95s-10.2-4.2-10.2-10.95v-28.05c0-11.1-5.1-16.95-15-16.95s-16.35,7.05-16.35,18.9v26.1c0,6.75-3.9,10.95-10.35,10.95s-10.2-4.2-10.2-10.95v-51.9c0-6.75,3.9-10.95,10.2-10.95,5.4,0,9.15,3,10.2,8.1h.3c4.95-5.85,12.15-9,21.6-9,19.65,0,30.15,11.7,30.15,33.3Z"/>
        <path class="cls-1" d="m481.49,438.76c-23.85,0-39.75-15.3-39.75-37.8s15.9-37.8,39-37.8c20.7,0,36.75,15,36.75,32.25v1.2c0,6.45-4.2,10.65-10.5,10.65h-44.25c2.25,8.55,9,13.8,18.75,13.8,6.45,0,11.1-1.95,15.6-6.15,1.8-1.8,4.2-2.85,6.75-2.85,5.4,0,9,3.45,9,8.85,0,2.25-.75,4.2-2.1,6-6.6,7.65-16.65,11.85-29.25,11.85Zm-18.75-45.6h35.25c-1.65-7.5-8.7-12.3-17.25-12.3s-16.35,4.8-18,12.3Z"/>
        <path class="cls-1" d="m580.34,373.81c0,6.3-4.2,10.2-10.2,10.2-13.05,0-20.4,5.85-20.4,21.45v21.45c0,6.75-3.9,10.95-10.35,10.95s-10.2-4.2-10.2-10.95v-52.05c0-6.75,3.9-10.8,10.2-10.8s10.2,3.9,10.35,10.2h.3c4.2-7.05,10.95-10.65,20.1-10.65,6,0,10.2,3.75,10.2,10.2Z"/>
      </g>
    </g>
  </g>
</svg>