<?xml version="1.0" encoding="UTF-8"?>
<svg id="Calque_2" data-name="Calque 2" xmlns="http://www.w3.org/2000/svg" viewBox="0 0 512 448.02">
  <defs>
    <style>
      .cls-1 {
        fill: #1c3326;
        stroke-width: 0px;
      }
    </style>
  </defs>
  <g id="Calque_1-2" data-name="Calque 1">
    <path class="cls-1" d="m307,2.82c-11.5,5.1-19,16.6-19,29.2v64h-112C78.8,96.02,0,174.82,0,272.02c0,113.3,81.5,163.9,100.2,174.1,2.5,1.4,5.3,1.9,8.1,1.9,10.9,0,19.7-8.9,19.7-19.7,0-7.5-4.3-14.4-9.8-19.5-9.4-8.9-22.2-26.4-22.2-56.8,0-53,43-96,96-96h96v64c0,12.6,7.4,24.1,19,29.2s25,3,34.4-5.4l160-144c6.7-6.1,10.6-14.7,10.6-23.8s-3.8-17.7-10.6-23.8L341.4,8.22c-9.4-8.5-22.9-10.6-34.4-5.4h0Z"/>
  </g>
</svg>