<?xml version="1.0" encoding="UTF-8"?>
<svg id="Calque_2" data-name="Calque 2" xmlns="http://www.w3.org/2000/svg" viewBox="0 0 2317.63 696.3">
  <defs>
    <style>
      .cls-1 {
        fill: #1c3326;
        stroke-width: 0px;
      }
    </style>
  </defs>
  <g id="Calque_1-2" data-name="Calque 1">
    <g>
      <path class="cls-1" d="m733.24,154.35s-20.12-.22-34.44,10.24c-14.32,10.39-33,11.61-48.47,3.03-20.05-11.14-44.14-17.2-71.66-17.56-.9,0-1.77-.04-2.67-.04-100.26,0-166.62,71.41-166.62,181.77s66.11,181.48,166.01,181.77h.61c28.45,0,53.34-6.02,73.97-17.38,15.83-8.73,35.02-7.43,49.59,3.28,14.28,10.46,33.68,9.77,33.68,9.77,31.02,0,49.77-20.2,49.77-52.65v-250.29c0-32.46-18.75-51.93-49.77-51.93Zm-137.05,269.04c-50.49,0-85.83-37.51-85.83-91.6s35.34-91.6,85.83-91.6,88,38.23,88,91.6-36.79,91.6-88,91.6Z"/>
      <path class="cls-1" d="m187.54,150.02C76.46,150.02,0,223.56,0,331.75s76.46,181.77,191.14,181.77c60.59,0,108.92-20.2,140.65-56.98,6.09-8.15,9.67-16.95,10.06-27.01.76-19.73-11.58-37.07-30.55-42.56-16.77-4.83-33.58.29-45.15,11.87-21.64,20.2-44,29.57-75.01,29.57-37.25,0-65.39-15.9-80.82-43.06-5.88-10.39,1.8-23.3,13.78-23.3h189.66c30.29,0,50.49-20.2,50.49-51.21v-5.77c0-82.95-77.18-155.04-176.72-155.04Zm51.03,144.22h-116.96c-10.82,0-17.78-11.9-12.01-21.06,14.86-23.73,44.4-38.08,77.94-38.08,26.62,0,50.2,9.7,65.67,26.33,11.61,12.44,2.38,32.82-14.64,32.82Z"/>
      <path class="cls-1" d="m1525.66,154.27c0,15.77,17.03,25.68,30.71,17.83,20.05-11.51,44.74-17.74,73.88-17.74,94.49,0,144.98,56.26,144.98,160.12v146.42c0,32.46-18.75,52.65-49.77,52.65s-49.05-20.2-49.05-52.65v-134.88c0-53.37-24.52-81.5-72.13-81.5-39.93,0-66.4,21.83-75.3,59.89-2.19,9.37-3.32,19.73-3.32,30.99v125.5c0,32.46-18.75,52.65-49.77,52.65s-49.05-20.2-49.05-52.65V52.65c0-32.46,18.75-52.65,49.05-52.65s49.77,20.19,49.77,52.65v101.61Z"/>
      <path class="cls-1" d="m1919.02,52.65v408.24c0,32.46-18.75,52.65-49.77,52.65s-49.05-20.2-49.05-52.65V52.65c0-32.46,18.75-52.65,49.05-52.65s49.77,20.19,49.77,52.65Z"/>
      <path class="cls-1" d="m912.99,164.1c13.29,11.14,32.39,12.99,46.88,3.45,17.67-11.64,39.41-17.53,65.07-17.53,28.85,0,49.05,18.03,49.05,49.05s-20.19,49.05-49.05,49.05c-62.75,0-98.09,28.13-98.09,103.14v103.14c0,32.45-18.75,52.65-49.77,52.65s-49.05-20.2-49.05-52.65v-250.29c0-32.46,18.75-51.93,49.05-51.93,0,0,20.82-.74,35.91,11.91Z"/>
      <path class="cls-1" d="m1375.94,452.96c-21.64,40.39-63.47,60.59-120.45,60.59-85.83,0-136.32-52.66-136.32-142.81V90.16c0-32.46,18.75-52.65,49.05-52.65s49.77,20.2,49.77,52.65v44.91c0,13.04,10.57,23.61,23.61,23.61h77.37c29.57,0,48.32,16.59,48.32,44.72s-18.75,45.44-48.32,45.44h-77.37c-13.04,0-23.61,10.57-23.61,23.61v101.89c0,31.01,15.87,49.05,42.56,49.05,16.59,0,27.41-7.21,39.67-22.36,9.38-12.26,22.36-18.03,36.79-18.03,25.97,0,44.72,18.75,44.72,46.16,0,8.66-2.16,16.59-5.77,23.8Z"/>
      <path class="cls-1" d="m2218.56,473.88c0,1.24.33,55.13.29,56.35-1.61,46.24-33.69,76.37-82.88,76.37-33.9,0-55.54-7.28-80.78-28.91-7.21-5.77-15.15-10.76-26.69-10.76-28.85,0-46.88,18.03-46.88,46.16,0,11.54,3.61,21.64,10.1,29.57,26.69,34.62,80.06,53.37,146.42,53.37,109.17,0,176.39-62.59,179.49-166.27.07-2.5-.24-57.68-.24-60.22V201.95c0-32.46-18.75-51.93-49.05-51.93-9.92,0-18.59,1.99-25.78,5.76-15.31,8.02-23.98,24.09-23.98,46.17v110.36c0,56.98-28.85,90.88-77.9,90.88-46.16,0-70.69-28.85-70.69-81.5v-119.73c0-32.46-18.75-51.93-49.77-51.93s-49.05,19.47-49.05,51.93v131.27c0,103.87,50.49,160.12,143.54,160.12,35.73,0,65.01-9.67,87.11-27.54,6.73-5.44,16.75-.59,16.75,8.06h0Z"/>
    </g>
    <g>
      <path class="cls-1" d="m103.49,662.6c0,3.39-1.01,7.01-3.04,10.87-2.03,3.86-5.12,7.53-9.27,11.02-4.16,3.49-9.39,6.3-15.71,8.43-6.32,2.13-13.43,3.19-21.34,3.19-16.82,0-29.95-4.9-39.39-14.71-9.44-9.8-14.16-22.95-14.16-39.44,0-11.17,2.16-21.04,6.48-29.61,4.32-8.58,10.57-15.21,18.75-19.89,8.18-4.69,17.95-7.03,29.32-7.03,7.05,0,13.51,1.03,19.39,3.09,5.88,2.06,10.87,4.72,14.96,7.98,4.09,3.26,7.21,6.73,9.37,10.42,2.16,3.69,3.24,7.13,3.24,10.32s-1.21,6.02-3.64,8.28c-2.43,2.26-5.37,3.39-8.83,3.39-2.26,0-4.14-.58-5.63-1.74-1.5-1.16-3.17-3.04-5.04-5.63-3.33-5.05-6.8-8.84-10.42-11.37-3.62-2.53-8.23-3.79-13.81-3.79-8.04,0-14.53,3.14-19.44,9.42-4.92,6.28-7.38,14.87-7.38,25.78,0,5.12.63,9.82,1.89,14.11,1.26,4.29,3.09,7.94,5.48,10.97,2.39,3.03,5.28,5.32,8.67,6.88,3.39,1.56,7.11,2.34,11.17,2.34,5.45,0,10.12-1.26,14.01-3.79,3.89-2.53,7.33-6.38,10.32-11.57,1.66-3.06,3.46-5.45,5.38-7.18,1.93-1.73,4.29-2.59,7.08-2.59,3.32,0,6.08,1.26,8.28,3.79,2.19,2.53,3.29,5.22,3.29,8.08Z"/>
      <path class="cls-1" d="m207.05,680.95c-6.58,5.12-12.95,8.96-19.09,11.52-6.15,2.56-13.05,3.84-20.69,3.84-6.98,0-13.11-1.38-18.4-4.14-5.29-2.76-9.36-6.5-12.22-11.22-2.86-4.72-4.29-9.84-4.29-15.36,0-7.44,2.36-13.79,7.08-19.05,4.72-5.25,11.2-8.77,19.44-10.57,1.73-.4,6.02-1.3,12.86-2.69,6.85-1.4,12.71-2.68,17.6-3.84,4.89-1.16,10.19-2.58,15.9-4.24-.33-7.18-1.78-12.45-4.34-15.8-2.56-3.36-7.86-5.04-15.91-5.04-6.91,0-12.12.96-15.6,2.89-3.49,1.93-6.48,4.82-8.97,8.68-2.49,3.86-4.25,6.4-5.29,7.63-1.03,1.23-3.24,1.84-6.63,1.84-3.06,0-5.7-.98-7.93-2.94-2.23-1.96-3.34-4.47-3.34-7.53,0-4.79,1.7-9.44,5.09-13.96,3.39-4.52,8.67-8.24,15.85-11.17,7.18-2.92,16.12-4.39,26.82-4.39,11.97,0,21.37,1.41,28.22,4.24,6.85,2.83,11.68,7.3,14.51,13.41,2.83,6.12,4.24,14.23,4.24,24.33,0,6.38-.02,11.8-.05,16.25-.03,4.45-.08,9.41-.15,14.86,0,5.12.85,10.45,2.54,16,1.7,5.55,2.54,9.12,2.54,10.72,0,2.79-1.31,5.33-3.94,7.63-2.63,2.29-5.6,3.44-8.92,3.44-2.79,0-5.55-1.31-8.28-3.94-2.73-2.63-5.62-6.43-8.67-11.42Zm-1.79-39.39c-3.99,1.46-9.79,3.01-17.4,4.64-7.61,1.63-12.88,2.83-15.81,3.59-2.93.77-5.72,2.26-8.38,4.49-2.66,2.23-3.99,5.33-3.99,9.32s1.56,7.63,4.69,10.52c3.12,2.89,7.21,4.34,12.26,4.34,5.38,0,10.35-1.18,14.91-3.54,4.55-2.36,7.89-5.4,10.02-9.12,2.46-4.12,3.69-10.9,3.69-20.34v-3.89Z"/>
      <path class="cls-1" d="m297.65,657.02v22.73c0,5.52-1.3,9.66-3.89,12.41-2.59,2.76-5.88,4.14-9.87,4.14s-7.15-1.4-9.67-4.19c-2.53-2.79-3.79-6.91-3.79-12.36v-75.78c0-12.23,4.42-18.35,13.26-18.35,4.52,0,7.78,1.43,9.77,4.29,1.99,2.86,3.09,7.08,3.29,12.66,3.26-5.58,6.6-9.8,10.02-12.66,3.42-2.86,7.99-4.29,13.71-4.29s11.27,1.43,16.65,4.29c5.38,2.86,8.08,6.65,8.08,11.37,0,3.32-1.15,6.07-3.44,8.23-2.29,2.16-4.77,3.24-7.43,3.24-1,0-3.41-.61-7.23-1.84-3.82-1.23-7.2-1.84-10.12-1.84-3.99,0-7.25,1.05-9.77,3.14-2.53,2.09-4.49,5.2-5.88,9.32-1.4,4.12-2.36,9.02-2.89,14.71-.53,5.68-.8,12.61-.8,20.79Z"/>
      <path class="cls-1" d="m442,647.64h-53.25c.07,6.18,1.31,11.63,3.74,16.35,2.43,4.72,5.65,8.28,9.67,10.67,4.02,2.39,8.46,3.59,13.31,3.59,3.26,0,6.23-.38,8.92-1.15,2.69-.76,5.3-1.96,7.83-3.59,2.53-1.63,4.85-3.37,6.98-5.23,2.13-1.86,4.89-4.39,8.28-7.58,1.4-1.2,3.39-1.79,5.98-1.79,2.79,0,5.05.76,6.78,2.29,1.73,1.53,2.59,3.69,2.59,6.48,0,2.46-.96,5.33-2.89,8.62-1.93,3.29-4.84,6.45-8.72,9.47-3.89,3.03-8.78,5.53-14.66,7.53s-12.65,2.99-20.29,2.99c-17.48,0-31.08-4.99-40.78-14.96-9.71-9.97-14.56-23.5-14.56-40.58,0-8.04,1.2-15.51,3.59-22.39,2.39-6.88,5.88-12.78,10.47-17.7,4.59-4.92,10.24-8.69,16.95-11.32,6.71-2.62,14.16-3.94,22.34-3.94,10.63,0,19.76,2.24,27.37,6.73,7.61,4.49,13.31,10.29,17.1,17.4,3.79,7.11,5.68,14.36,5.68,21.74,0,6.85-1.96,11.28-5.88,13.31-3.92,2.03-9.44,3.04-16.55,3.04Zm-53.25-15.46h49.36c-.67-9.31-3.18-16.27-7.53-20.89-4.36-4.62-10.09-6.93-17.2-6.93s-12.35,2.34-16.7,7.03c-4.35,4.69-7,11.62-7.93,20.79Z"/>
      <path class="cls-1" d="m558.28,588.01h6.48v-8.18c0-8.51,1.08-15.27,3.24-20.29,2.16-5.02,5.82-8.68,10.97-10.97,5.15-2.29,12.21-3.44,21.19-3.44,15.89,0,23.83,3.89,23.83,11.67,0,2.53-.83,4.69-2.49,6.48-1.66,1.79-3.62,2.69-5.88,2.69-1.06,0-2.89-.2-5.48-.6-2.59-.4-4.79-.6-6.58-.6-4.92,0-8.08,1.45-9.47,4.34-1.4,2.89-2.09,7.03-2.09,12.41v6.48h6.68c10.37,0,15.56,3.13,15.56,9.37,0,4.45-1.38,7.28-4.14,8.48-2.76,1.2-6.57,1.79-11.42,1.79h-6.68v72.09c0,5.38-1.28,9.49-3.84,12.31-2.56,2.82-5.87,4.24-9.92,4.24s-7.06-1.41-9.62-4.24c-2.56-2.82-3.84-6.93-3.84-12.31v-72.09h-7.48c-4.06,0-7.18-.91-9.37-2.74-2.19-1.83-3.29-4.2-3.29-7.13,0-6.51,4.55-9.77,13.66-9.77Z"/>
      <path class="cls-1" d="m738.72,640.96c0,8.11-1.26,15.59-3.79,22.44-2.53,6.85-6.18,12.73-10.97,17.65-4.79,4.92-10.5,8.69-17.15,11.32-6.65,2.63-14.13,3.94-22.44,3.94s-15.66-1.33-22.24-3.99c-6.58-2.66-12.28-6.46-17.1-11.42-4.82-4.95-8.48-10.8-10.97-17.55-2.49-6.75-3.74-14.21-3.74-22.39s1.26-15.79,3.79-22.64c2.53-6.85,6.15-12.7,10.87-17.55,4.72-4.85,10.44-8.59,17.15-11.22,6.71-2.63,14.13-3.94,22.24-3.94s15.72,1.33,22.44,3.99c6.71,2.66,12.46,6.45,17.25,11.37,4.79,4.92,8.43,10.77,10.92,17.55,2.49,6.78,3.74,14.26,3.74,22.44Zm-27.32,0c0-11.1-2.44-19.74-7.33-25.93-4.89-6.18-11.45-9.27-19.69-9.27-5.32,0-10.01,1.38-14.06,4.14-4.06,2.76-7.18,6.83-9.37,12.22-2.19,5.38-3.29,11.67-3.29,18.85s1.08,13.33,3.24,18.65c2.16,5.32,5.25,9.39,9.27,12.22,4.02,2.83,8.76,4.24,14.21,4.24,8.24,0,14.81-3.11,19.69-9.32,4.89-6.22,7.33-14.81,7.33-25.78Z"/>
      <path class="cls-1" d="m798.21,657.02v22.73c0,5.52-1.3,9.66-3.89,12.41-2.59,2.76-5.88,4.14-9.87,4.14s-7.15-1.4-9.67-4.19c-2.53-2.79-3.79-6.91-3.79-12.36v-75.78c0-12.23,4.42-18.35,13.26-18.35,4.52,0,7.78,1.43,9.77,4.29,1.99,2.86,3.09,7.08,3.29,12.66,3.26-5.58,6.6-9.8,10.02-12.66,3.42-2.86,7.99-4.29,13.71-4.29s11.27,1.43,16.65,4.29c5.38,2.86,8.08,6.65,8.08,11.37,0,3.32-1.15,6.07-3.44,8.23-2.29,2.16-4.77,3.24-7.43,3.24-1,0-3.41-.61-7.23-1.84-3.82-1.23-7.2-1.84-10.12-1.84-3.99,0-7.25,1.05-9.77,3.14-2.53,2.09-4.49,5.2-5.88,9.32-1.4,4.12-2.36,9.02-2.89,14.71-.53,5.68-.8,12.61-.8,20.79Z"/>
      <path class="cls-1" d="m935.24,588.01h2.99v-16.35c0-4.39.12-7.83.35-10.32.23-2.49.88-4.64,1.94-6.43,1.06-1.86,2.59-3.37,4.59-4.54,2-1.16,4.22-1.74,6.68-1.74,3.46,0,6.58,1.3,9.37,3.89,1.86,1.73,3.04,3.84,3.54,6.33.5,2.49.75,6.03.75,10.62v18.55h9.97c3.85,0,6.8.91,8.82,2.74,2.03,1.83,3.04,4.17,3.04,7.03,0,3.66-1.45,6.22-4.34,7.68-2.89,1.46-7.03,2.19-12.41,2.19h-5.09v50.06c0,4.26.15,7.53.45,9.82.3,2.29,1.1,4.16,2.39,5.58,1.3,1.43,3.41,2.14,6.33,2.14,1.6,0,3.75-.28,6.48-.85,2.72-.56,4.85-.85,6.38-.85,2.19,0,4.17.88,5.93,2.64,1.76,1.76,2.64,3.94,2.64,6.53,0,4.39-2.39,7.75-7.18,10.07-4.79,2.33-11.67,3.49-20.64,3.49-8.51,0-14.96-1.43-19.34-4.29-4.39-2.86-7.26-6.81-8.62-11.87-1.36-5.05-2.04-11.8-2.04-20.24v-52.25h-3.59c-3.92,0-6.91-.93-8.97-2.79-2.06-1.86-3.09-4.22-3.09-7.08s1.08-5.2,3.24-7.03c2.16-1.83,5.3-2.74,9.42-2.74Z"/>
      <path class="cls-1" d="m1043.69,561.69v40.38c3.46-3.99,6.83-7.15,10.12-9.47,3.29-2.33,6.93-4.07,10.92-5.23,3.99-1.16,8.28-1.75,12.86-1.75,6.91,0,13.05,1.46,18.4,4.39,5.35,2.93,9.56,7.18,12.61,12.76,1.93,3.26,3.22,6.9,3.89,10.92.66,4.02,1,8.66,1,13.91v52.15c0,5.45-1.25,9.57-3.74,12.36s-5.8,4.19-9.92,4.19c-8.97,0-13.46-5.52-13.46-16.55v-45.97c0-8.71-1.3-15.41-3.89-20.09-2.59-4.69-7.51-7.03-14.76-7.03-4.85,0-9.22,1.38-13.11,4.14-3.89,2.76-6.8,6.53-8.73,11.32-1.46,4.06-2.19,11.27-2.19,21.64v36c0,5.38-1.21,9.49-3.64,12.31-2.43,2.82-5.8,4.24-10.12,4.24-8.97,0-13.46-5.52-13.46-16.55v-118.06c0-5.52,1.18-9.66,3.54-12.41,2.36-2.76,5.67-4.14,9.92-4.14s7.69,1.4,10.12,4.19c2.43,2.79,3.64,6.91,3.64,12.36Z"/>
      <path class="cls-1" d="m1227.42,647.64h-53.25c.07,6.18,1.31,11.63,3.74,16.35,2.43,4.72,5.65,8.28,9.67,10.67,4.02,2.39,8.46,3.59,13.31,3.59,3.26,0,6.23-.38,8.92-1.15,2.69-.76,5.3-1.96,7.83-3.59,2.53-1.63,4.85-3.37,6.98-5.23,2.13-1.86,4.89-4.39,8.28-7.58,1.4-1.2,3.39-1.79,5.98-1.79,2.79,0,5.05.76,6.78,2.29,1.73,1.53,2.59,3.69,2.59,6.48,0,2.46-.96,5.33-2.89,8.62-1.93,3.29-4.84,6.45-8.72,9.47-3.89,3.03-8.78,5.53-14.66,7.53s-12.65,2.99-20.29,2.99c-17.48,0-31.08-4.99-40.78-14.96-9.71-9.97-14.56-23.5-14.56-40.58,0-8.04,1.2-15.51,3.59-22.39,2.39-6.88,5.88-12.78,10.47-17.7,4.59-4.92,10.24-8.69,16.95-11.32,6.71-2.62,14.16-3.94,22.34-3.94,10.63,0,19.76,2.24,27.37,6.73,7.61,4.49,13.31,10.29,17.1,17.4,3.79,7.11,5.68,14.36,5.68,21.74,0,6.85-1.96,11.28-5.88,13.31-3.92,2.03-9.44,3.04-16.55,3.04Zm-53.25-15.46h49.36c-.67-9.31-3.18-16.27-7.53-20.89-4.36-4.62-10.09-6.93-17.2-6.93s-12.35,2.34-16.7,7.03c-4.35,4.69-7,11.62-7.93,20.79Z"/>
      <path class="cls-1" d="m1362.85,602.57l17.75,60.83,16.15-56.54c1.73-5.92,3.01-9.95,3.84-12.12.83-2.16,2.39-4.22,4.69-6.18,2.29-1.96,5.43-2.94,9.42-2.94s7.23.98,9.52,2.94c2.29,1.96,3.91,4.09,4.84,6.38.93,2.29,2.23,6.27,3.89,11.92l16.15,56.54,17.95-60.83c1.2-4.39,2.16-7.56,2.89-9.52.73-1.96,1.96-3.69,3.69-5.19,1.73-1.5,4.22-2.24,7.48-2.24s6.08,1.13,8.48,3.39c2.39,2.26,3.59,4.92,3.59,7.98,0,2.79-1.03,7.01-3.09,12.66l-22.24,65.21c-1.93,5.52-3.42,9.51-4.49,11.97-1.06,2.46-2.74,4.65-5.04,6.58-2.29,1.93-5.43,2.89-9.42,2.89s-7.36-1.03-9.72-3.09c-2.36-2.06-4.1-4.59-5.23-7.58-1.13-2.99-2.36-6.88-3.69-11.67l-15.56-53.05-15.06,53.05c-1.99,7.38-4.16,12.95-6.48,16.7-2.33,3.75-6.42,5.63-12.26,5.63-2.99,0-5.53-.58-7.63-1.74-2.09-1.16-3.84-2.82-5.24-4.99-1.4-2.16-2.63-4.72-3.69-7.68-1.06-2.96-1.89-5.3-2.49-7.03l-22.04-65.21c-2.19-6.12-3.29-10.34-3.29-12.66,0-2.92,1.16-5.55,3.49-7.88,2.33-2.33,5.18-3.49,8.58-3.49,4.52,0,7.58,1.28,9.17,3.84,1.6,2.56,3.29,6.93,5.08,13.11Z"/>
      <path class="cls-1" d="m1622.16,640.96c0,8.11-1.26,15.59-3.79,22.44-2.53,6.85-6.18,12.73-10.97,17.65-4.79,4.92-10.5,8.69-17.15,11.32-6.65,2.63-14.13,3.94-22.44,3.94s-15.66-1.33-22.24-3.99c-6.58-2.66-12.28-6.46-17.1-11.42-4.82-4.95-8.48-10.8-10.97-17.55-2.49-6.75-3.74-14.21-3.74-22.39s1.26-15.79,3.79-22.64c2.53-6.85,6.15-12.7,10.87-17.55,4.72-4.85,10.44-8.59,17.15-11.22,6.71-2.63,14.13-3.94,22.24-3.94s15.72,1.33,22.44,3.99c6.71,2.66,12.46,6.45,17.25,11.37,4.79,4.92,8.43,10.77,10.92,17.55,2.49,6.78,3.74,14.26,3.74,22.44Zm-27.32,0c0-11.1-2.44-19.74-7.33-25.93-4.89-6.18-11.45-9.27-19.69-9.27-5.32,0-10.01,1.38-14.06,4.14-4.06,2.76-7.18,6.83-9.37,12.22-2.19,5.38-3.29,11.67-3.29,18.85s1.08,13.33,3.24,18.65c2.16,5.32,5.25,9.39,9.27,12.22,4.02,2.83,8.76,4.24,14.21,4.24,8.24,0,14.81-3.11,19.69-9.32,4.89-6.22,7.33-14.81,7.33-25.78Z"/>
      <path class="cls-1" d="m1681.65,657.02v22.73c0,5.52-1.3,9.66-3.89,12.41-2.59,2.76-5.88,4.14-9.87,4.14s-7.15-1.4-9.67-4.19c-2.53-2.79-3.79-6.91-3.79-12.36v-75.78c0-12.23,4.42-18.35,13.26-18.35,4.52,0,7.78,1.43,9.77,4.29,1.99,2.86,3.09,7.08,3.29,12.66,3.26-5.58,6.6-9.8,10.02-12.66,3.42-2.86,7.99-4.29,13.71-4.29s11.27,1.43,16.65,4.29c5.38,2.86,8.08,6.65,8.08,11.37,0,3.32-1.15,6.07-3.44,8.23-2.29,2.16-4.77,3.24-7.43,3.24-1,0-3.41-.61-7.23-1.84-3.82-1.23-7.2-1.84-10.12-1.84-3.99,0-7.25,1.05-9.77,3.14-2.53,2.09-4.49,5.2-5.88,9.32-1.4,4.12-2.36,9.02-2.89,14.71-.53,5.68-.8,12.61-.8,20.79Z"/>
      <path class="cls-1" d="m1752.41,679.75v-118.06c0-5.45,1.21-9.57,3.64-12.36,2.43-2.79,5.7-4.19,9.82-4.19s7.44,1.38,9.97,4.14c2.53,2.76,3.79,6.9,3.79,12.41v118.06c0,5.52-1.28,9.66-3.84,12.41-2.56,2.76-5.87,4.14-9.92,4.14s-7.23-1.43-9.72-4.29-3.74-6.95-3.74-12.26Z"/>
      <path class="cls-1" d="m1893.36,680.75v-2.69c-3.66,4.19-7.26,7.6-10.82,10.22-3.56,2.63-7.41,4.62-11.57,5.98-4.16,1.36-8.69,2.04-13.61,2.04-6.52,0-12.55-1.38-18.1-4.14-5.55-2.76-10.35-6.7-14.41-11.82-4.06-5.12-7.13-11.13-9.22-18.05-2.09-6.91-3.14-14.39-3.14-22.44,0-17.02,4.15-30.28,12.46-39.79,8.31-9.51,19.24-14.26,32.81-14.26,7.84,0,14.46,1.35,19.84,4.04,5.38,2.69,10.64,6.83,15.75,12.41v-40.18c0-5.58,1.11-9.8,3.34-12.66,2.23-2.86,5.4-4.29,9.52-4.29s7.29,1.31,9.52,3.94c2.23,2.63,3.34,6.5,3.34,11.62v120.06c0,5.19-1.2,9.07-3.59,11.67-2.39,2.59-5.48,3.89-9.27,3.89s-6.8-1.35-9.22-4.04c-2.43-2.69-3.64-6.53-3.64-11.52Zm-53.55-39.99c0,7.38,1.15,13.66,3.44,18.85,2.29,5.19,5.43,9.09,9.42,11.72,3.99,2.63,8.34,3.94,13.06,3.94s9.16-1.25,13.11-3.74c3.95-2.49,7.11-6.31,9.47-11.47,2.36-5.15,3.54-11.58,3.54-19.29,0-7.24-1.18-13.48-3.54-18.7-2.36-5.22-5.55-9.21-9.57-11.97-4.02-2.76-8.43-4.14-13.21-4.14s-9.44,1.41-13.36,4.24c-3.92,2.83-6.96,6.88-9.12,12.17-2.16,5.29-3.24,11.42-3.24,18.4Z"/>
    </g>
  </g>
</svg>