<?xml version="1.0" encoding="UTF-8"?>
<svg id="Calque_2" data-name="Calque 2" xmlns="http://www.w3.org/2000/svg" viewBox="0 0 377.95 377.95">
  <defs>
    <style>
      .cls-1 {
        fill: #2bba7c;
      }

      .cls-1, .cls-2 {
        stroke-width: 0px;
      }

      .cls-2 {
        fill: none;
      }
    </style>
  </defs>
  <g id="Calque_1-2" data-name="Calque 1">
    <g>
      <path class="cls-2" d="m225.88,280.05c-4.52-2.24-9.31-4.11-14.38-6.09-8.41-3.28-17.11-6.67-25.19-12.09-15.85-10.63-25.8-26.69-34.58-40.85-8.09-13.05-16.46-26.55-28.48-34.71-9.83-6.69-24.7-9.6-34.12-2.22-7.7,6.03-10.58,17.38-13.63,29.4-.62,2.45-1.24,4.89-1.9,7.28-5.03,18.2-17.31,37.7-36.95,39.6,19.26,41.06,54.91,74.29,101.45,89.05,48.56,15.4,99.02,7.53,139.31-17.33-13.08-20.35-29.37-41.03-51.54-52.03Z"/>
      <path class="cls-2" d="m87.83,78.68c9.54-1.4,19.41-2.84,29.85-.47,12.72,2.89,23.07,10.92,32.2,18.01,9.79,7.6,18.23,14.17,27.64,14.1,5.89-.04,12.51-3.01,18.65-8.37,5.36-4.68,9.92-10.57,14.74-16.81.78-1.01,1.56-2.02,2.35-3.03,13.13-16.83,27.67-32.67,43.33-47.28-5.41-2.37-10.99-4.48-16.74-6.3-66.04-20.94-135.6,1.15-178.29,50.49,3.98.83,7.85,1.22,11.65,1.17,4.64-.06,9.49-.77,14.62-1.52Z"/>
      <path class="cls-2" d="m289.01,204.18c-6.43-2.04-12.86-5.45-17.66-11.47-7.95-9.96-9.15-24.78-3.22-39.65,7.28-18.25,22.69-33,41.21-39.47,5.25-1.84,10.6-3.02,15.78-4.16,3.72-.82,7.33-1.61,10.66-2.61-14-25.03-34.35-46.54-59.67-61.86-16.94,15.21-32.59,31.95-46.56,49.86-.77.99-1.53,1.97-2.3,2.96-5.22,6.74-10.61,13.72-17.49,19.73-6.98,6.09-18.21,13.37-32.09,13.47-16.56.12-29.26-9.74-40.45-18.45-8.15-6.33-15.84-12.31-24.1-14.18-6.69-1.52-14.27-.41-22.29.77-5.57.81-11.34,1.66-17.35,1.73-8.08.1-16.21-1.15-24.65-3.83-.22-.07-.45-.16-.68-.23-8.21,12.53-14.86,26.36-19.61,41.31-10.79,34.04-10.15,69.01-.24,100.76,2.04.72,3.79,1.04,5.42,1.02,9.78-.16,16.88-13.35,19.98-24.6.62-2.25,1.2-4.55,1.79-6.87,3.59-14.16,7.66-30.21,20.91-40.58,18.02-14.11,42.94-9.16,58.46,1.41,15.64,10.63,25.61,26.71,34.41,40.91,7.68,12.39,16.39,26.43,28.54,34.58,6.19,4.16,13.48,7,21.19,10,5.27,2.05,10.72,4.18,16.06,6.83,26.22,13.01,44.68,36.07,59.24,58.61,25.07-20.07,44.69-47.48,55.1-80.33,2.87-9.07,4.93-18.2,6.22-27.32l-49.17-5.17c-4.75-.5-11.1-1.16-17.46-3.18Z"/>
      <path class="cls-2" d="m329.55,129.59c-4.79,1.05-9.31,2.05-13.39,3.48-12.98,4.53-23.76,14.86-28.86,27.63-2.32,5.81-3.66,14.31.18,19.12,3.84,4.82,12.55,6.1,21.14,7l48.64,5.11c.39-23.01-3.98-45.55-12.46-66.35-5.03,1.73-10.19,2.89-15.26,4Z"/>
      <path class="cls-1" d="m246.09,8.86C146.77-22.64,40.35,32.54,8.86,131.86c-31.49,99.32,23.69,205.74,123.01,237.23,99.32,31.49,205.74-23.69,237.23-123,31.49-99.32-23.69-205.74-123-237.23Zm-6.24,19.68c5.75,1.82,11.33,3.94,16.74,6.3-15.66,14.6-30.2,30.44-43.33,47.28-.79,1.01-1.57,2.02-2.35,3.03-4.82,6.23-9.38,12.12-14.74,16.81-6.14,5.36-12.76,8.33-18.65,8.37-9.41.07-17.86-6.5-27.64-14.1-9.13-7.09-19.47-15.12-32.2-18.01-10.44-2.37-20.31-.92-29.85.47-5.13.75-9.98,1.46-14.62,1.52-3.8.05-7.67-.35-11.65-1.17C104.24,29.69,173.8,7.6,239.84,28.54Zm-101.74,320.87c-46.54-14.76-82.19-47.99-101.45-89.05,19.64-1.9,31.93-21.4,36.95-39.6.66-2.39,1.28-4.82,1.9-7.28,3.05-12.02,5.93-23.38,13.63-29.4,9.42-7.38,24.29-4.47,34.12,2.22,12.02,8.17,20.38,21.66,28.48,34.71,8.78,14.16,18.73,30.22,34.58,40.85,8.08,5.42,16.78,8.81,25.19,12.09,5.07,1.98,9.86,3.84,14.38,6.09,22.16,11,38.46,31.68,51.54,52.03-40.29,24.86-90.75,32.73-139.31,17.33Zm211.31-109.56c-10.41,32.84-30.03,60.26-55.1,80.33-14.56-22.55-33.03-45.6-59.24-58.61-5.34-2.65-10.79-4.78-16.06-6.83-7.71-3.01-14.99-5.85-21.19-10-12.15-8.15-20.86-22.2-28.54-34.58-8.8-14.19-18.77-30.28-34.41-40.91-15.52-10.57-40.44-15.52-58.46-1.41-13.25,10.37-17.32,26.42-20.91,40.58-.59,2.32-1.17,4.62-1.79,6.87-3.1,11.25-10.2,24.44-19.98,24.6-1.64.02-3.39-.3-5.42-1.02-9.91-31.75-10.55-66.72.24-100.76,4.74-14.96,11.4-28.79,19.61-41.31.22.07.45.16.68.23,8.44,2.68,16.57,3.93,24.65,3.83,6.01-.08,11.77-.92,17.35-1.73,8.03-1.17,15.61-2.28,22.29-.77,8.26,1.88,15.95,7.85,24.1,14.18,11.2,8.7,23.89,18.56,40.45,18.45,13.88-.1,25.11-7.37,32.09-13.47,6.88-6.01,12.27-12.98,17.49-19.73.76-.99,1.52-1.97,2.3-2.96,13.97-17.92,29.62-34.65,46.56-49.86,25.32,15.32,45.67,36.83,59.67,61.86-3.33.99-6.94,1.79-10.66,2.61-5.18,1.14-10.53,2.32-15.78,4.16-18.52,6.47-33.93,21.22-41.21,39.47-5.93,14.87-4.73,29.7,3.22,39.65,4.8,6.02,11.24,9.44,17.66,11.47,6.36,2.02,12.7,2.68,17.46,3.18l49.17,5.17c-1.29,9.12-3.34,18.25-6.22,27.32Zm7.85-47.91l-48.64-5.11c-8.59-.9-17.3-2.18-21.14-7-3.84-4.81-2.5-13.31-.18-19.12,5.1-12.77,15.88-23.1,28.86-27.63,4.08-1.43,8.6-2.43,13.39-3.48,5.07-1.11,10.23-2.27,15.26-4,8.48,20.8,12.85,43.34,12.46,66.35Z"/>
    </g>
  </g>
</svg>