<?xml version="1.0" encoding="UTF-8"?>
<svg id="Calque_2" data-name="Calque 2" xmlns="http://www.w3.org/2000/svg" xmlns:xlink="http://www.w3.org/1999/xlink" viewBox="0 0 200 250">
  <defs>
    <style>
      .cls-1 {
        fill: #17261d;
      }

      .cls-1, .cls-2 {
        stroke-width: 0px;
      }

      .cls-2 {
        fill: none;
      }

      .cls-3 {
        clip-path: url(#clippath-1);
      }

      .cls-4 {
        clip-path: url(#clippath);
      }
    </style>
    <clipPath id="clippath">
      <rect class="cls-2" width="200" height="250"/>
    </clipPath>
    <clipPath id="clippath-1">
      <rect class="cls-2" x="-2.27" y="-.64" width="1659.6" height="1655.63"/>
    </clipPath>
  </defs>
  <g id="Calque_2-2" data-name="Calque 2">
    <g class="cls-4">
      <g class="cls-3">
        <g>
          <path class="cls-1" d="m-1.55-.33h0v4.75c0,2.4,1.94,4.34,4.33,4.34s4.33-1.94,4.33-4.34V-.7H-1.55v.37Z"/>
          <path class="cls-1" d="m73-.33c-.11,0-.21-.01-.32-.01s-.22,0-.32.01c-2.24.17-4.01,2.04-4.01,4.33v26.56c0,2.4,1.94,4.34,4.33,4.34s4.33-1.94,4.33-4.34V4c0-2.29-1.77-4.16-4.01-4.33Z"/>
          <path class="cls-1" d="m125.09,131.31c-2.39,0-4.33,1.94-4.33,4.34v9.59c0,2.35,1.93,4.25,4.31,4.25h.04c1.97,0,3.64-1.31,4.15-3.1.1-.37.16-.75.16-1.15v-9.59c0-.41-.06-.8-.16-1.18-.51-1.83-2.18-3.16-4.17-3.16Z"/>
          <path class="cls-1" d="m2.78,43.82c-2.39,0-4.33,1.94-4.33,4.34v17.57c0,2.4,1.94,4.34,4.33,4.34s4.33-1.94,4.33-4.34v-17.57c0-2.4-1.94-4.34-4.33-4.34Z"/>
          <path class="cls-1" d="m2.78,17.48c-2.39,0-4.33,1.94-4.33,4.34v8.83c0,2.4,1.94,4.34,4.33,4.34s4.33-1.94,4.33-4.34v-8.83c0-2.4-1.94-4.34-4.33-4.34Z"/>
          <path class="cls-1" d="m2.8,131.25h-.04c-2.38,0-4.31,1.93-4.31,4.32v4.74h0v.31h0v4.67c0,2.36,1.94,4.27,4.33,4.27s4.33-1.91,4.33-4.27v-9.72c0-2.39-1.93-4.32-4.31-4.32Z"/>
          <rect class="cls-1" x="-1.55" y="78.82" width="8.66" height="43.72" rx="4.31" ry="4.31"/>
          <path class="cls-1" d="m20.25,52.48c-2.39,0-4.33,1.94-4.33,4.34v17.57c0,2.4,1.94,4.34,4.33,4.34s4.33-1.94,4.33-4.34v-17.57c0-2.4-1.94-4.34-4.33-4.34Z"/>
          <path class="cls-1" d="m20.25,113.79c-2.39,0-4.33,1.94-4.33,4.34v8.78c0,2.4,1.94,4.34,4.33,4.34s4.33-1.94,4.33-4.34v-8.78c0-2.4-1.94-4.34-4.33-4.34Z"/>
          <path class="cls-1" d="m20.25,87.44c-2.39,0-4.33,1.94-4.33,4.34v8.83c0,2.4,1.94,4.34,4.33,4.34s4.33-1.94,4.33-4.34v-8.83c0-2.4-1.94-4.34-4.33-4.34Z"/>
          <path class="cls-1" d="m20.27-.11h-.04c-2.38,0-4.31,1.93-4.31,4.32v35.09c0,2.39,1.93,4.32,4.31,4.32h.04c2.38,0,4.31-1.93,4.31-4.32V4.2C24.58,1.82,22.65-.11,20.27-.11Z"/>
          <path class="cls-1" d="m37.73,34.96c-2.39,0-4.33,1.94-4.33,4.34v17.57c0,2.4,1.94,4.34,4.33,4.34s4.33-1.94,4.33-4.34v-17.57c0-2.4-1.94-4.34-4.33-4.34Z"/>
          <path class="cls-1" d="m37.73,96.27c-2.39,0-4.33,1.94-4.33,4.34v17.57c0,2.4,1.94,4.34,4.33,4.34s4.33-1.94,4.33-4.34v-17.57c0-2.4-1.94-4.34-4.33-4.34Z"/>
          <path class="cls-1" d="m37.73,69.92c-2.39,0-4.33,1.94-4.33,4.34v8.83c0,2.4,1.94,4.34,4.33,4.34s4.33-1.94,4.33-4.34v-8.83c0-2.4-1.94-4.34-4.33-4.34Z"/>
          <path class="cls-1" d="m33.4,21.77c0,2.39,1.93,4.32,4.31,4.32h.04c2.38,0,4.31-1.93,4.31-4.32V-.7h-8.66v22.47Z"/>
          <path class="cls-1" d="m37.75,131.27h-.04c-2.38,0-4.31,1.93-4.31,4.32v26.78c0,2.35,1.93,4.25,4.31,4.25h.04c2.38,0,4.31-1.9,4.31-4.25v-26.78c0-2.39-1.93-4.32-4.31-4.32Z"/>
          <path class="cls-1" d="m55.2,96.31c2.39,0,4.33-1.94,4.33-4.34v-17.57c0-2.4-1.94-4.34-4.33-4.34s-4.33,1.94-4.33,4.34v17.57c0,2.4,1.94,4.34,4.33,4.34Z"/>
          <path class="cls-1" d="m59.53,135.71c0-2.4-1.94-4.34-4.33-4.34s-4.33,1.94-4.33,4.34v4.6h.04v4.87c0,2.35,1.93,4.25,4.31,4.25h.04c2.38,0,4.31-1.9,4.31-4.25v-4.92h-.04v-4.55Z"/>
          <path class="cls-1" d="m55.2,122.53c2.39,0,4.33-1.94,4.33-4.34v-8.83c0-2.4-1.94-4.34-4.33-4.34s-4.33,1.94-4.33,4.34v8.83c0,2.4,1.94,4.34,4.33,4.34Z"/>
          <rect class="cls-1" x="50.87" y="17.47" width="8.66" height="43.72" rx="4.31" ry="4.31"/>
          <path class="cls-1" d="m50.91,4.3c0,2.39,1.93,4.32,4.31,4.32h.04c2.38,0,4.31-1.93,4.31-4.32V-.7h-8.66v5Z"/>
          <path class="cls-1" d="m72.67,43.77c-2.39,0-4.33,1.94-4.33,4.34v17.57c0,2.4,1.94,4.34,4.33,4.34s4.33-1.94,4.33-4.34v-17.57c0-2.4-1.94-4.34-4.33-4.34Z"/>
          <path class="cls-1" d="m72.67,105.08c-2.39,0-4.33,1.94-4.33,4.34v17.57c0,2.4,1.94,4.34,4.33,4.34s4.33-1.94,4.33-4.34v-17.57c0-2.4-1.94-4.34-4.33-4.34Z"/>
          <path class="cls-1" d="m72.67,78.74c-2.39,0-4.33,1.94-4.33,4.34v8.83c0,2.4,1.94,4.34,4.33,4.34s4.33-1.94,4.33-4.34v-8.83c0-2.4-1.94-4.34-4.33-4.34Z"/>
          <path class="cls-1" d="m90.15,87.4h0c-2.39,0-4.33,1.94-4.33,4.34v17.57c0,2.4,1.94,4.34,4.33,4.34h0c2.39,0,4.33-1.94,4.33-4.34v-17.57c0-2.4-1.94-4.34-4.33-4.34Z"/>
          <path class="cls-1" d="m90.15,8.64h0c-2.39,0-4.33,1.94-4.33,4.34v8.86c0,2.4,1.94,4.34,4.33,4.34h0c2.39,0,4.33-1.94,4.33-4.34v-8.86c0-2.4-1.94-4.34-4.33-4.34Z"/>
          <path class="cls-1" d="m90.15,122.37h0c-2.39,0-4.33,1.94-4.33,4.34v8.83c0,1.98,1.32,3.65,3.13,4.17.38.11.78.17,1.19.17h0c.41,0,.81-.06,1.19-.17,1.81-.52,3.13-2.19,3.13-4.17v-8.83c0-2.4-1.94-4.34-4.33-4.34Z"/>
          <path class="cls-1" d="m90.17,34.81h-.04c-2.38,0-4.31,1.93-4.31,4.32v35.09c0,2.39,1.93,4.32,4.31,4.32h.04c2.38,0,4.31-1.93,4.31-4.32v-35.09c0-2.39-1.93-4.32-4.31-4.32Z"/>
          <path class="cls-1" d="m107.62,34.96h0c-2.39,0-4.33,1.94-4.33,4.34v17.57c0,2.4,1.94,4.34,4.33,4.34h0c2.39,0,4.33-1.94,4.33-4.34v-17.57c0-2.4-1.94-4.34-4.33-4.34Z"/>
          <path class="cls-1" d="m107.62,96.27h0c-2.39,0-4.33,1.94-4.33,4.34v17.57c0,2.4,1.94,4.34,4.33,4.34h0c2.39,0,4.33-1.94,4.33-4.34v-17.57c0-2.4-1.94-4.34-4.33-4.34Z"/>
          <path class="cls-1" d="m107.62,69.92h0c-2.39,0-4.33,1.94-4.33,4.34v8.83c0,2.4,1.94,4.34,4.33,4.34h0c2.39,0,4.33-1.94,4.33-4.34v-8.83c0-2.4-1.94-4.34-4.33-4.34Z"/>
          <path class="cls-1" d="m103.29,21.77c0,2.39,1.93,4.32,4.31,4.32h.04c2.38,0,4.31-1.93,4.31-4.32V-.7h-8.66v22.47Z"/>
          <path class="cls-1" d="m107.64,131.27h-.04c-2.38,0-4.31,1.93-4.31,4.32v26.78c0,2.35,1.93,4.25,4.31,4.25h.04c2.38,0,4.31-1.9,4.31-4.25v-26.78c0-2.39-1.93-4.32-4.31-4.32Z"/>
          <path class="cls-1" d="m125.09,69.99c-2.39,0-4.33,1.94-4.33,4.34v17.57c0,2.4,1.94,4.34,4.33,4.34,1.98,0,3.66-1.34,4.17-3.16.1-.37.16-.77.16-1.18v-17.57c0-.41-.06-.8-.16-1.18-.51-1.83-2.18-3.16-4.17-3.16Z"/>
          <path class="cls-1" d="m125.09,104.96c-2.39,0-4.33,1.94-4.33,4.34v8.83c0,2.4,1.94,4.34,4.33,4.34,1.98,0,3.66-1.34,4.17-3.16.1-.37.16-.77.16-1.18v-8.83c0-.41-.06-.8-.16-1.18-.51-1.83-2.18-3.16-4.17-3.16Z"/>
          <path class="cls-1" d="m125.11,17.4h-.04c-2.38,0-4.31,1.93-4.31,4.32v35.09c0,2.39,1.93,4.32,4.31,4.32h.04c1.97,0,3.64-1.33,4.15-3.15.1-.37.16-.77.16-1.17V21.72c0-.41-.06-.8-.16-1.17-.51-1.82-2.17-3.15-4.15-3.15Z"/>
          <path class="cls-1" d="m120.77,4.36c0,2.39,1.93,4.32,4.31,4.32h.04c1.97,0,3.64-1.33,4.15-3.15.1-.37.16-.77.16-1.17V-.7h-8.66v5.06Z"/>
          <path class="cls-1" d="m137.56-.33h0v4.75c0,2.4,1.94,4.34,4.33,4.34s4.33-1.94,4.33-4.34V-.7h-8.66v.37Z"/>
          <path class="cls-1" d="m141.88,43.82c-2.39,0-4.33,1.94-4.33,4.34v17.57c0,2.4,1.94,4.34,4.33,4.34s4.33-1.94,4.33-4.34v-17.57c0-2.4-1.94-4.34-4.33-4.34Z"/>
          <path class="cls-1" d="m141.88,17.48c-2.39,0-4.33,1.94-4.33,4.34v8.83c0,2.4,1.94,4.34,4.33,4.34s4.33-1.94,4.33-4.34v-8.83c0-2.4-1.94-4.34-4.33-4.34Z"/>
          <path class="cls-1" d="m141.9,131.25h-.04c-2.38,0-4.31,1.93-4.31,4.32v4.74h0v.31h0v4.67c0,2.36,1.94,4.27,4.33,4.27s4.33-1.91,4.33-4.27v-9.72c0-2.39-1.93-4.32-4.31-4.32Z"/>
          <rect class="cls-1" x="137.56" y="78.82" width="8.66" height="43.72" rx="4.31" ry="4.31"/>
          <path class="cls-1" d="m159.36,52.48c-2.39,0-4.33,1.94-4.33,4.34v17.57c0,2.4,1.94,4.34,4.33,4.34s4.33-1.94,4.33-4.34v-17.57c0-2.4-1.94-4.34-4.33-4.34Z"/>
          <path class="cls-1" d="m159.36,113.79c-2.39,0-4.33,1.94-4.33,4.34v8.78c0,2.4,1.94,4.34,4.33,4.34s4.33-1.94,4.33-4.34v-8.78c0-2.4-1.94-4.34-4.33-4.34Z"/>
          <path class="cls-1" d="m159.36,87.44c-2.39,0-4.33,1.94-4.33,4.34v8.83c0,2.4,1.94,4.34,4.33,4.34s4.33-1.94,4.33-4.34v-8.83c0-2.4-1.94-4.34-4.33-4.34Z"/>
          <path class="cls-1" d="m159.38-.11h-.04c-2.38,0-4.31,1.93-4.31,4.32v35.09c0,2.39,1.93,4.32,4.31,4.32h.04c2.38,0,4.31-1.93,4.31-4.32V4.2c0-2.39-1.93-4.32-4.31-4.32Z"/>
          <path class="cls-1" d="m176.83,34.96c-2.39,0-4.33,1.94-4.33,4.34v17.57c0,2.4,1.94,4.34,4.33,4.34s4.33-1.94,4.33-4.34v-17.57c0-2.4-1.94-4.34-4.33-4.34Z"/>
          <path class="cls-1" d="m176.83,96.27c-2.39,0-4.33,1.94-4.33,4.34v17.57c0,2.4,1.94,4.34,4.33,4.34s4.33-1.94,4.33-4.34v-17.57c0-2.4-1.94-4.34-4.33-4.34Z"/>
          <path class="cls-1" d="m176.83,69.92c-2.39,0-4.33,1.94-4.33,4.34v8.83c0,2.4,1.94,4.34,4.33,4.34s4.33-1.94,4.33-4.34v-8.83c0-2.4-1.94-4.34-4.33-4.34Z"/>
          <path class="cls-1" d="m172.5,21.77c0,2.39,1.93,4.32,4.31,4.32h.04c2.38,0,4.31-1.93,4.31-4.32V-.7h-8.66v22.47Z"/>
          <path class="cls-1" d="m176.85,131.27h-.04c-2.38,0-4.31,1.93-4.31,4.32v26.78c0,2.35,1.93,4.25,4.31,4.25h.04c2.38,0,4.31-1.9,4.31-4.25v-26.78c0-2.39-1.93-4.32-4.31-4.32Z"/>
          <path class="cls-1" d="m194.3,96.31c2.39,0,4.33-1.94,4.33-4.34v-17.57c0-2.4-1.94-4.34-4.33-4.34s-4.33,1.94-4.33,4.34v17.57c0,2.4,1.94,4.34,4.33,4.34Z"/>
          <path class="cls-1" d="m198.63,135.71c0-2.4-1.94-4.34-4.33-4.34s-4.33,1.94-4.33,4.34v4.6h.04v4.87c0,2.35,1.93,4.25,4.31,4.25h.04c2.38,0,4.31-1.9,4.31-4.25v-4.92h-.04v-4.55Z"/>
          <path class="cls-1" d="m194.3,122.53c2.39,0,4.33-1.94,4.33-4.34v-8.83c0-2.4-1.94-4.34-4.33-4.34s-4.33,1.94-4.33,4.34v8.83c0,2.4,1.94,4.34,4.33,4.34Z"/>
          <rect class="cls-1" x="189.97" y="17.47" width="8.66" height="43.72" rx="4.31" ry="4.31"/>
          <path class="cls-1" d="m190.01,4.3c0,2.39,1.93,4.32,4.31,4.32h.04c2.38,0,4.31-1.93,4.31-4.32V-.7h-8.66v5Z"/>
          <path class="cls-1" d="m73,140.62c-.11,0-.21-.01-.32-.01s-.22,0-.32.01c-2.24.16-4.01,2.01-4.01,4.26v26.15c0,2.36,1.94,4.27,4.33,4.27s4.33-1.91,4.33-4.27v-26.15c0-2.25-1.77-4.1-4.01-4.26Z"/>
          <path class="cls-1" d="m2.78,184.08c-2.39,0-4.33,1.91-4.33,4.27v17.3c0,2.36,1.94,4.27,4.33,4.27s4.33-1.91,4.33-4.27v-17.3c0-2.36-1.94-4.27-4.33-4.27Z"/>
          <path class="cls-1" d="m2.78,158.15c-2.39,0-4.33,1.91-4.33,4.27v8.69c0,2.36,1.94,4.27,4.33,4.27s4.33-1.91,4.33-4.27v-8.69c0-2.36-1.94-4.27-4.33-4.27Z"/>
          <path class="cls-1" d="m2.8,218.54h-.04c-2.38,0-4.31,1.9-4.31,4.25v34.54c0,2.35,1.93,4.25,4.31,4.25h.04c2.38,0,4.31-1.9,4.31-4.25v-34.54c0-2.35-1.93-4.25-4.31-4.25Z"/>
          <path class="cls-1" d="m20.25,192.6c-2.39,0-4.33,1.91-4.33,4.27v17.3c0,2.36,1.94,4.27,4.33,4.27s4.33-1.91,4.33-4.27v-17.3c0-2.36-1.94-4.27-4.33-4.27Z"/>
          <path class="cls-1" d="m20.25,227.02c-2.39,0-4.33,1.91-4.33,4.27v8.69c0,2.36,1.94,4.27,4.33,4.27s4.33-1.91,4.33-4.27v-8.69c0-2.36-1.94-4.27-4.33-4.27Z"/>
          <path class="cls-1" d="m20.27,140.83h-.04c-2.38,0-4.31,1.9-4.31,4.25v34.54c0,2.35,1.93,4.25,4.31,4.25h.04c2.38,0,4.31-1.9,4.31-4.25v-34.54c0-2.35-1.93-4.25-4.31-4.25Z"/>
          <path class="cls-1" d="m37.73,175.36c-2.39,0-4.33,1.91-4.33,4.27v17.3c0,2.36,1.94,4.27,4.33,4.27s4.33-1.91,4.33-4.27v-17.3c0-2.36-1.94-4.27-4.33-4.27Z"/>
          <path class="cls-1" d="m37.73,235.71c-2.39,0-4.33,1.91-4.33,4.27v17.3c0,2.36,1.94,4.27,4.33,4.27s4.33-1.91,4.33-4.27v-17.3c0-2.36-1.94-4.27-4.33-4.27Z"/>
          <path class="cls-1" d="m37.73,209.77c-2.39,0-4.33,1.91-4.33,4.27v8.69c0,2.36,1.94,4.27,4.33,4.27s4.33-1.91,4.33-4.27v-8.69c0-2.36-1.94-4.27-4.33-4.27Z"/>
          <path class="cls-1" d="m55.2,235.74c2.39,0,4.33-1.91,4.33-4.27v-17.3c0-2.36-1.94-4.27-4.33-4.27s-4.33,1.91-4.33,4.27v17.3c0,2.36,1.94,4.27,4.33,4.27Z"/>
          <path class="cls-1" d="m55.2,261.56c2.39,0,4.33-1.91,4.33-4.27v-8.69c0-2.36-1.94-4.27-4.33-4.27s-4.33,1.91-4.33,4.27v8.69c0,2.36,1.94,4.27,4.33,4.27Z"/>
          <path class="cls-1" d="m55.18,201.18h.04c2.38,0,4.31-1.9,4.31-4.25v-34.54c0-2.35-1.93-4.25-4.31-4.25h-.04c-2.38,0-4.31,1.9-4.31,4.25v34.54c0,2.35,1.93,4.25,4.31,4.25Z"/>
          <path class="cls-1" d="m72.67,184.03c-2.39,0-4.33,1.91-4.33,4.27v17.3c0,2.36,1.94,4.27,4.33,4.27s4.33-1.91,4.33-4.27v-17.3c0-2.36-1.94-4.27-4.33-4.27Z"/>
          <path class="cls-1" d="m72.67,244.38c-2.39,0-4.33,1.91-4.33,4.27v17.3c0,2.36,1.94,4.27,4.33,4.27s4.33-1.91,4.33-4.27v-17.3c0-2.36-1.94-4.27-4.33-4.27Z"/>
          <path class="cls-1" d="m72.67,218.45c-2.39,0-4.33,1.91-4.33,4.27v8.69c0,2.36,1.94,4.27,4.33,4.27s4.33-1.91,4.33-4.27v-8.69c0-2.36-1.94-4.27-4.33-4.27Z"/>
          <path class="cls-1" d="m90.15,226.98h0c-2.39,0-4.33,1.91-4.33,4.27v17.3c0,2.36,1.94,4.27,4.33,4.27h0c2.39,0,4.33-1.91,4.33-4.27v-17.3c0-2.36-1.94-4.27-4.33-4.27Z"/>
          <path class="cls-1" d="m90.15,149.44h0c-2.39,0-4.33,1.91-4.33,4.27v8.72c0,2.36,1.94,4.27,4.33,4.27h0c2.39,0,4.33-1.91,4.33-4.27v-8.72c0-2.36-1.94-4.27-4.33-4.27Z"/>
          <path class="cls-1" d="m90.17,175.21h-.04c-2.38,0-4.31,1.9-4.31,4.25v34.54c0,2.35,1.93,4.25,4.31,4.25h.04c2.38,0,4.31-1.9,4.31-4.25v-34.54c0-2.35-1.93-4.25-4.31-4.25Z"/>
          <path class="cls-1" d="m107.62,175.36h0c-2.39,0-4.33,1.91-4.33,4.27v17.3c0,2.36,1.94,4.27,4.33,4.27h0c2.39,0,4.33-1.91,4.33-4.27v-17.3c0-2.36-1.94-4.27-4.33-4.27Z"/>
          <path class="cls-1" d="m107.62,235.71h0c-2.39,0-4.33,1.91-4.33,4.27v17.3c0,2.36,1.94,4.27,4.33,4.27h0c2.39,0,4.33-1.91,4.33-4.27v-17.3c0-2.36-1.94-4.27-4.33-4.27Z"/>
          <path class="cls-1" d="m107.62,209.77h0c-2.39,0-4.33,1.91-4.33,4.27v8.69c0,2.36,1.94,4.27,4.33,4.27h0c2.39,0,4.33-1.91,4.33-4.27v-8.69c0-2.36-1.94-4.27-4.33-4.27Z"/>
          <path class="cls-1" d="m125.09,209.84c-2.39,0-4.33,1.91-4.33,4.27v17.3c0,2.36,1.94,4.27,4.33,4.27,1.98,0,3.66-1.32,4.17-3.11.1-.37.16-.76.16-1.16v-17.3c0-.4-.06-.79-.16-1.16-.51-1.8-2.18-3.11-4.17-3.11Z"/>
          <path class="cls-1" d="m125.09,244.26c-2.39,0-4.33,1.91-4.33,4.27v8.69c0,2.36,1.94,4.27,4.33,4.27,1.98,0,3.66-1.32,4.17-3.11.1-.37.16-.76.16-1.16v-8.69c0-.4-.06-.79-.16-1.16-.51-1.8-2.18-3.11-4.17-3.11Z"/>
          <path class="cls-1" d="m125.11,158.08h-.04c-2.38,0-4.31,1.9-4.31,4.25v34.54c0,2.35,1.93,4.25,4.31,4.25h.04c1.97,0,3.64-1.31,4.15-3.1.1-.37.16-.75.16-1.15v-34.54c0-.4-.06-.79-.16-1.15-.51-1.79-2.17-3.1-4.15-3.1Z"/>
          <path class="cls-1" d="m141.88,184.08c-2.39,0-4.33,1.91-4.33,4.27v17.3c0,2.36,1.94,4.27,4.33,4.27s4.33-1.91,4.33-4.27v-17.3c0-2.36-1.94-4.27-4.33-4.27Z"/>
          <path class="cls-1" d="m141.88,158.15c-2.39,0-4.33,1.91-4.33,4.27v8.69c0,2.36,1.94,4.27,4.33,4.27s4.33-1.91,4.33-4.27v-8.69c0-2.36-1.94-4.27-4.33-4.27Z"/>
          <path class="cls-1" d="m141.9,218.54h-.04c-2.38,0-4.31,1.9-4.31,4.25v34.54c0,2.35,1.93,4.25,4.31,4.25h.04c2.38,0,4.31-1.9,4.31-4.25v-34.54c0-2.35-1.93-4.25-4.31-4.25Z"/>
          <path class="cls-1" d="m159.36,192.6c-2.39,0-4.33,1.91-4.33,4.27v17.3c0,2.36,1.94,4.27,4.33,4.27s4.33-1.91,4.33-4.27v-17.3c0-2.36-1.94-4.27-4.33-4.27Z"/>
          <path class="cls-1" d="m159.36,227.02c-2.39,0-4.33,1.91-4.33,4.27v8.69c0,2.36,1.94,4.27,4.33,4.27s4.33-1.91,4.33-4.27v-8.69c0-2.36-1.94-4.27-4.33-4.27Z"/>
          <path class="cls-1" d="m159.38,140.83h-.04c-2.38,0-4.31,1.9-4.31,4.25v34.54c0,2.35,1.93,4.25,4.31,4.25h.04c2.38,0,4.31-1.9,4.31-4.25v-34.54c0-2.35-1.93-4.25-4.31-4.25Z"/>
          <path class="cls-1" d="m176.83,175.36c-2.39,0-4.33,1.91-4.33,4.27v17.3c0,2.36,1.94,4.27,4.33,4.27s4.33-1.91,4.33-4.27v-17.3c0-2.36-1.94-4.27-4.33-4.27Z"/>
          <path class="cls-1" d="m176.83,235.71c-2.39,0-4.33,1.91-4.33,4.27v17.3c0,2.36,1.94,4.27,4.33,4.27s4.33-1.91,4.33-4.27v-17.3c0-2.36-1.94-4.27-4.33-4.27Z"/>
          <path class="cls-1" d="m176.83,209.77c-2.39,0-4.33,1.91-4.33,4.27v8.69c0,2.36,1.94,4.27,4.33,4.27s4.33-1.91,4.33-4.27v-8.69c0-2.36-1.94-4.27-4.33-4.27Z"/>
          <path class="cls-1" d="m194.3,235.74c2.39,0,4.33-1.91,4.33-4.27v-17.3c0-2.36-1.94-4.27-4.33-4.27s-4.33,1.91-4.33,4.27v17.3c0,2.36,1.94,4.27,4.33,4.27Z"/>
          <path class="cls-1" d="m194.3,261.56c2.39,0,4.33-1.91,4.33-4.27v-8.69c0-2.36-1.94-4.27-4.33-4.27s-4.33,1.91-4.33,4.27v8.69c0,2.36,1.94,4.27,4.33,4.27Z"/>
          <path class="cls-1" d="m194.28,201.18h.04c2.38,0,4.31-1.9,4.31-4.25v-34.54c0-2.35-1.93-4.25-4.31-4.25h-.04c-2.38,0-4.31,1.9-4.31,4.25v34.54c0,2.35,1.93,4.25,4.31,4.25Z"/>
        </g>
      </g>
    </g>
  </g>
</svg>