<svg width="256" height="77" viewBox="0 0 256 77" fill="none" xmlns="http://www.w3.org/2000/svg">
<g clip-path="url(#clip0_288_1956)">
<path d="M80.9886 17.0632C80.9886 17.0632 78.7684 17.0411 77.1888 18.1912C75.6093 19.3413 73.5437 19.474 71.8316 18.5229C69.6114 17.2955 66.9603 16.6209 63.9117 16.5767C63.8122 16.5767 63.7128 16.5767 63.6134 16.5767C52.5344 16.5767 45.2109 24.4724 45.2109 36.6809C45.2109 48.8563 52.5123 56.752 63.5471 56.7852H63.6134C66.7615 56.7852 69.5009 56.1217 71.7874 54.861C73.5327 53.8989 75.6535 54.0427 77.2662 55.2259C78.8457 56.3871 80.9886 56.3097 80.9886 56.3097C84.4129 56.3097 86.4895 54.0759 86.4895 50.4819V22.8136C86.4895 19.2196 84.4239 17.0632 80.9886 17.0632ZM65.8557 46.8215C60.2776 46.8215 56.3784 42.6746 56.3784 36.692C56.3784 30.632 60.2776 26.5624 65.8557 26.5624C71.5113 26.5624 75.5761 30.7868 75.5761 36.692C75.5761 42.5972 71.5113 46.8215 65.8557 46.8215Z" fill="#2BBA7C"/>
<path d="M20.7111 16.5879C8.45012 16.5879 0 24.7269 0 36.6922C0 48.6574 8.45012 56.7964 21.1087 56.7964C27.8026 56.7964 33.1377 54.5626 36.6503 50.4931C37.3241 49.5863 37.7218 48.6132 37.766 47.5073C37.8543 45.3288 36.4846 43.4046 34.397 42.7964C32.5412 42.2656 30.6855 42.8296 29.4042 44.1124C27.0183 46.3462 24.544 47.3857 21.1198 47.3857C16.9997 47.3857 13.8958 45.6274 12.1947 42.6195C11.543 41.4694 12.3935 40.0429 13.719 40.0429H34.6731C38.02 40.0429 40.2513 37.8091 40.2513 34.3809V33.7396C40.2402 24.561 31.7128 16.5879 20.7111 16.5879ZM26.3555 32.5342H13.4318C12.2389 32.5342 11.4657 31.2182 12.1063 30.2008C13.7522 27.58 17.0107 25.9876 20.7111 25.9876C23.6493 25.9876 26.2561 27.0602 27.9682 28.8959C29.2496 30.2893 28.2333 32.5342 26.3555 32.5342Z" fill="#2BBA7C"/>
<path d="M168.527 17.0632C168.527 18.8104 170.405 19.9052 171.918 19.0316C174.128 17.7599 176.856 17.0742 180.081 17.0742C190.52 17.0742 196.098 23.3002 196.098 34.7788V50.9684C196.098 54.5624 194.021 56.7962 190.597 56.7962C187.25 56.7962 185.185 54.5624 185.185 50.9684V36.0506C185.185 30.1453 182.478 27.0379 177.22 27.0379C172.813 27.0379 169.886 29.4487 168.903 33.6619C168.66 34.7014 168.538 35.8404 168.538 37.09V50.9684C168.538 54.5624 166.462 56.7962 163.037 56.7962C159.691 56.7962 157.625 54.5624 157.625 50.9684V5.8278C157.625 2.23381 159.702 0 163.037 0C166.462 0 168.538 2.23381 168.538 5.8278V17.0632H168.527Z" fill="#2BBA7C"/>
<path d="M211.971 5.8278V50.9684C211.971 54.5624 209.894 56.7962 206.47 56.7962C203.123 56.7962 201.058 54.5624 201.058 50.9684V5.8278C201.058 2.23381 203.134 0 206.47 0C209.905 0 211.971 2.23381 211.971 5.8278Z" fill="#2BBA7C"/>
<path d="M100.849 18.1468C102.318 19.3743 104.428 19.5844 106.03 18.5339C107.985 17.2511 110.382 16.5986 113.221 16.5986C116.413 16.5986 118.633 18.5892 118.633 22.0173C118.633 25.368 116.402 27.4359 113.221 27.4359C106.284 27.4359 102.385 30.5433 102.385 38.8372V50.2384C102.385 53.8324 100.308 56.0662 96.8837 56.0662C93.5368 56.0662 91.4712 53.8324 91.4712 50.2384V22.5702C91.4712 18.9762 93.5478 16.8309 96.8837 16.8309C96.8837 16.8309 99.1812 16.7424 100.849 18.1468Z" fill="#2BBA7C"/>
<path d="M151.981 50.0948C149.595 54.5625 144.966 56.7963 138.67 56.7963C129.193 56.7963 123.615 50.9685 123.615 41.0048V9.97478C123.615 6.38078 125.691 4.14697 129.027 4.14697C132.451 4.14697 134.528 6.38078 134.528 9.97478V14.94C134.528 16.3776 135.699 17.5498 137.135 17.5498H145.684C148.954 17.5498 151.02 19.3855 151.02 22.4929C151.02 25.6888 148.943 27.5135 145.684 27.5135H137.135C135.699 27.5135 134.528 28.6857 134.528 30.1233V41.3918C134.528 44.82 136.284 46.8105 139.234 46.8105C141.067 46.8105 142.26 46.0143 143.619 44.3334C144.657 42.9732 146.093 42.3429 147.684 42.3429C150.556 42.3429 152.621 44.4219 152.621 47.4519C152.621 48.414 152.378 49.2986 151.981 50.0948Z" fill="#2BBA7C"/>
<path d="M245.064 52.4059C245.064 52.5386 245.098 58.4991 245.098 58.6318C244.921 63.7408 241.375 67.0805 235.94 67.0805C232.196 67.0805 229.81 66.2732 227.015 63.8846C226.22 63.2432 225.347 62.6903 224.066 62.6903C220.874 62.6903 218.886 64.6808 218.886 67.7993C218.886 69.071 219.283 70.1879 220.001 71.0726C222.95 74.8988 228.849 76.9778 236.172 76.9778C248.235 76.9778 255.657 70.0552 256 58.5876C256.011 58.3111 255.978 52.2069 255.978 51.9304V22.338C255.978 18.744 253.901 16.5986 250.565 16.5986C249.472 16.5986 248.511 16.8198 247.715 17.24C246.025 18.1247 245.064 19.9051 245.064 22.349V34.5576C245.064 40.8609 241.872 44.6097 236.46 44.6097C231.356 44.6097 228.65 41.4249 228.65 35.5971V22.338C228.65 18.744 226.574 16.5986 223.149 16.5986C219.802 16.5986 217.737 18.755 217.737 22.338V36.8577C217.737 48.3474 223.315 54.5623 233.588 54.5623C237.531 54.5623 240.768 53.4896 243.209 51.5212C243.949 50.913 245.064 51.4438 245.064 52.4059Z" fill="#2BBA7C"/>
<path d="M11.4326 73.2731C11.4326 73.6491 11.3222 74.0472 11.1013 74.4785C10.8804 74.9098 10.5379 75.3079 10.074 75.6949C9.61007 76.082 9.03569 76.3916 8.33979 76.6239C7.6439 76.8561 6.85964 76.9777 5.98701 76.9777C4.1313 76.9777 2.68429 76.4359 1.63493 75.3521C0.585564 74.2684 0.0664062 72.8087 0.0664062 70.9951C0.0664062 69.7565 0.309416 68.6728 0.78439 67.7218C1.25936 66.7708 1.95526 66.0409 2.84998 65.5212C3.75574 65.0014 4.82719 64.7471 6.08643 64.7471C6.85964 64.7471 7.57762 64.8577 8.22933 65.0899C8.88104 65.3221 9.43334 65.6096 9.88622 65.9746C10.3391 66.3395 10.6815 66.7155 10.9245 67.1246C11.1675 67.5338 11.278 67.9098 11.278 68.2637C11.278 68.6286 11.1455 68.9272 10.8804 69.1815C10.6153 69.4359 10.2839 69.5575 9.90831 69.5575C9.65426 69.5575 9.45543 69.4911 9.28974 69.3695C9.12405 69.2368 8.93627 69.0378 8.73744 68.7502C8.37293 68.1863 7.98632 67.7771 7.58867 67.4896C7.19102 67.2131 6.68291 67.0693 6.06434 67.0693C5.18066 67.0693 4.46268 67.4122 3.92143 68.1088C3.38018 68.8055 3.10403 69.7566 3.10403 70.9619C3.10403 71.5259 3.17031 72.0456 3.3139 72.5212C3.4575 72.9967 3.65633 73.3948 3.92143 73.7376C4.18653 74.0693 4.50686 74.3237 4.88242 74.5006C5.25798 74.6776 5.66668 74.755 6.11957 74.755C6.72709 74.755 7.2352 74.6112 7.66599 74.3347C8.09678 74.0583 8.47234 73.627 8.80372 73.052C8.9915 72.7092 9.19033 72.4548 9.4002 72.2558C9.61007 72.0678 9.87517 71.9682 10.1845 71.9682C10.549 71.9682 10.8583 72.112 11.1013 72.3885C11.3111 72.6649 11.4326 72.9524 11.4326 73.2731Z" fill="#A9FFA4"/>
<path d="M22.8763 75.2971C22.1473 75.8611 21.4514 76.2924 20.7665 76.5689C20.0817 76.8564 19.3306 76.9891 18.48 76.9891C17.7068 76.9891 17.033 76.8343 16.4476 76.5357C15.8621 76.2261 15.4093 75.8169 15.1 75.2971C14.7796 74.7774 14.625 74.2134 14.625 73.5941C14.625 72.7758 14.8901 72.0681 15.4093 71.493C15.9284 70.9069 16.6464 70.5199 17.5522 70.3208C17.7399 70.2766 18.2149 70.1771 18.9771 70.0223C19.7282 69.8674 20.3799 69.7237 20.9212 69.602C21.4624 69.4693 22.0479 69.3145 22.6775 69.1376C22.6443 68.3414 22.4786 67.7663 22.2025 67.3904C21.9153 67.0144 21.3299 66.8374 20.4462 66.8374C19.684 66.8374 19.1096 66.948 18.723 67.1581C18.3364 67.3682 18.005 67.6889 17.7289 68.1202C17.4528 68.5515 17.2539 68.828 17.1435 68.9607C17.033 69.0934 16.79 69.1597 16.4144 69.1597C16.072 69.1597 15.7848 69.0491 15.5418 68.839C15.2988 68.6178 15.1773 68.3414 15.1773 68.0096C15.1773 67.4788 15.3651 66.9701 15.7406 66.4614C16.1162 65.9638 16.7016 65.5546 17.4969 65.2229C18.2922 64.9022 19.2753 64.7363 20.4572 64.7363C21.7827 64.7363 22.8211 64.8911 23.5722 65.2008C24.3233 65.5104 24.8646 66.008 25.1738 66.6826C25.4831 67.3572 25.6378 68.2529 25.6378 69.3698C25.6378 70.0776 25.6378 70.6747 25.6378 71.1723C25.6378 71.67 25.6267 72.2118 25.6267 72.8201C25.6267 73.384 25.7151 73.9812 25.9029 74.5894C26.0907 75.2087 26.179 75.5957 26.179 75.7727C26.179 76.0823 26.0354 76.3588 25.7482 76.6131C25.461 76.8674 25.1297 76.9891 24.7651 76.9891C24.4559 76.9891 24.1466 76.8453 23.8483 76.5578C23.528 76.2703 23.2077 75.8501 22.8763 75.2971ZM22.6775 70.9512C22.2356 71.117 21.595 71.2829 20.7555 71.4599C19.916 71.6368 19.3306 71.7695 19.0102 71.858C18.6899 71.9464 18.3806 72.1123 18.0824 72.3556C17.7841 72.5989 17.6405 72.9417 17.6405 73.384C17.6405 73.8374 17.8173 74.2245 18.1597 74.5452C18.5021 74.8659 18.955 75.0207 19.5183 75.0207C20.1148 75.0207 20.6671 74.888 21.1642 74.6336C21.6723 74.3682 22.0368 74.0365 22.2688 73.6273C22.5449 73.1739 22.6775 72.4219 22.6775 71.3825V70.9512Z" fill="#A9FFA4"/>
<path d="M32.8837 72.6542V75.1645C32.8837 75.7727 32.7401 76.2371 32.4529 76.5357C32.1657 76.8343 31.8012 76.9891 31.3594 76.9891C30.9286 76.9891 30.5751 76.8343 30.2879 76.5247C30.0118 76.215 29.8682 75.7616 29.8682 75.1534V66.7932C29.8682 65.4441 30.3542 64.7695 31.3373 64.7695C31.8343 64.7695 32.1989 64.9243 32.4198 65.245C32.6407 65.5657 32.7622 66.0302 32.7843 66.6495C33.1488 66.0302 33.5133 65.5657 33.8889 65.245C34.2644 64.9243 34.7725 64.7695 35.4022 64.7695C36.0318 64.7695 36.6504 64.9243 37.2468 65.245C37.8433 65.5657 38.1416 65.9749 38.1416 66.5057C38.1416 66.8706 38.02 67.1803 37.766 67.4125C37.5119 67.6558 37.2358 67.7664 36.9486 67.7664C36.8381 67.7664 36.573 67.7 36.1533 67.5673C35.7335 67.4346 35.358 67.3683 35.0377 67.3683C34.5958 67.3683 34.2423 67.4788 33.9552 67.7111C33.668 67.9433 33.4581 68.2861 33.3034 68.7395C33.1488 69.1929 33.0383 69.7348 32.9831 70.3651C32.9058 70.9844 32.8837 71.7474 32.8837 72.6542Z" fill="#A9FFA4"/>
<path d="M48.823 71.6144H42.9466C42.9576 72.3 43.0902 72.8972 43.3553 73.428C43.6204 73.9477 43.9738 74.3458 44.4267 74.6112C44.8685 74.8766 45.3656 75.0093 45.8958 75.0093C46.2603 75.0093 46.5807 74.9651 46.8789 74.8877C47.1771 74.7992 47.4643 74.6665 47.7405 74.4896C48.0166 74.3126 48.2817 74.1136 48.5137 73.9145C48.7457 73.7044 49.0549 73.428 49.4305 73.0741C49.5851 72.9414 49.8061 72.875 50.0933 72.875C50.4025 72.875 50.6566 72.9635 50.8444 73.1294C51.0322 73.2953 51.1316 73.5385 51.1316 73.8482C51.1316 74.1246 51.0211 74.4343 50.8112 74.7992C50.6014 75.1641 50.281 75.5069 49.8502 75.8498C49.4195 76.1815 48.8782 76.458 48.2265 76.6791C47.5748 76.9003 46.8347 77.0109 45.9842 77.0109C44.0511 77.0109 42.5489 76.458 41.4774 75.3521C40.406 74.2463 39.8647 72.7534 39.8647 70.8624C39.8647 69.9777 39.9973 69.1483 40.2624 68.3853C40.5275 67.6223 40.9141 66.9698 41.4222 66.428C41.9303 65.8861 42.5489 65.4659 43.3 65.1784C44.0401 64.8908 44.8685 64.7471 45.7633 64.7471C46.9341 64.7471 47.9504 64.9904 48.7898 65.488C49.6293 65.9856 50.2589 66.627 50.6787 67.4122C51.0984 68.1973 51.3083 69.0046 51.3083 69.8118C51.3083 70.5638 51.0874 71.0614 50.6566 71.2826C50.2148 71.5038 49.6072 71.6144 48.823 71.6144ZM42.9355 69.9114H48.3922C48.3149 68.8829 48.0387 68.1088 47.5637 67.6001C47.0777 67.0915 46.4481 66.8371 45.6638 66.8371C44.9127 66.8371 44.3052 67.0915 43.8192 67.6112C43.3332 68.131 43.046 68.894 42.9355 69.9114Z" fill="#A9FFA4"/>
<path d="M61.6694 65.0239H62.3874V64.1171C62.3874 63.1771 62.5089 62.4251 62.7409 61.8722C62.9839 61.3193 63.3815 60.9101 63.9559 60.6558C64.5303 60.4014 65.3035 60.2798 66.2976 60.2798C68.0539 60.2798 68.9266 60.7111 68.9266 61.5736C68.9266 61.8501 68.8382 62.0934 68.6504 62.2924C68.4626 62.4915 68.2528 62.591 67.9987 62.591C67.8772 62.591 67.6784 62.5689 67.3912 62.5247C67.104 62.4804 66.861 62.4583 66.6622 62.4583C66.1209 62.4583 65.7674 62.6131 65.6128 62.9338C65.4582 63.2545 65.3808 63.7079 65.3808 64.3051V65.0239H66.1209C67.2697 65.0239 67.8441 65.3667 67.8441 66.0634C67.8441 66.561 67.6894 66.8706 67.3912 67.0033C67.0819 67.136 66.6622 67.2024 66.132 67.2024H65.3919V75.1755C65.3919 75.7727 65.2483 76.2261 64.9721 76.5357C64.6849 76.8453 64.3204 77.0002 63.8786 77.0002C63.4478 77.0002 63.0943 76.8453 62.8182 76.5357C62.531 76.2261 62.3984 75.7727 62.3984 75.1755V67.2024H61.57C61.1171 67.2024 60.7747 67.1029 60.5317 66.9038C60.2887 66.7047 60.1672 66.4393 60.1672 66.1187C60.1561 65.3888 60.6642 65.0239 61.6694 65.0239Z" fill="#A9FFA4"/>
<path d="M81.5963 70.8849C81.5963 71.7806 81.4527 72.61 81.1766 73.3619C80.9004 74.1139 80.4917 74.7664 79.9615 75.3082C79.4313 75.8501 78.8017 76.2703 78.0616 76.5578C77.3326 76.8454 76.5042 76.9891 75.5873 76.9891C74.6816 76.9891 73.8531 76.8454 73.1352 76.5468C72.4061 76.2482 71.7765 75.828 71.2463 75.2861C70.7161 74.7332 70.3074 74.0918 70.0313 73.3509C69.7551 72.61 69.6226 71.7806 69.6226 70.8738C69.6226 69.967 69.7662 69.1266 70.0423 68.3746C70.3184 67.6226 70.7161 66.9702 71.2463 66.4394C71.7655 65.8975 72.3951 65.4883 73.1462 65.2008C73.8863 64.9133 74.7037 64.7695 75.5984 64.7695C76.5042 64.7695 77.3326 64.9133 78.0727 65.2119C78.8128 65.5104 79.4534 65.9196 79.9836 66.4725C80.5138 67.0144 80.9115 67.6668 81.1876 68.4078C81.4638 69.1487 81.5963 69.9781 81.5963 70.8849ZM78.5808 70.8849C78.5808 69.6574 78.3157 68.7063 77.7744 68.0207C77.2332 67.3351 76.5042 66.9923 75.5984 66.9923C75.013 66.9923 74.4938 67.1471 74.0409 67.4457C73.588 67.7553 73.2456 68.1976 73.0026 68.7948C72.7596 69.392 72.6381 70.0886 72.6381 70.8738C72.6381 71.6589 72.7596 72.3446 72.9916 72.9307C73.2346 73.5168 73.577 73.9702 74.0188 74.2798C74.4607 74.5894 74.9909 74.7443 75.5873 74.7443C76.4931 74.7443 77.2221 74.4014 77.7634 73.7158C78.3157 73.0413 78.5808 72.0902 78.5808 70.8849Z" fill="#A9FFA4"/>
<path d="M88.1684 72.6542V75.1645C88.1684 75.7727 88.0248 76.2371 87.7376 76.5357C87.4504 76.8343 87.0859 76.9891 86.644 76.9891C86.2132 76.9891 85.8598 76.8343 85.5726 76.5247C85.2964 76.215 85.1528 75.7616 85.1528 75.1534V66.7932C85.1528 65.4441 85.6389 64.7695 86.6219 64.7695C87.119 64.7695 87.4835 64.9243 87.7044 65.245C87.9254 65.5657 88.0469 66.0302 88.0689 66.6495C88.4335 66.0302 88.798 65.5657 89.1735 65.245C89.5491 64.9243 90.0572 64.7695 90.6868 64.7695C91.3164 64.7695 91.935 64.9243 92.5315 65.245C93.128 65.5657 93.4262 65.9749 93.4262 66.5057C93.4262 66.8706 93.3047 67.1803 93.0507 67.4125C92.7966 67.6558 92.5205 67.7664 92.2333 67.7664C92.1228 67.7664 91.8577 67.7 91.438 67.5673C91.0182 67.4346 90.6426 67.3683 90.3223 67.3683C89.8805 67.3683 89.527 67.4788 89.2398 67.7111C88.9526 67.9433 88.7427 68.2861 88.5881 68.7395C88.4335 69.1929 88.323 69.7348 88.2678 70.3651C88.2015 70.9844 88.1684 71.7474 88.1684 72.6542Z" fill="#A9FFA4"/>
<path d="M103.302 65.0237H103.633V63.2101C103.633 62.7235 103.644 62.3476 103.666 62.0711C103.688 61.7946 103.765 61.5624 103.876 61.3634C103.997 61.1532 104.163 60.9874 104.384 60.8657C104.605 60.733 104.848 60.6777 105.124 60.6777C105.511 60.6777 105.853 60.8215 106.162 61.109C106.372 61.297 106.494 61.5292 106.549 61.8057C106.604 62.0822 106.626 62.4692 106.626 62.9779V65.0237H107.731C108.162 65.0237 108.482 65.1232 108.703 65.3223C108.924 65.5213 109.034 65.7867 109.034 66.0964C109.034 66.5055 108.88 66.782 108.559 66.9479C108.239 67.1138 107.786 67.1912 107.19 67.1912H106.626V72.7314C106.626 73.207 106.637 73.5608 106.671 73.8152C106.704 74.0695 106.792 74.2796 106.936 74.4344C107.079 74.5893 107.311 74.6667 107.632 74.6667C107.808 74.6667 108.051 74.6335 108.35 74.5782C108.648 74.5119 108.891 74.4897 109.056 74.4897C109.299 74.4897 109.52 74.5893 109.708 74.7773C109.907 74.9763 109.995 75.2085 109.995 75.4961C109.995 75.9826 109.73 76.3476 109.2 76.613C108.67 76.8673 107.908 77 106.925 77C105.986 77 105.268 76.8452 104.793 76.5245C104.307 76.2038 103.986 75.7725 103.843 75.2085C103.688 74.6446 103.622 73.9036 103.622 72.9747V67.1912H103.224C102.793 67.1912 102.462 67.0916 102.23 66.8815C101.998 66.6714 101.888 66.4171 101.888 66.0964C101.888 65.7757 102.009 65.5213 102.241 65.3223C102.506 65.1232 102.849 65.0237 103.302 65.0237Z" fill="#A9FFA4"/>
<path d="M115.286 62.1152V66.5828C115.673 66.1404 116.037 65.7976 116.402 65.5322C116.766 65.2779 117.164 65.0788 117.606 64.9572C118.048 64.8245 118.523 64.7692 119.031 64.7692C119.793 64.7692 120.467 64.9351 121.063 65.2558C121.66 65.5765 122.124 66.052 122.455 66.6713C122.665 67.0362 122.808 67.4343 122.886 67.8766C122.963 68.319 122.996 68.8387 122.996 69.4137V75.1863C122.996 75.7945 122.864 76.2479 122.588 76.5575C122.311 76.8671 121.947 77.022 121.494 77.022C120.5 77.022 120.003 76.4137 120.003 75.1863V70.0994C120.003 69.1373 119.859 68.3964 119.572 67.8766C119.285 67.3569 118.744 67.1025 117.937 67.1025C117.396 67.1025 116.921 67.2574 116.49 67.5559C116.059 67.8656 115.739 68.2747 115.529 68.8055C115.364 69.2589 115.286 70.0551 115.286 71.1942V75.1752C115.286 75.7724 115.154 76.2258 114.889 76.5354C114.623 76.845 114.248 76.9998 113.773 76.9998C112.779 76.9998 112.282 76.3916 112.282 75.1641V62.1152C112.282 61.507 112.414 61.0425 112.668 60.7439C112.933 60.4343 113.298 60.2905 113.762 60.2905C114.237 60.2905 114.612 60.4453 114.878 60.755C115.154 61.0536 115.286 61.507 115.286 62.1152Z" fill="#A9FFA4"/>
<path d="M135.578 71.6144H129.701C129.712 72.3 129.845 72.8972 130.11 73.428C130.375 73.9477 130.729 74.3458 131.182 74.6112C131.623 74.8766 132.12 75.0093 132.651 75.0093C133.015 75.0093 133.336 74.9651 133.634 74.8877C133.932 74.7992 134.219 74.6665 134.495 74.4896C134.772 74.3126 135.037 74.1136 135.269 73.9145C135.501 73.7044 135.81 73.428 136.185 73.0741C136.34 72.9414 136.561 72.875 136.848 72.875C137.157 72.875 137.411 72.9635 137.599 73.1294C137.787 73.2953 137.886 73.5385 137.886 73.8482C137.886 74.1246 137.776 74.4343 137.566 74.7992C137.356 75.1641 137.036 75.5069 136.605 75.8498C136.174 76.1815 135.633 76.458 134.981 76.6791C134.33 76.9003 133.59 77.0109 132.739 77.0109C130.806 77.0109 129.304 76.458 128.232 75.3521C127.161 74.2463 126.62 72.7534 126.62 70.8624C126.62 69.9777 126.752 69.1483 127.017 68.3853C127.282 67.6223 127.669 66.9698 128.177 66.428C128.685 65.8861 129.304 65.4659 130.055 65.1784C130.795 64.8908 131.623 64.7471 132.518 64.7471C133.689 64.7471 134.705 64.9904 135.545 65.488C136.384 65.9856 137.014 66.627 137.434 67.4122C137.853 68.1973 138.063 69.0046 138.063 69.8118C138.063 70.5638 137.842 71.0614 137.411 71.2826C136.97 71.5038 136.362 71.6144 135.578 71.6144ZM129.701 69.9114H135.158C135.081 68.8829 134.805 68.1088 134.33 67.6001C133.844 67.0915 133.214 66.8371 132.43 66.8371C131.679 66.8371 131.071 67.0915 130.585 67.6112C130.088 68.131 129.801 68.894 129.701 69.9114Z" fill="#A9FFA4"/>
<path d="M150.534 66.6384L152.489 73.3619L154.279 67.1139C154.466 66.4615 154.61 66.0081 154.698 65.7758C154.787 65.5326 154.963 65.3114 155.217 65.0902C155.471 64.8691 155.814 64.7695 156.256 64.7695C156.709 64.7695 157.051 64.8801 157.305 65.0902C157.559 65.3114 157.736 65.5436 157.835 65.798C157.935 66.0523 158.078 66.4947 158.266 67.1139L160.056 73.3619L162.033 66.6384C162.165 66.1518 162.276 65.798 162.353 65.5879C162.43 65.3667 162.574 65.1787 162.762 65.0128C162.95 64.8469 163.226 64.7695 163.59 64.7695C163.955 64.7695 164.264 64.8912 164.529 65.1455C164.794 65.3999 164.927 65.6874 164.927 66.0302C164.927 66.3398 164.816 66.8043 164.584 67.4346L162.132 74.6447C161.922 75.2529 161.757 75.6953 161.635 75.9717C161.514 76.2482 161.337 76.4915 161.083 76.7016C160.829 76.9117 160.486 77.0223 160.045 77.0223C159.592 77.0223 159.227 76.9117 158.973 76.6795C158.708 76.4473 158.52 76.1708 158.399 75.839C158.277 75.5073 158.134 75.076 157.99 74.5452L156.267 68.6842L154.599 74.5452C154.378 75.3635 154.135 75.9717 153.881 76.392C153.627 76.8122 153.174 77.0112 152.522 77.0112C152.191 77.0112 151.915 76.9449 151.683 76.8232C151.451 76.6905 151.263 76.5136 151.108 76.2703C150.954 76.027 150.821 75.7506 150.7 75.4188C150.578 75.0871 150.49 74.8327 150.424 74.6447L147.993 67.4346C147.75 66.76 147.629 66.2956 147.629 66.0302C147.629 65.7095 147.761 65.422 148.016 65.1566C148.27 64.9022 148.59 64.7695 148.965 64.7695C149.463 64.7695 149.805 64.9133 149.982 65.1898C150.158 65.4662 150.346 65.9528 150.534 66.6384Z" fill="#A9FFA4"/>
<path d="M179.187 70.8849C179.187 71.7806 179.043 72.61 178.767 73.3619C178.491 74.1139 178.082 74.7664 177.552 75.3082C177.022 75.8501 176.392 76.2703 175.652 76.5578C174.923 76.8454 174.094 76.9891 173.178 76.9891C172.272 76.9891 171.443 76.8454 170.725 76.5468C169.996 76.2482 169.367 75.828 168.837 75.2861C168.306 74.7332 167.898 74.0918 167.622 73.3509C167.345 72.61 167.213 71.7806 167.213 70.8738C167.213 69.967 167.356 69.1266 167.633 68.3746C167.909 67.6226 168.306 66.9702 168.837 66.4394C169.356 65.8975 169.985 65.4883 170.737 65.2008C171.477 64.9133 172.294 64.7695 173.189 64.7695C174.094 64.7695 174.923 64.9133 175.663 65.2119C176.403 65.5104 177.044 65.9196 177.574 66.4725C178.104 67.0144 178.502 67.6668 178.778 68.4078C179.043 69.1487 179.187 69.9781 179.187 70.8849ZM176.16 70.8849C176.16 69.6574 175.895 68.7063 175.354 68.0207C174.812 67.3351 174.083 66.9923 173.178 66.9923C172.592 66.9923 172.073 67.1471 171.62 67.4457C171.167 67.7553 170.825 68.1976 170.582 68.7948C170.339 69.392 170.217 70.0886 170.217 70.8738C170.217 71.6589 170.339 72.3446 170.571 72.9307C170.814 73.5168 171.156 73.9702 171.598 74.2798C172.04 74.5894 172.57 74.7443 173.167 74.7443C174.072 74.7443 174.801 74.4014 175.343 73.7158C175.895 73.0413 176.16 72.0902 176.16 70.8849Z" fill="#A9FFA4"/>
<path d="M185.759 72.6542V75.1645C185.759 75.7727 185.616 76.2371 185.328 76.5357C185.041 76.8343 184.677 76.9891 184.235 76.9891C183.804 76.9891 183.451 76.8343 183.163 76.5247C182.887 76.215 182.744 75.7616 182.744 75.1534V66.7932C182.744 65.4441 183.23 64.7695 184.213 64.7695C184.71 64.7695 185.074 64.9243 185.295 65.245C185.516 65.5657 185.638 66.0302 185.66 66.6495C186.024 66.0302 186.389 65.5657 186.764 65.245C187.14 64.9243 187.648 64.7695 188.278 64.7695C188.907 64.7695 189.526 64.9243 190.122 65.245C190.719 65.5657 191.017 65.9749 191.017 66.5057C191.017 66.8706 190.896 67.1803 190.641 67.4125C190.387 67.6558 190.111 67.7664 189.824 67.7664C189.714 67.7664 189.449 67.7 189.029 67.5673C188.609 67.4346 188.233 67.3683 187.913 67.3683C187.471 67.3683 187.118 67.4788 186.831 67.7111C186.543 67.9433 186.334 68.2861 186.179 68.7395C186.024 69.1929 185.914 69.7348 185.859 70.3651C185.781 70.9844 185.759 71.7474 185.759 72.6542Z" fill="#A9FFA4"/>
<path d="M193.569 75.1755V62.1155C193.569 61.5073 193.701 61.0539 193.966 60.7442C194.232 60.4346 194.596 60.2798 195.049 60.2798C195.502 60.2798 195.866 60.4346 196.154 60.7332C196.43 61.0428 196.573 61.4962 196.573 62.1044V75.1645C196.573 75.7727 196.43 76.2371 196.154 76.5357C195.866 76.8453 195.502 76.9891 195.06 76.9891C194.618 76.9891 194.265 76.8343 193.989 76.5136C193.712 76.1929 193.569 75.7616 193.569 75.1755Z" fill="#A9FFA4"/>
<path d="M209.143 75.2749V74.9763C208.735 75.4408 208.337 75.8167 207.95 76.1043C207.553 76.3918 207.133 76.6129 206.669 76.7678C206.205 76.9226 205.708 76.9889 205.167 76.9889C204.449 76.9889 203.786 76.8341 203.168 76.5355C202.549 76.2259 202.019 75.7946 201.577 75.2306C201.124 74.6667 200.793 74.0032 200.561 73.2401C200.329 72.4771 200.218 71.6477 200.218 70.763C200.218 68.8831 200.682 67.4123 201.599 66.3618C202.516 65.3112 203.72 64.7804 205.222 64.7804C206.084 64.7804 206.824 64.9242 207.409 65.2227C208.006 65.5213 208.58 65.9747 209.154 66.594V62.1485C209.154 61.5292 209.276 61.0648 209.519 60.7441C209.762 60.4234 210.115 60.2686 210.568 60.2686C211.021 60.2686 211.375 60.4123 211.618 60.6998C211.861 60.9874 211.982 61.4186 211.982 61.9826V75.2638C211.982 75.8389 211.85 76.2701 211.585 76.5577C211.319 76.8452 210.977 76.9889 210.557 76.9889C210.149 76.9889 209.806 76.8452 209.541 76.5466C209.276 76.2591 209.143 75.8278 209.143 75.2749ZM203.223 70.8626C203.223 71.6809 203.344 72.3776 203.598 72.9415C203.852 73.5166 204.195 73.9479 204.637 74.2354C205.078 74.5229 205.553 74.6667 206.084 74.6667C206.614 74.6667 207.1 74.534 207.531 74.2575C207.972 73.981 208.315 73.5608 208.58 72.9858C208.845 72.4107 208.967 71.703 208.967 70.8515C208.967 70.0553 208.834 69.3586 208.58 68.7836C208.315 68.2085 207.961 67.7662 207.52 67.4565C207.078 67.1469 206.592 67.0032 206.062 67.0032C205.509 67.0032 205.023 67.158 204.581 67.4676C204.151 67.7772 203.808 68.2306 203.576 68.8167C203.344 69.4139 203.223 70.0885 203.223 70.8626Z" fill="#A9FFA4"/>
</g>
<defs>
<clipPath id="clip0_288_1956">
<rect width="256" height="77" fill="white"/>
</clipPath>
</defs>
</svg>
