<svg width="134" height="41" viewBox="0 0 134 41" fill="none" xmlns="http://www.w3.org/2000/svg">
<path d="M42.1221 8.87033C42.1221 8.87033 40.9663 8.85769 40.1436 9.45881C39.321 10.0559 38.2479 10.126 37.3592 9.63294C36.2074 8.99274 34.8235 8.64448 33.2426 8.62379C33.1909 8.62379 33.1409 8.62149 33.0892 8.62149C27.3296 8.62149 23.5175 12.7253 23.5175 19.0676C23.5175 25.4098 27.3152 29.497 33.0542 29.5137H33.0892C34.7235 29.5137 36.1534 29.1677 37.3385 28.5149C38.2479 28.0132 39.3503 28.0879 40.1873 28.7034C41.0076 29.3045 42.1221 29.2649 42.1221 29.2649C43.9041 29.2649 44.9812 28.104 44.9812 26.2391V11.8547C44.9812 9.98925 43.9041 8.87033 42.1221 8.87033ZM34.249 24.3317C31.3486 24.3317 29.3184 22.1761 29.3184 19.0676C29.3184 15.9591 31.3486 13.8035 34.249 13.8035C37.1495 13.8035 39.3043 16.0005 39.3043 19.0676C39.3043 22.1347 37.1909 24.3317 34.249 24.3317Z" fill="#2BBA7C"/>
<path d="M10.7735 8.62149C4.39236 8.62149 0 12.8477 0 19.0653C0 25.2828 4.39236 29.5114 10.9803 29.5114C14.461 29.5114 17.2374 28.3505 19.0602 26.2368C19.41 25.7685 19.6157 25.2627 19.6381 24.6846C19.6817 23.5507 18.9729 22.5542 17.8831 22.2387C16.9197 21.9611 15.954 22.2554 15.2894 22.9209C14.0462 24.0817 12.7617 24.6202 10.9803 24.6202C8.84044 24.6202 7.2239 23.7065 6.3375 22.1456C5.99971 21.5485 6.4409 20.8066 7.12911 20.8066H18.0244C19.7645 20.8066 20.9249 19.6457 20.9249 17.8636V17.532C20.9249 12.765 16.4912 8.62206 10.7729 8.62206L10.7735 8.62149ZM13.705 16.9096H6.98607C6.3645 16.9096 5.96467 16.2258 6.29614 15.6993C7.14979 14.3356 8.84676 13.5109 10.7735 13.5109C12.3027 13.5109 13.6573 14.0684 14.546 15.0241C15.213 15.739 14.6828 16.9102 13.705 16.9102V16.9096Z" fill="#2BBA7C"/>
<path d="M87.6438 8.86571C87.6438 9.77199 88.6222 10.3415 89.408 9.89038C90.5598 9.22891 91.9782 8.87088 93.6522 8.87088C99.0803 8.87088 101.981 12.1041 101.981 18.0728V26.4874C101.981 28.3528 100.904 29.5131 99.1217 29.5131C97.3397 29.5131 96.3039 28.3522 96.3039 26.4874V18.736C96.3039 15.6689 94.8953 14.0523 92.1603 14.0523C89.8665 14.0523 88.3458 15.3068 87.8346 17.4941C87.7088 18.0326 87.6438 18.6279 87.6438 19.275V26.4874C87.6438 28.3528 86.5667 29.5131 84.7847 29.5131C83.0027 29.5131 81.967 28.3522 81.967 26.4874V3.02573C81.967 1.16029 83.0441 0 84.7847 0C86.5254 0 87.6438 1.16029 87.6438 3.02573V8.86514V8.86571Z" fill="#2BBA7C"/>
<path d="M110.241 3.02573V26.4874C110.241 28.3528 109.164 29.5131 107.382 29.5131C105.6 29.5131 104.564 28.3522 104.564 26.4874V3.02573C104.564 1.16029 105.641 0 107.382 0C109.123 0 110.241 1.16029 110.241 3.02573Z" fill="#2BBA7C"/>
<path d="M52.4481 9.43065C53.2116 10.0709 54.3088 10.1772 55.1412 9.62892C56.1563 8.95998 57.4052 8.62149 58.8792 8.62149C60.5366 8.62149 61.697 9.65765 61.697 11.4403C61.697 13.223 60.5371 14.2592 58.8792 14.2592C55.2745 14.2592 53.2443 15.8758 53.2443 20.1865V26.1138C53.2443 27.9787 52.1672 29.1396 50.3852 29.1396C48.6032 29.1396 47.5674 27.9787 47.5674 26.1138V11.7306C47.5674 9.86511 48.6446 8.7462 50.3852 8.7462C50.3852 8.7462 51.5812 8.70367 52.4481 9.43065Z" fill="#2BBA7C"/>
<path d="M79.043 26.031C77.7998 28.3522 75.3968 29.5131 72.1235 29.5131C67.1929 29.5131 64.2924 26.4868 64.2924 21.306V5.18137C64.2924 3.31593 65.3695 2.15564 67.1102 2.15564C68.8508 2.15564 69.9693 3.31651 69.9693 5.18137V7.7623C69.9693 8.51169 70.5765 9.11913 71.3256 9.11913H75.7702C77.4689 9.11913 78.546 10.0725 78.546 11.6891C78.546 13.3057 77.4689 14.3005 75.7702 14.3005H71.3256C70.5765 14.3005 69.9693 14.908 69.9693 15.6574V21.5129C69.9693 23.295 70.881 24.3317 72.4142 24.3317C73.3672 24.3317 73.9888 23.9173 74.6931 23.0467C75.232 22.3421 75.9776 22.0105 76.8066 22.0105C78.2984 22.0105 79.3756 23.0881 79.3756 24.6633C79.3756 25.161 79.2515 25.6167 79.0441 26.031H79.043Z" fill="#2BBA7C"/>
<path d="M127.449 27.2333C127.449 27.3046 127.467 30.4016 127.465 30.4717C127.373 33.1291 125.53 34.8606 122.704 34.8606C120.757 34.8606 119.513 34.4422 118.063 33.1992C117.649 32.8676 117.193 32.5808 116.53 32.5808C114.873 32.5808 113.837 33.617 113.837 35.2336C113.837 35.8968 114.045 36.4772 114.417 36.9329C115.951 38.9225 119.017 40 122.829 40C129.1 40 132.962 36.4031 133.14 30.4447C133.144 30.301 133.126 27.1299 133.126 26.9839V11.6058C133.126 9.74041 132.049 8.62149 130.308 8.62149C129.738 8.62149 129.24 8.73585 128.827 8.95251C127.948 9.41341 127.45 10.3369 127.45 11.6058V17.9481C127.45 21.2227 125.792 23.1709 122.975 23.1709C120.323 23.1709 118.914 21.5129 118.914 18.4872V11.6064C118.914 9.74098 117.837 8.62206 116.055 8.62206C114.273 8.62206 113.237 9.74098 113.237 11.6064V19.1503C113.237 25.1196 116.137 28.3523 121.483 28.3523C123.535 28.3523 125.217 27.7965 126.487 26.7696C126.873 26.4569 127.449 26.7357 127.449 27.2328L127.449 27.2333Z" fill="#2BBA7C"/>
<path d="M24.5312 38.3789C24.5312 38.7467 24.4417 39.0625 24.2627 39.3262C24.0837 39.5866 23.8184 39.7852 23.4668 39.9219C23.1185 40.0553 22.6937 40.1221 22.1924 40.1221C21.7139 40.1221 21.3037 40.0488 20.9619 39.9023C20.6201 39.7559 20.3678 39.5736 20.2051 39.3555C20.0423 39.1341 19.9609 38.9128 19.9609 38.6914C19.9609 38.5449 20.013 38.4196 20.1172 38.3154C20.2214 38.2113 20.3532 38.1592 20.5127 38.1592C20.6527 38.1592 20.7601 38.1934 20.835 38.2617C20.9098 38.3301 20.9814 38.4261 21.0498 38.5498C21.1865 38.7874 21.3493 38.9648 21.5381 39.082C21.7301 39.1992 21.9906 39.2578 22.3193 39.2578C22.5863 39.2578 22.8044 39.1992 22.9736 39.082C23.1462 38.9616 23.2324 38.8249 23.2324 38.6719C23.2324 38.4375 23.1429 38.2666 22.9639 38.1592C22.7881 38.0518 22.4967 37.9492 22.0898 37.8516C21.6309 37.7376 21.2565 37.6188 20.9668 37.4951C20.6803 37.3682 20.4508 37.2021 20.2783 36.9971C20.1058 36.792 20.0195 36.5397 20.0195 36.2402C20.0195 35.9733 20.0993 35.721 20.2588 35.4834C20.4183 35.2458 20.6527 35.057 20.9619 34.917C21.2744 34.7738 21.6504 34.7021 22.0898 34.7021C22.4349 34.7021 22.7441 34.738 23.0176 34.8096C23.2943 34.8812 23.5238 34.9772 23.7061 35.0977C23.8916 35.2181 24.0316 35.3516 24.126 35.498C24.2236 35.6445 24.2725 35.7878 24.2725 35.9277C24.2725 36.0807 24.2204 36.2061 24.1162 36.3037C24.0153 36.4014 23.8704 36.4502 23.6816 36.4502C23.5449 36.4502 23.4277 36.4111 23.3301 36.333C23.2357 36.2549 23.1266 36.1377 23.0029 35.9814C22.902 35.8512 22.7832 35.7471 22.6465 35.6689C22.5098 35.5908 22.3242 35.5518 22.0898 35.5518C21.849 35.5518 21.6488 35.6038 21.4893 35.708C21.3298 35.8089 21.25 35.9359 21.25 36.0889C21.25 36.2288 21.3086 36.3444 21.4258 36.4355C21.543 36.5234 21.7008 36.5967 21.8994 36.6553C22.098 36.7139 22.3714 36.7855 22.7197 36.8701C23.1331 36.971 23.4701 37.0915 23.7305 37.2314C23.9941 37.3714 24.1927 37.5374 24.3262 37.7295C24.4629 37.9183 24.5312 38.1348 24.5312 38.3789Z" fill="#AFFBAB"/>
<path d="M18.8574 35.459V39.3115C18.8574 39.5785 18.7939 39.7803 18.667 39.917C18.54 40.0537 18.3789 40.1221 18.1836 40.1221C17.9883 40.1221 17.8288 40.0521 17.7051 39.9121C17.5846 39.7721 17.5244 39.5719 17.5244 39.3115V35.498C17.5244 35.2344 17.5846 35.0358 17.7051 34.9023C17.8288 34.7689 17.9883 34.7021 18.1836 34.7021C18.3789 34.7021 18.54 34.7689 18.667 34.9023C18.7939 35.0358 18.8574 35.2214 18.8574 35.459ZM18.1982 34.082C18.0127 34.082 17.8532 34.0251 17.7197 33.9111C17.5895 33.7972 17.5244 33.6361 17.5244 33.4277C17.5244 33.2389 17.5911 33.0843 17.7246 32.9639C17.8613 32.8402 18.0192 32.7783 18.1982 32.7783C18.3708 32.7783 18.5238 32.8337 18.6572 32.9443C18.7907 33.055 18.8574 33.2161 18.8574 33.4277C18.8574 33.6328 18.7923 33.7939 18.6621 33.9111C18.5319 34.0251 18.3773 34.082 18.1982 34.082Z" fill="#AFFBAB"/>
<path d="M13.96 34.8193H14.2773V34.4189C14.2773 34.0023 14.3294 33.6719 14.4336 33.4277C14.541 33.1803 14.7201 33.0013 14.9707 32.8906C15.2246 32.7767 15.5713 32.7197 16.0107 32.7197C16.7887 32.7197 17.1777 32.9102 17.1777 33.291C17.1777 33.4147 17.137 33.5205 17.0557 33.6084C16.9743 33.6963 16.8783 33.7402 16.7676 33.7402C16.7155 33.7402 16.626 33.7305 16.499 33.7109C16.3721 33.6914 16.2646 33.6816 16.1768 33.6816C15.9359 33.6816 15.7812 33.7533 15.7129 33.8965C15.6445 34.0365 15.6104 34.2383 15.6104 34.502V34.8193H15.9375C16.4453 34.8193 16.6992 34.9723 16.6992 35.2783C16.6992 35.4964 16.6309 35.6348 16.4941 35.6934C16.3607 35.752 16.1751 35.7812 15.9375 35.7812H15.6104V39.3115C15.6104 39.5752 15.5469 39.777 15.4199 39.917C15.2962 40.0537 15.1351 40.1221 14.9365 40.1221C14.7477 40.1221 14.5898 40.0537 14.4629 39.917C14.3392 39.777 14.2773 39.5752 14.2773 39.3115V35.7812H13.9111C13.7126 35.7812 13.5596 35.7373 13.4521 35.6494C13.3447 35.5583 13.291 35.4411 13.291 35.2979C13.291 34.9788 13.514 34.8193 13.96 34.8193Z" fill="#AFFBAB"/>
<path d="M11.8408 37.7393H9.2334C9.23665 38.042 9.29688 38.3089 9.41406 38.54C9.53451 38.7712 9.69238 38.9453 9.8877 39.0625C10.0863 39.1797 10.3044 39.2383 10.542 39.2383C10.7015 39.2383 10.8464 39.2204 10.9766 39.1846C11.11 39.1455 11.2386 39.0869 11.3623 39.0088C11.486 38.9274 11.5999 38.8411 11.7041 38.75C11.8083 38.6589 11.9434 38.5352 12.1094 38.3789C12.1777 38.3203 12.2754 38.291 12.4023 38.291C12.5391 38.291 12.6497 38.3285 12.7344 38.4033C12.819 38.4782 12.8613 38.584 12.8613 38.7207C12.8613 38.8411 12.8141 38.9827 12.7197 39.1455C12.6253 39.305 12.4821 39.4596 12.29 39.6094C12.1012 39.7559 11.862 39.8779 11.5723 39.9756C11.2858 40.0732 10.9554 40.1221 10.5811 40.1221C9.72493 40.1221 9.05924 39.8779 8.58398 39.3896C8.10872 38.9014 7.87109 38.2389 7.87109 37.4023C7.87109 37.0085 7.92969 36.6439 8.04688 36.3086C8.16406 35.9701 8.33496 35.6803 8.55957 35.4395C8.78418 35.1986 9.06087 35.0146 9.38965 34.8877C9.71842 34.7575 10.083 34.6924 10.4834 34.6924C11.0042 34.6924 11.4502 34.8031 11.8213 35.0244C12.1956 35.2425 12.4756 35.5257 12.6611 35.874C12.8467 36.2223 12.9395 36.5771 12.9395 36.9385C12.9395 37.2738 12.8434 37.4919 12.6514 37.5928C12.4593 37.6904 12.1891 37.7393 11.8408 37.7393ZM9.2334 36.9824H11.6504C11.6178 36.5267 11.4941 36.1865 11.2793 35.9619C11.0677 35.734 10.7878 35.6201 10.4395 35.6201C10.1074 35.6201 9.83398 35.7357 9.61914 35.9668C9.40755 36.1947 9.27897 36.5332 9.2334 36.9824ZM10.6006 32.7881H11.2598C11.4258 32.7881 11.5088 32.8125 11.5088 32.8613C11.5088 32.8874 11.4176 32.9932 11.2354 33.1787C11.0531 33.3643 10.8691 33.5417 10.6836 33.7109C10.498 33.8802 10.3695 33.9827 10.2979 34.0186C10.1123 34.113 9.91374 34.1602 9.70215 34.1602C9.56217 34.1602 9.49219 34.1195 9.49219 34.0381C9.49219 33.9827 9.53451 33.8867 9.61914 33.75L9.83887 33.3398C9.96582 33.1022 10.0765 32.9508 10.1709 32.8857C10.2653 32.8206 10.4085 32.7881 10.6006 32.7881Z" fill="#AFFBAB"/>
<path d="M1.70898 32.8418H3.59863C4.09017 32.8418 4.51172 32.8874 4.86328 32.9785C5.21484 33.0697 5.53385 33.2406 5.82031 33.4912C6.56576 34.1292 6.93848 35.0993 6.93848 36.4014C6.93848 36.8311 6.90104 37.2233 6.82617 37.5781C6.7513 37.9329 6.63574 38.2536 6.47949 38.54C6.32324 38.8232 6.12305 39.0771 5.87891 39.3018C5.68685 39.4743 5.47689 39.6126 5.24902 39.7168C5.02116 39.821 4.77539 39.8942 4.51172 39.9365C4.2513 39.9788 3.95671 40 3.62793 40H1.73828C1.47461 40 1.27604 39.9609 1.14258 39.8828C1.00911 39.8014 0.921224 39.6891 0.878906 39.5459C0.839844 39.3994 0.820312 39.2106 0.820312 38.9795V33.7305C0.820312 33.418 0.890299 33.1917 1.03027 33.0518C1.17025 32.9118 1.39648 32.8418 1.70898 32.8418ZM2.27051 33.9893V38.8477H3.36914C3.61003 38.8477 3.79883 38.8411 3.93555 38.8281C4.07227 38.8151 4.21387 38.7826 4.36035 38.7305C4.50684 38.6784 4.63379 38.6051 4.74121 38.5107C5.22624 38.1006 5.46875 37.3942 5.46875 36.3916C5.46875 35.6852 5.36133 35.1562 5.14648 34.8047C4.9349 34.4531 4.67285 34.2301 4.36035 34.1357C4.04785 34.0381 3.67025 33.9893 3.22754 33.9893H2.27051Z" fill="#AFFBAB"/>
<path fill-rule="evenodd" clip-rule="evenodd" d="M58 38C58 38.5523 57.5523 39 57 39H29C28.4477 39 28 38.5523 28 38C28 37.4477 28.4477 37 29 37H57C57.5523 37 58 37.4477 58 38Z" fill="#2BBA7C"/>
<path fill-rule="evenodd" clip-rule="evenodd" d="M75 38C75 38.5523 74.5523 39 74 39H64C63.4477 39 63 38.5523 63 38C63 37.4477 63.4477 37 64 37H74C74.5523 37 75 37.4477 75 38Z" fill="#AAFFA5"/>
<path fill-rule="evenodd" clip-rule="evenodd" d="M86 38C86 38.5523 85.5523 39 85 39H81C80.4477 39 80 38.5523 80 38C80 37.4477 80.4477 37 81 37H85C85.5523 37 86 37.4477 86 38Z" fill="#BFEABB"/>
</svg>
