<?xml version="1.0" encoding="UTF-8"?>
<svg id="Calque_2" data-name="Calque 2" xmlns="http://www.w3.org/2000/svg" viewBox="0 0 2084.39 811.47">
  <defs>
    <style>
      .cls-1 {
        fill: #2bba7c;
      }

      .cls-1, .cls-2 {
        stroke-width: 0px;
      }

      .cls-2 {
        fill: #1c3326;
      }
    </style>
  </defs>
  <g id="Calque_1-2" data-name="Calque 1">
    <g>
      <rect class="cls-2" y="0" width="2084.39" height="811.47" rx="123.55" ry="123.55"/>
      <g>
        <path class="cls-1" d="m726.45,281.62s-14.93-.16-25.55,7.6c-10.62,7.7-24.48,8.61-35.96,2.25-14.87-8.27-32.75-12.76-53.16-13.03-.67,0-1.31-.03-1.98-.03-74.37,0-123.6,52.97-123.6,134.83s49.04,134.62,123.14,134.83h.45c21.11,0,39.57-4.47,54.87-12.89,11.74-6.47,25.98-5.51,36.79,2.43,10.59,7.76,24.99,7.25,24.99,7.25,23.01,0,36.92-14.98,36.92-39.06v-185.66c0-24.08-13.91-38.52-36.92-38.52Zm-101.66,199.58c-37.45,0-63.67-27.82-63.67-67.95s26.22-67.95,63.67-67.95,65.28,28.36,65.28,67.95-27.29,67.95-65.28,67.95Z"/>
        <path class="cls-1" d="m321.65,278.41c-82.4,0-139.11,54.55-139.11,134.81s56.72,134.83,141.79,134.83c44.94,0,80.79-14.98,104.34-42.27,4.52-6.05,7.17-12.57,7.46-20.04.56-14.63-8.59-27.5-22.66-31.57-12.44-3.58-24.91.21-33.49,8.8-16.05,14.98-32.64,21.94-55.65,21.94-27.64,0-48.5-11.8-59.95-31.94-4.36-7.7,1.34-17.28,10.22-17.28h140.69c22.47,0,37.45-14.98,37.45-37.99v-4.28c0-61.53-57.25-115.01-131.09-115.01Zm37.86,106.98h-86.76c-8.03,0-13.19-8.83-8.91-15.62,11.02-17.6,32.93-28.25,57.81-28.25,19.74,0,37.24,7.2,48.72,19.53,8.61,9.23,1.77,24.35-10.86,24.35Z"/>
        <path class="cls-1" d="m1314.28,281.56c0,11.7,12.63,19.05,22.78,13.22,14.87-8.54,33.19-13.16,54.8-13.16,70.09,0,107.55,41.73,107.55,118.78v108.61c0,24.08-13.91,39.06-36.92,39.06s-36.38-14.98-36.38-39.06v-100.05c0-39.59-18.19-60.46-53.5-60.46-29.62,0-49.26,16.19-55.86,44.43-1.63,6.95-2.46,14.64-2.46,22.99v93.1c0,24.08-13.91,39.06-36.92,39.06s-36.38-14.98-36.38-39.06V206.18c0-24.08,13.91-39.06,36.38-39.06s36.92,14.98,36.92,39.06v75.38Z"/>
        <path class="cls-1" d="m1606.07,206.18v302.84c0,24.08-13.91,39.06-36.92,39.06s-36.39-14.98-36.39-39.06V206.18c0-24.08,13.91-39.06,36.39-39.06s36.92,14.98,36.92,39.06Z"/>
        <path class="cls-1" d="m859.8,288.85c9.86,8.27,24.03,9.64,34.77,2.56,13.11-8.63,29.23-13,48.27-13,21.4,0,36.38,13.38,36.38,36.39s-14.98,36.38-36.38,36.38c-46.55,0-72.77,20.87-72.77,76.51v76.51c0,24.07-13.91,39.06-36.92,39.06s-36.39-14.98-36.39-39.06v-185.66c0-24.08,13.91-38.52,36.39-38.52,0,0,15.45-.55,26.64,8.84Z"/>
        <path class="cls-1" d="m1203.21,503.13c-16.05,29.96-47.08,44.94-89.35,44.94-63.67,0-101.13-39.06-101.13-105.94v-208.13c0-24.08,13.91-39.06,36.38-39.06s36.92,14.98,36.92,39.06v33.31c0,9.67,7.84,17.52,17.52,17.52h57.39c21.94,0,35.85,12.31,35.85,33.17s-13.91,33.71-35.85,33.71h-57.39c-9.67,0-17.52,7.84-17.52,17.52v75.58c0,23.01,11.77,36.38,31.57,36.38,12.31,0,20.33-5.35,29.43-16.59,6.96-9.09,16.59-13.38,27.29-13.38,19.26,0,33.17,13.91,33.17,34.24,0,6.42-1.6,12.31-4.28,17.66Z"/>
        <path class="cls-1" d="m1828.56,518.61c0,35.85-24.08,59.39-61.53,59.39-25.15,0-41.2-6.42-59.92-22.47-5.35-4.28-11.24-6.96-19.8-6.96-21.4,0-34.78,13.38-34.78,34.24,0,8.56,2.68,16.05,7.49,21.94,19.8,25.68,59.39,39.59,108.61,39.59,82.93,0,133.23-48.69,133.23-128.95v-198.5c0-24.08-13.91-38.52-36.38-38.52-7.36,0-13.79,1.48-19.13,4.27-11.36,5.95-17.79,17.87-17.79,34.25v81.86c0,42.27-21.4,67.42-57.79,67.42-34.24,0-52.44-21.4-52.44-60.46v-88.82c0-24.08-13.91-38.52-36.92-38.52s-36.38,14.44-36.38,38.52v97.38c0,77.05,37.45,118.78,106.48,118.78,26.5,0,48.23-7.17,64.62-20.43,4.99-4.04,12.43-.44,12.43,5.98h0Z"/>
      </g>
    </g>
  </g>
</svg>