<?xml version="1.0" encoding="UTF-8"?>
<svg id="Calque_2" data-name="Calque 2" xmlns="http://www.w3.org/2000/svg" viewBox="0 0 3678.18 3678.18">
  <defs>
    <style>
      .cls-1 {
        fill: #2bba7c;
      }

      .cls-1, .cls-2 {
        stroke-width: 0px;
      }

      .cls-2 {
        fill: #ffefe1;
      }
    </style>
  </defs>
  <g id="Calque_1-2" data-name="Calque 1">
    <g>
      <path class="cls-2" d="m469.87,0h2648.58c308.93,0,559.74,250.81,559.74,559.74v2558.71c0,308.93-250.81,559.74-559.74,559.74H559.74C250.81,3678.18,0,3427.37,0,3118.45V469.87C0,210.54,210.54,0,469.87,0Z"/>
      <g>
        <path class="cls-1" d="m1285.75,2428.04s-24.55-.26-42.01,12.49c-17.47,12.67-40.25,14.17-59.13,3.7-24.46-13.59-53.85-20.99-87.42-21.43-1.1,0-2.16-.04-3.26-.04-122.3,0-203.25,87.11-203.25,221.73s80.64,221.38,202.5,221.73h.75c34.71,0,65.07-7.35,90.23-21.21,19.31-10.65,42.72-9.06,60.49,4,17.42,12.76,41.09,11.92,41.09,11.92,37.83,0,60.71-24.64,60.71-64.23v-305.32c0-39.59-22.88-63.35-60.71-63.35Zm-167.18,328.2c-61.59,0-104.71-45.75-104.71-111.74s43.11-111.74,104.71-111.74,107.35,46.63,107.35,111.74-44.87,111.74-107.35,111.74Z"/>
        <path class="cls-1" d="m620.06,2422.76c-135.5,0-228.77,89.7-228.77,221.69s93.27,221.73,233.17,221.73c73.91,0,132.86-24.64,171.58-69.51,7.43-9.94,11.79-20.68,12.27-32.95.92-24.06-14.12-45.23-37.26-51.91-20.46-5.9-40.96.35-55.08,14.47-26.4,24.64-53.67,36.08-91.51,36.08-45.45,0-79.76-19.4-98.59-52.53-7.17-12.67,2.2-28.42,16.81-28.42h231.36c36.96,0,61.59-24.64,61.59-62.47v-7.04c0-101.19-94.15-189.13-215.57-189.13Zm62.25,175.93h-142.67c-13.2,0-21.69-14.52-14.65-25.69,18.13-28.95,54.16-46.46,95.07-46.46,32.47,0,61.24,11.83,80.11,32.12,14.17,15.18,2.9,40.03-17.86,40.03Z"/>
        <path class="cls-1" d="m2252.4,2427.94c0,19.24,20.77,31.32,37.46,21.74,24.46-14.04,54.58-21.64,90.12-21.64,115.26,0,176.85,68.63,176.85,195.33v178.61c0,39.59-22.88,64.23-60.71,64.23s-59.83-24.64-59.83-64.23v-164.54c0-65.11-29.92-99.42-87.99-99.42-48.71,0-81,26.62-91.86,73.06-2.67,11.44-4.05,24.07-4.05,37.81v153.1c0,39.59-22.88,64.23-60.71,64.23s-59.83-24.64-59.83-64.23v-498c0-39.59,22.88-64.23,59.83-64.23s60.71,24.63,60.71,64.23v123.95Z"/>
        <path class="cls-1" d="m2732.25,2303.99v498c0,39.59-22.88,64.23-60.71,64.23s-59.83-24.64-59.83-64.23v-498c0-39.59,22.88-64.23,59.83-64.23s60.71,24.63,60.71,64.23Z"/>
        <path class="cls-1" d="m1505.03,2439.94c16.21,13.59,39.51,15.85,57.18,4.21,21.55-14.2,48.07-21.38,79.38-21.38,35.2,0,59.83,22,59.83,59.83s-24.63,59.83-59.83,59.83c-76.55,0-119.66,34.31-119.66,125.82v125.82c0,39.59-22.88,64.23-60.71,64.23s-59.83-24.64-59.83-64.23v-305.32c0-39.59,22.88-63.35,59.83-63.35,0,0,25.4-.9,43.81,14.53Z"/>
        <path class="cls-1" d="m2069.76,2792.31c-26.4,49.27-77.43,73.91-146.94,73.91-104.7,0-166.3-64.23-166.3-174.21v-342.27c0-39.59,22.88-64.23,59.83-64.23s60.71,24.64,60.71,64.23v54.78c0,15.91,12.9,28.8,28.8,28.8h94.38c36.08,0,58.95,20.24,58.95,54.55s-22.87,55.43-58.95,55.43h-94.38c-15.91,0-28.8,12.9-28.8,28.8v124.29c0,37.83,19.36,59.83,51.91,59.83,20.24,0,33.44-8.8,48.39-27.28,11.44-14.96,27.28-22,44.87-22,31.68,0,54.55,22.88,54.55,56.31,0,10.56-2.64,20.24-7.04,29.04Z"/>
        <path class="cls-1" d="m3098.11,2817.76c0,58.95-39.59,97.66-101.19,97.66-41.36,0-67.75-10.56-98.54-36.95-8.8-7.04-18.48-11.44-32.56-11.44-35.2,0-57.19,22-57.19,56.31,0,14.08,4.4,26.4,12.32,36.08,32.55,42.23,97.66,65.11,178.61,65.11,136.38,0,219.09-80.07,219.09-212.05v-326.43c0-39.59-22.88-63.35-59.83-63.35-12.1,0-22.67,2.43-31.45,7.03-18.68,9.78-29.26,29.39-29.26,56.32v134.62c0,69.51-35.2,110.86-95.03,110.86-56.31,0-86.23-35.19-86.23-99.42v-146.06c0-39.59-22.87-63.35-60.71-63.35s-59.83,23.75-59.83,63.35v160.14c0,126.7,61.59,195.33,175.1,195.33,43.58,0,79.31-11.8,106.27-33.59,8.21-6.64,20.44-.72,20.43,9.84h0Z"/>
      </g>
      <path class="cls-1" d="m2028.84,688.37c-389.29-123.44-806.43,92.85-929.87,482.15-123.44,389.29,92.85,806.43,482.15,929.87,389.29,123.44,806.43-92.85,929.87-482.14,123.44-389.29-92.85-806.44-482.14-929.87Zm386.95,457.55c33.23,81.51,50.37,169.88,48.82,260.06l-190.65-20.04c-33.67-3.52-67.8-8.54-82.86-27.43-15.06-18.86-9.79-52.18-.71-74.96,19.99-50.06,62.25-90.54,113.11-108.3,16.01-5.62,33.73-9.51,52.49-13.64,19.86-4.37,40.09-8.9,59.8-15.69Zm-411.41-380.41c22.55,7.15,44.43,15.43,65.63,24.71-61.37,57.24-118.39,119.33-169.85,185.32-3.08,3.95-6.15,7.91-9.22,11.88-18.9,24.44-36.76,47.52-57.77,65.87-24.07,21-50.03,32.66-73.12,32.81-36.87.27-69.99-25.48-108.34-55.28-35.77-27.79-76.33-59.26-126.21-70.61-40.91-9.28-79.59-3.63-117,1.85-20.12,2.95-39.12,5.73-57.32,5.95-14.9.19-30.07-1.35-45.67-4.59,167.35-193.41,440.01-280,698.86-197.92Zm-398.8,1257.72c-182.41-57.84-322.14-188.1-397.65-349.03,77-7.46,125.14-83.87,144.84-155.22,2.57-9.35,5-18.91,7.44-28.52,11.95-47.12,23.24-91.64,53.42-115.26,36.92-28.92,95.21-17.53,133.73,8.71,47.1,32,79.9,84.91,111.62,136.06,34.42,55.52,73.44,118.45,135.56,160.12,31.67,21.26,65.77,34.55,98.75,47.41,19.87,7.75,38.65,15.07,56.35,23.87,86.87,43.11,150.75,124.18,202,203.93-157.92,97.44-355.72,128.29-546.06,67.93Zm612.27-114.61c-57.08-88.37-129.46-178.75-232.22-229.75-20.93-10.4-42.29-18.73-62.95-26.78-30.22-11.78-58.77-22.91-83.05-39.21-47.64-31.95-81.76-87-111.87-135.56-34.49-55.63-73.58-118.69-134.88-160.35-60.85-41.43-158.51-60.83-229.14-5.51-51.94,40.65-67.9,103.56-81.98,159.07-2.31,9.09-4.59,18.12-7.02,26.92-12.17,44.08-39.99,95.79-78.32,96.43-6.41.1-13.27-1.18-21.25-4-38.83-124.45-41.37-261.52.94-394.94,18.59-58.63,44.68-112.84,76.85-161.94.88.29,1.77.63,2.65.91,33.07,10.49,64.94,15.41,96.6,15,23.56-.29,46.16-3.6,68-6.79,31.46-4.6,61.17-8.95,87.38-3,32.37,7.35,62.52,30.77,94.45,55.58,43.89,34.11,93.65,72.77,158.57,72.3,54.4-.38,98.42-28.9,125.78-52.78,26.96-23.56,48.1-50.89,68.55-77.32,2.99-3.87,5.98-7.73,9-11.6,54.76-70.22,116.1-135.83,182.52-195.44,99.25,60.05,179.03,144.37,233.89,242.47-13.05,3.89-27.21,7.01-41.77,10.21-20.29,4.46-41.27,9.08-61.84,16.3-72.6,25.35-132.99,83.17-161.54,154.7-23.24,58.3-18.52,116.41,12.62,155.43,18.83,23.6,44.05,36.99,69.24,44.98,24.91,7.9,49.8,10.51,68.43,12.46l192.71,20.25c-5.07,35.75-13.11,71.55-24.38,107.09-40.82,128.73-117.71,236.2-215.99,314.85Z"/>
    </g>
  </g>
</svg>