<?xml version="1.0" encoding="UTF-8"?>
<svg id="Calque_2" data-name="Calque 2" xmlns="http://www.w3.org/2000/svg" viewBox="0 0 6615.69 1940.11">
  <defs>
    <style>
      .cls-1 {
        fill: #2bba7c;
      }

      .cls-1, .cls-2, .cls-3 {
        stroke-width: 0px;
      }

      .cls-2 {
        fill: #a9ffa4;
      }

      .cls-3 {
        fill: #1c3326;
      }
    </style>
  </defs>
  <g id="Calque_1-2" data-name="Calque 1">
    <g>
      <rect class="cls-3" x="0" y="0" width="6615.69" height="1940.11" rx="340.35" ry="340.35"/>
      <g>
        <g>
          <path class="cls-1" d="m3375.25,591.1s-35.69-.38-61.08,18.17c-25.39,18.42-58.53,20.6-85.97,5.37-35.56-19.76-78.29-30.51-127.09-31.15-1.6,0-3.13-.06-4.73-.06-177.82,0-295.51,126.65-295.51,322.37s117.24,321.86,294.42,322.37h1.09c50.47,0,94.6-10.68,131.19-30.83,28.08-15.48,62.11-13.18,87.95,5.82,25.33,18.55,59.74,17.33,59.74,17.33,55.01,0,88.27-35.82,88.27-93.39v-443.9c0-57.57-33.26-92.11-88.27-92.11Zm-243.06,477.16c-89.55,0-152.23-66.52-152.23-162.47s62.68-162.47,152.23-162.47,156.07,67.8,156.07,162.47-65.24,162.47-156.07,162.47Z"/>
          <path class="cls-1" d="m2407.42,583.43c-197.01,0-332.61,130.42-332.61,322.31s135.6,322.37,339,322.37c107.46,0,193.17-35.82,249.45-101.06,10.81-14.46,17.14-30.06,17.85-47.91,1.34-34.99-20.53-65.75-54.18-75.48-29.74-8.57-59.55.51-80.08,21.04-38.38,35.82-78.03,52.45-133.04,52.45-66.07,0-115.96-28.21-143.34-76.37-10.43-18.42,3.2-41.32,24.43-41.32h336.38c53.73,0,89.55-35.82,89.55-90.83v-10.23c0-147.11-136.88-274.98-313.42-274.98Zm90.51,255.79h-207.43c-19.19,0-31.53-21.11-21.3-37.35,26.35-42.09,78.74-67.54,138.22-67.54,47.2,0,89.04,17.21,116.48,46.69,20.6,22.07,4.22,58.21-25.97,58.21Z"/>
          <path class="cls-1" d="m4780.67,590.95c0,27.97,30.2,45.54,54.46,31.61,35.56-20.41,79.35-31.46,131.03-31.46,167.58,0,257.13,99.78,257.13,283.99v259.68c0,57.57-33.26,93.39-88.27,93.39s-86.99-35.82-86.99-93.39v-239.22c0-94.66-43.49-144.55-127.92-144.55-70.82,0-117.76,38.71-133.55,106.21-3.89,16.63-5.89,35-5.89,54.97v222.59c0,57.57-33.26,93.39-88.27,93.39s-86.99-35.82-86.99-93.39V410.74c0-57.57,33.26-93.38,86.99-93.38s88.27,35.82,88.27,93.38v180.22Z"/>
          <path class="cls-1" d="m5478.31,410.74v724.05c0,57.57-33.26,93.39-88.27,93.39s-86.99-35.82-86.99-93.39V410.74c0-57.57,33.26-93.38,86.99-93.38s88.27,35.82,88.27,93.38Z"/>
          <path class="cls-1" d="m3694.06,608.39c23.57,19.76,57.45,23.04,83.14,6.12,31.34-20.64,69.89-31.09,115.41-31.09,51.17,0,86.99,31.98,86.99,86.99s-35.82,86.99-86.99,86.99c-111.29,0-173.97,49.89-173.97,182.93v182.93c0,57.56-33.26,93.38-88.27,93.38s-86.99-35.82-86.99-93.38v-443.9c0-57.57,33.26-92.1,86.99-92.1,0,0,36.93-1.31,63.69,21.13Z"/>
          <path class="cls-1" d="m4515.12,1120.71c-38.38,71.63-112.57,107.46-213.63,107.46-152.23,0-241.78-93.39-241.78-253.29v-497.62c0-57.57,33.26-93.39,86.99-93.39s88.27,35.82,88.27,93.39v79.65c0,23.13,18.75,41.88,41.88,41.88h137.22c52.45,0,85.71,29.42,85.71,79.31s-33.26,80.59-85.71,80.59h-137.22c-23.13,0-41.88,18.75-41.88,41.88v180.71c0,55.01,28.15,86.99,75.47,86.99,29.43,0,48.62-12.79,70.36-39.66,16.63-21.74,39.66-31.98,65.24-31.98,46.05,0,79.31,33.26,79.31,81.87,0,15.35-3.84,29.43-10.23,42.22Z"/>
          <path class="cls-1" d="m6009.57,1157.8c0,2.2.59,97.78.51,99.94-2.86,82.02-59.75,135.45-147,135.45-60.13,0-98.5-12.9-143.27-51.28-12.79-10.24-26.87-19.08-47.33-19.08-51.17,0-83.15,31.98-83.15,81.87,0,20.47,6.4,38.38,17.91,52.45,47.33,61.4,141.99,94.66,259.68,94.66,193.62,0,312.84-111,318.33-294.89.13-4.43-.43-102.29-.43-106.8v-474.6c0-57.57-33.26-92.1-86.99-92.1-17.59,0-32.96,3.53-45.73,10.22-27.15,14.23-42.54,42.73-42.54,81.88v195.72c0,101.06-51.17,161.18-138.16,161.18-81.87,0-125.37-51.16-125.37-144.55v-212.35c0-57.57-33.26-92.1-88.27-92.1s-86.99,34.54-86.99,92.1v232.82c0,184.21,89.55,283.99,254.57,283.99,63.37,0,115.3-17.15,154.5-48.84,11.94-9.65,29.72-1.05,29.71,14.3h0Z"/>
        </g>
        <g>
          <path class="cls-2" d="m2258.36,1492.52c0,6.01-1.8,12.44-5.39,19.28-3.6,6.84-9.08,13.35-16.45,19.54-7.37,6.19-16.65,11.17-27.85,14.94-11.2,3.77-23.82,5.66-37.85,5.66-29.83,0-53.12-8.69-69.85-26.09-16.74-17.39-25.11-40.7-25.11-69.94,0-19.81,3.83-37.32,11.5-52.52,7.66-15.21,18.75-26.97,33.25-35.28s31.83-12.47,51.99-12.47c12.5,0,23.96,1.83,34.4,5.48,10.43,3.66,19.28,8.37,26.53,14.15,7.25,5.78,12.79,11.94,16.62,18.48,3.83,6.54,5.75,12.64,5.75,18.3s-2.15,10.67-6.45,14.68c-4.31,4.01-9.52,6.01-15.65,6.01-4.01,0-7.34-1.03-9.99-3.09-2.65-2.06-5.63-5.39-8.93-9.99-5.9-8.96-12.06-15.68-18.48-20.16-6.43-4.48-14.59-6.72-24.49-6.72-14.27,0-25.76,5.57-34.49,16.71-8.73,11.14-13.09,26.38-13.09,45.72,0,9.08,1.12,17.42,3.36,25.02,2.24,7.6,5.48,14.09,9.73,19.45,4.24,5.37,9.37,9.43,15.39,12.2,6.01,2.77,12.61,4.16,19.81,4.16,9.67,0,17.95-2.24,24.85-6.72,6.9-4.48,13-11.32,18.3-20.51,2.95-5.42,6.13-9.67,9.55-12.73,3.42-3.06,7.6-4.6,12.56-4.6,5.89,0,10.79,2.24,14.68,6.72,3.89,4.48,5.84,9.26,5.84,14.32Z"/>
          <path class="cls-2" d="m2442.03,1525.06c-11.67,9.08-22.96,15.89-33.87,20.43-10.91,4.54-23.14,6.81-36.7,6.81-12.38,0-23.25-2.45-32.63-7.34s-16.6-11.52-21.66-19.9c-5.07-8.37-7.6-17.45-7.6-27.23,0-13.2,4.18-24.46,12.56-33.78,8.37-9.31,19.87-15.56,34.49-18.75,3.06-.71,10.67-2.3,22.81-4.77,12.14-2.48,22.55-4.74,31.21-6.81,8.67-2.06,18.07-4.57,28.21-7.52-.59-12.73-3.16-22.08-7.69-28.03-4.54-5.95-13.94-8.93-28.21-8.93-12.26,0-21.49,1.71-27.68,5.13-6.19,3.42-11.5,8.55-15.92,15.39-4.42,6.84-7.55,11.35-9.37,13.53-1.83,2.18-5.75,3.27-11.76,3.27-5.42,0-10.11-1.74-14.06-5.22-3.95-3.48-5.92-7.93-5.92-13.35,0-8.49,3.01-16.74,9.02-24.76,6.01-8.02,15.39-14.62,28.12-19.81,12.73-5.19,28.59-7.78,47.57-7.78,21.22,0,37.9,2.51,50.05,7.52,12.14,5.01,20.72,12.94,25.73,23.79,5.01,10.85,7.52,25.23,7.52,43.15,0,11.32-.03,20.93-.09,28.83-.06,7.9-.15,16.68-.27,26.35,0,9.08,1.5,18.54,4.51,28.38,3.01,9.85,4.51,16.18,4.51,19.01,0,4.95-2.33,9.46-6.99,13.53-4.66,4.07-9.93,6.1-15.83,6.1-4.95,0-9.85-2.33-14.68-6.99-4.84-4.66-9.96-11.41-15.39-20.25Zm-3.18-69.86c-7.07,2.59-17.36,5.34-30.86,8.22-13.5,2.89-22.84,5.01-28.03,6.37-5.19,1.36-10.14,4.01-14.86,7.96-4.72,3.95-7.07,9.46-7.07,16.54s2.77,13.53,8.31,18.66c5.54,5.13,12.79,7.69,21.75,7.69,9.55,0,18.36-2.09,26.44-6.28,8.07-4.18,14-9.58,17.77-16.18,4.36-7.31,6.54-19.33,6.54-36.08v-6.9Z"/>
          <path class="cls-2" d="m2602.72,1482.61v40.32c0,9.79-2.3,17.13-6.9,22.02-4.6,4.89-10.43,7.34-17.51,7.34s-12.68-2.48-17.15-7.43c-4.48-4.95-6.72-12.26-6.72-21.93v-134.41c0-21.69,7.84-32.54,23.52-32.54,8.02,0,13.79,2.54,17.33,7.6,3.54,5.07,5.48,12.56,5.84,22.46,5.78-9.9,11.7-17.39,17.77-22.46,6.07-5.07,14.17-7.6,24.32-7.6s19.98,2.54,29.53,7.6c9.55,5.07,14.32,11.79,14.32,20.16,0,5.9-2.03,10.76-6.1,14.59-4.07,3.83-8.46,5.75-13.17,5.75-1.77,0-6.04-1.09-12.82-3.27-6.78-2.18-12.76-3.27-17.95-3.27-7.07,0-12.85,1.86-17.33,5.57-4.48,3.71-7.96,9.23-10.43,16.54-2.48,7.31-4.19,16-5.13,26.09-.94,10.08-1.41,22.37-1.41,36.87Z"/>
          <path class="cls-2" d="m2858.72,1465.99h-94.44c.12,10.96,2.33,20.63,6.63,29,4.3,8.37,10.02,14.68,17.15,18.92,7.13,4.24,15,6.37,23.61,6.37,5.77,0,11.05-.68,15.83-2.03,4.78-1.35,9.4-3.48,13.88-6.37,4.48-2.89,8.61-5.98,12.38-9.28,3.77-3.3,8.67-7.78,14.68-13.44,2.48-2.12,6.01-3.18,10.61-3.18,4.95,0,8.96,1.36,12.03,4.07,3.06,2.71,4.6,6.54,4.6,11.5,0,4.36-1.71,9.46-5.13,15.3-3.42,5.84-8.58,11.44-15.47,16.8-6.9,5.37-15.56,9.82-26,13.35-10.43,3.54-22.43,5.31-35.99,5.31-31.01,0-55.12-8.84-72.33-26.53-17.21-17.68-25.82-41.68-25.82-71.98,0-14.26,2.12-27.5,6.37-39.7s10.43-22.66,18.57-31.39c8.13-8.72,18.15-15.41,30.06-20.07,11.91-4.66,25.11-6.99,39.61-6.99,18.86,0,35.04,3.98,48.55,11.94,13.5,7.96,23.61,18.25,30.33,30.86,6.72,12.62,10.08,25.47,10.08,38.55,0,12.14-3.48,20.01-10.43,23.61-6.96,3.6-16.74,5.39-29.36,5.39Zm-94.44-27.41h87.54c-1.18-16.51-5.63-28.85-13.35-37.05-7.72-8.19-17.89-12.29-30.51-12.29s-21.9,4.16-29.62,12.47c-7.72,8.31-12.41,20.6-14.06,36.87Z"/>
          <path class="cls-2" d="m3064.96,1360.23h11.5v-14.5c0-15.09,1.92-27.09,5.75-35.99,3.83-8.9,10.32-15.39,19.45-19.45,9.14-4.07,21.66-6.1,37.58-6.1,28.18,0,42.27,6.9,42.27,20.69,0,4.48-1.48,8.31-4.42,11.5-2.95,3.18-6.43,4.78-10.43,4.78-1.89,0-5.13-.35-9.73-1.06-4.6-.71-8.49-1.06-11.67-1.06-8.73,0-14.33,2.56-16.8,7.69-2.48,5.13-3.71,12.47-3.71,22.02v11.5h11.85c18.39,0,27.59,5.54,27.59,16.62,0,7.9-2.45,12.91-7.34,15.03-4.89,2.12-11.64,3.18-20.25,3.18h-11.85v127.86c0,9.55-2.27,16.83-6.81,21.84-4.54,5.01-10.41,7.52-17.6,7.52s-12.53-2.51-17.07-7.52c-4.54-5.01-6.81-12.29-6.81-21.84v-127.86h-13.26c-7.19,0-12.73-1.62-16.62-4.86-3.89-3.24-5.84-7.46-5.84-12.64,0-11.55,8.07-17.33,24.23-17.33Z"/>
          <path class="cls-2" d="m3384.99,1454.14c0,14.39-2.24,27.65-6.72,39.79-4.48,12.14-10.96,22.58-19.45,31.3-8.49,8.73-18.63,15.42-30.42,20.07-11.79,4.66-25.05,6.99-39.79,6.99s-27.77-2.36-39.44-7.07-21.78-11.46-30.33-20.25c-8.55-8.78-15.03-19.16-19.45-31.13-4.42-11.96-6.63-25.2-6.63-39.7s2.24-28,6.72-40.14c4.48-12.14,10.9-22.52,19.28-31.13,8.37-8.6,18.51-15.24,30.42-19.9,11.91-4.66,25.05-6.99,39.44-6.99s27.88,2.36,39.79,7.07c11.91,4.72,22.11,11.44,30.59,20.16,8.49,8.73,14.94,19.1,19.37,31.13,4.42,12.03,6.63,25.29,6.63,39.79Zm-48.46,0c0-19.69-4.33-35.02-13-45.98-8.67-10.96-20.31-16.45-34.93-16.45-9.43,0-17.75,2.45-24.94,7.34-7.19,4.89-12.73,12.11-16.62,21.66s-5.84,20.69-5.84,33.42,1.92,23.64,5.75,33.07c3.83,9.43,9.31,16.65,16.45,21.66,7.13,5.01,15.53,7.52,25.2,7.52,14.62,0,26.26-5.51,34.93-16.54,8.67-11.02,13-26.26,13-45.72Z"/>
          <path class="cls-2" d="m3490.49,1482.61v40.32c0,9.79-2.3,17.13-6.9,22.02-4.6,4.89-10.43,7.34-17.51,7.34s-12.68-2.48-17.15-7.43c-4.48-4.95-6.72-12.26-6.72-21.93v-134.41c0-21.69,7.84-32.54,23.52-32.54,8.02,0,13.79,2.54,17.33,7.6,3.54,5.07,5.48,12.56,5.84,22.46,5.78-9.9,11.7-17.39,17.77-22.46,6.07-5.07,14.17-7.6,24.32-7.6s19.98,2.54,29.53,7.6c9.55,5.07,14.32,11.79,14.32,20.16,0,5.9-2.03,10.76-6.1,14.59-4.07,3.83-8.46,5.75-13.17,5.75-1.77,0-6.04-1.09-12.82-3.27-6.78-2.18-12.76-3.27-17.95-3.27-7.07,0-12.85,1.86-17.33,5.57-4.48,3.71-7.96,9.23-10.43,16.54-2.48,7.31-4.19,16-5.13,26.09-.94,10.08-1.41,22.37-1.41,36.87Z"/>
          <path class="cls-2" d="m3733.52,1360.23h5.3v-29c0-7.78.21-13.88.62-18.3.41-4.42,1.56-8.22,3.45-11.41,1.88-3.3,4.6-5.98,8.13-8.05,3.54-2.06,7.49-3.09,11.85-3.09,6.13,0,11.67,2.3,16.62,6.9,3.3,3.07,5.39,6.81,6.28,11.23.88,4.42,1.33,10.7,1.33,18.83v32.89h17.68c6.84,0,12.05,1.62,15.65,4.86,3.59,3.24,5.39,7.4,5.39,12.47,0,6.49-2.56,11.03-7.69,13.62-5.13,2.59-12.47,3.89-22.02,3.89h-9.02v88.78c0,7.55.27,13.35.8,17.42s1.95,7.37,4.24,9.9c2.3,2.54,6.04,3.8,11.23,3.8,2.83,0,6.66-.5,11.5-1.5,4.83-1,8.6-1.5,11.32-1.5,3.89,0,7.4,1.56,10.52,4.69,3.12,3.13,4.69,6.99,4.69,11.58,0,7.78-4.25,13.74-12.73,17.86-8.49,4.13-20.69,6.19-36.61,6.19-15.09,0-26.53-2.54-34.31-7.6-7.78-5.07-12.88-12.08-15.3-21.05-2.42-8.96-3.63-20.93-3.63-35.9v-92.67h-6.37c-6.96,0-12.26-1.65-15.92-4.95-3.66-3.3-5.48-7.49-5.48-12.56s1.92-9.22,5.75-12.47c3.83-3.24,9.4-4.86,16.71-4.86Z"/>
          <path class="cls-2" d="m3925.86,1313.55v71.62c6.13-7.07,12.11-12.67,17.95-16.8,5.84-4.13,12.29-7.22,19.37-9.28,7.07-2.06,14.68-3.09,22.81-3.09,12.26,0,23.14,2.59,32.63,7.78,9.49,5.19,16.95,12.73,22.37,22.64,3.42,5.78,5.72,12.23,6.9,19.36,1.18,7.13,1.77,15.36,1.77,24.67v92.49c0,9.67-2.21,16.98-6.63,21.93-4.42,4.95-10.29,7.43-17.6,7.43-15.92,0-23.88-9.78-23.88-29.36v-81.53c0-15.44-2.3-27.32-6.9-35.64-4.6-8.31-13.33-12.47-26.17-12.47-8.61,0-16.36,2.45-23.26,7.34-6.9,4.89-12.06,11.58-15.47,20.07-2.59,7.19-3.89,19.98-3.89,38.38v63.84c0,9.55-2.15,16.83-6.46,21.84-4.3,5.01-10.29,7.52-17.95,7.52-15.92,0-23.87-9.78-23.87-29.36v-209.39c0-9.78,2.09-17.12,6.28-22.02,4.18-4.89,10.05-7.34,17.6-7.34s13.65,2.48,17.95,7.43c4.3,4.95,6.46,12.26,6.46,21.93Z"/>
          <path class="cls-2" d="m4251.72,1465.99h-94.44c.12,10.96,2.33,20.63,6.63,29,4.3,8.37,10.02,14.68,17.15,18.92,7.13,4.24,15,6.37,23.61,6.37,5.77,0,11.05-.68,15.83-2.03,4.78-1.35,9.4-3.48,13.88-6.37,4.48-2.89,8.61-5.98,12.38-9.28,3.77-3.3,8.67-7.78,14.68-13.44,2.48-2.12,6.01-3.18,10.61-3.18,4.95,0,8.96,1.36,12.03,4.07,3.06,2.71,4.6,6.54,4.6,11.5,0,4.36-1.71,9.46-5.13,15.3-3.42,5.84-8.58,11.44-15.47,16.8-6.9,5.37-15.56,9.82-26,13.35-10.43,3.54-22.43,5.31-35.99,5.31-31.01,0-55.12-8.84-72.33-26.53-17.21-17.68-25.82-41.68-25.82-71.98,0-14.26,2.12-27.5,6.37-39.7s10.43-22.66,18.57-31.39c8.13-8.72,18.15-15.41,30.06-20.07,11.91-4.66,25.11-6.99,39.61-6.99,18.86,0,35.04,3.98,48.55,11.94,13.5,7.96,23.61,18.25,30.33,30.86,6.72,12.62,10.08,25.47,10.08,38.55,0,12.14-3.48,20.01-10.43,23.61-6.96,3.6-16.74,5.39-29.36,5.39Zm-94.44-27.41h87.54c-1.18-16.51-5.63-28.85-13.35-37.05-7.72-8.19-17.89-12.29-30.51-12.29s-21.9,4.16-29.62,12.47c-7.72,8.31-12.41,20.6-14.06,36.87Z"/>
          <path class="cls-2" d="m4491.91,1386.05l31.48,107.88,28.65-100.27c3.06-10.49,5.33-17.65,6.81-21.49,1.47-3.83,4.24-7.49,8.31-10.96,4.07-3.48,9.64-5.22,16.71-5.22s12.82,1.74,16.89,5.22c4.07,3.48,6.92,7.25,8.58,11.32,1.65,4.07,3.95,11.11,6.9,21.13l28.65,100.27,31.83-107.88c2.12-7.78,3.83-13.41,5.13-16.89,1.3-3.48,3.48-6.54,6.54-9.2,3.06-2.65,7.49-3.98,13.26-3.98s10.79,2.01,15.03,6.01c4.24,4.01,6.37,8.73,6.37,14.15,0,4.95-1.83,12.44-5.48,22.46l-39.44,115.66c-3.42,9.79-6.07,16.86-7.96,21.22-1.89,4.36-4.86,8.25-8.93,11.67s-9.64,5.13-16.71,5.13-13.06-1.83-17.24-5.48c-4.19-3.65-7.28-8.14-9.28-13.44-2.01-5.31-4.19-12.2-6.54-20.69l-27.59-94.08-26.7,94.08c-3.54,13.09-7.37,22.96-11.5,29.62-4.13,6.66-11.38,9.99-21.75,9.99-5.31,0-9.82-1.03-13.53-3.09s-6.81-5.01-9.28-8.84c-2.48-3.83-4.66-8.37-6.54-13.62-1.89-5.24-3.36-9.4-4.42-12.47l-39.08-115.66c-3.89-10.85-5.84-18.33-5.84-22.46,0-5.19,2.06-9.84,6.19-13.97,4.12-4.13,9.2-6.19,15.21-6.19,8.02,0,13.44,2.27,16.27,6.81,2.83,4.54,5.84,12.29,9.02,23.26Z"/>
          <path class="cls-2" d="m4951.82,1454.14c0,14.39-2.24,27.65-6.72,39.79-4.48,12.14-10.96,22.58-19.45,31.3-8.49,8.73-18.63,15.42-30.42,20.07-11.79,4.66-25.05,6.99-39.79,6.99s-27.77-2.36-39.44-7.07-21.78-11.46-30.33-20.25c-8.55-8.78-15.03-19.16-19.45-31.13-4.42-11.96-6.63-25.2-6.63-39.7s2.24-28,6.72-40.14c4.48-12.14,10.9-22.52,19.28-31.13,8.37-8.6,18.51-15.24,30.42-19.9,11.91-4.66,25.05-6.99,39.44-6.99s27.88,2.36,39.79,7.07c11.91,4.72,22.11,11.44,30.59,20.16,8.49,8.73,14.94,19.1,19.37,31.13,4.42,12.03,6.63,25.29,6.63,39.79Zm-48.46,0c0-19.69-4.33-35.02-13-45.98-8.67-10.96-20.31-16.45-34.93-16.45-9.43,0-17.75,2.45-24.94,7.34-7.19,4.89-12.73,12.11-16.62,21.66s-5.84,20.69-5.84,33.42,1.92,23.64,5.75,33.07c3.83,9.43,9.31,16.65,16.45,21.66,7.13,5.01,15.53,7.52,25.2,7.52,14.62,0,26.26-5.51,34.93-16.54,8.67-11.02,13-26.26,13-45.72Z"/>
          <path class="cls-2" d="m5057.33,1482.61v40.32c0,9.79-2.3,17.13-6.9,22.02-4.6,4.89-10.43,7.34-17.51,7.34s-12.68-2.48-17.15-7.43c-4.48-4.95-6.72-12.26-6.72-21.93v-134.41c0-21.69,7.84-32.54,23.52-32.54,8.02,0,13.79,2.54,17.33,7.6,3.54,5.07,5.48,12.56,5.84,22.46,5.78-9.9,11.7-17.39,17.77-22.46,6.07-5.07,14.17-7.6,24.32-7.6s19.98,2.54,29.53,7.6c9.55,5.07,14.32,11.79,14.32,20.16,0,5.9-2.03,10.76-6.1,14.59-4.07,3.83-8.46,5.75-13.17,5.75-1.77,0-6.04-1.09-12.82-3.27-6.78-2.18-12.76-3.27-17.95-3.27-7.07,0-12.85,1.86-17.33,5.57-4.48,3.71-7.96,9.23-10.43,16.54-2.48,7.31-4.19,16-5.13,26.09-.94,10.08-1.41,22.37-1.41,36.87Z"/>
          <path class="cls-2" d="m5182.82,1522.94v-209.39c0-9.67,2.15-16.98,6.46-21.93,4.3-4.95,10.11-7.43,17.42-7.43s13.2,2.45,17.68,7.34c4.48,4.89,6.72,12.23,6.72,22.02v209.39c0,9.79-2.27,17.13-6.81,22.02-4.54,4.89-10.41,7.34-17.6,7.34s-12.82-2.54-17.24-7.6c-4.42-5.07-6.63-12.32-6.63-21.75Z"/>
          <path class="cls-2" d="m5432.81,1524.7v-4.77c-6.49,7.43-12.88,13.47-19.19,18.13-6.31,4.66-13.15,8.2-20.51,10.61-7.37,2.42-15.42,3.63-24.14,3.63-11.56,0-22.25-2.45-32.1-7.34-9.85-4.89-18.37-11.88-25.55-20.96-7.19-9.08-12.64-19.75-16.36-32.01-3.71-12.26-5.57-25.52-5.57-39.79,0-30.18,7.37-53.7,22.11-70.56,14.74-16.86,34.13-25.29,58.18-25.29,13.91,0,25.64,2.39,35.19,7.16s18.86,12.11,27.94,22.02v-71.27c0-9.9,1.97-17.39,5.92-22.46,3.95-5.07,9.58-7.6,16.89-7.6s12.94,2.33,16.89,6.99c3.95,4.66,5.92,11.53,5.92,20.6v212.93c0,9.2-2.12,16.09-6.37,20.69-4.24,4.6-9.73,6.9-16.45,6.9s-12.06-2.39-16.36-7.16c-4.3-4.77-6.46-11.58-6.46-20.43Zm-94.97-70.92c0,13.09,2.03,24.23,6.1,33.42s9.64,16.12,16.71,20.78c7.07,4.66,14.79,6.99,23.17,6.99s16.24-2.21,23.26-6.63c7.01-4.42,12.61-11.2,16.8-20.34,4.18-9.14,6.28-20.54,6.28-34.22,0-12.85-2.09-23.9-6.28-33.16-4.19-9.25-9.85-16.33-16.98-21.22-7.13-4.89-14.94-7.34-23.43-7.34s-16.74,2.51-23.7,7.52c-6.96,5.01-12.35,12.2-16.18,21.58-3.83,9.37-5.75,20.25-5.75,32.63Z"/>
        </g>
      </g>
      <path class="cls-1" d="m1269.51,376.07c-341.66-108.34-707.76,81.49-816.1,423.15-108.34,341.66,81.49,707.76,423.15,816.1,341.66,108.34,707.76-81.49,816.1-423.15,108.34-341.66-81.49-707.77-423.15-816.1Zm-21.47,67.71c19.79,6.27,38.99,13.54,57.6,21.69-53.86,50.24-103.91,104.73-149.06,162.64-2.7,3.46-5.39,6.94-8.09,10.42-16.59,21.45-32.26,41.71-50.7,57.81-21.12,18.43-43.91,28.66-64.17,28.8-32.36.24-61.43-22.36-95.09-48.51-31.39-24.39-66.99-52.01-110.76-61.97-35.91-8.15-69.86-3.18-102.68,1.62-17.66,2.59-34.33,5.03-50.31,5.22-13.08.17-26.39-1.19-40.09-4.03,146.87-169.75,386.17-245.74,613.36-173.7Zm-350.01,1103.84c-160.09-50.76-282.73-165.08-348.99-306.33,67.58-6.55,109.83-73.61,127.12-136.23,2.26-8.21,4.39-16.6,6.53-25.03,10.49-41.36,20.4-80.43,46.89-101.15,32.4-25.38,83.56-15.39,117.37,7.64,41.34,28.09,70.12,74.52,97.96,119.42,30.21,48.73,64.45,103.95,118.97,140.53,27.8,18.66,57.72,30.32,86.66,41.61,17.44,6.8,33.92,13.22,49.46,20.95,76.24,37.83,132.3,108.98,177.29,178.98-138.6,85.52-312.2,112.59-479.25,59.62Zm726.92-376.91c-35.82,112.98-103.31,207.3-189.56,276.33-50.1-77.56-113.62-156.88-203.81-201.64-18.37-9.12-37.12-16.44-55.25-23.5-26.52-10.34-51.58-20.11-72.89-34.41-41.81-28.04-71.76-76.35-98.18-118.97-30.27-48.83-64.58-104.17-118.38-140.73-53.4-36.36-139.12-53.38-201.1-4.83-45.58,35.67-59.59,90.89-71.95,139.61-2.02,7.97-4.03,15.9-6.16,23.63-10.68,38.69-35.1,84.07-68.73,84.63-5.62.08-11.64-1.03-18.65-3.51-34.08-109.22-36.31-229.52.82-346.62,16.32-51.46,39.22-99.03,67.45-142.13.77.25,1.56.55,2.33.8,29.02,9.2,56.99,13.53,84.78,13.17,20.68-.26,40.51-3.16,59.68-5.96,27.61-4.04,53.69-7.85,76.69-2.64,28.41,6.45,54.87,27.01,82.89,48.78,38.52,29.94,82.19,63.86,139.17,63.46,47.74-.33,86.38-25.36,110.39-46.32,23.66-20.68,42.22-44.66,60.16-67.86,2.62-3.39,5.25-6.78,7.9-10.18,48.06-61.63,101.89-119.21,160.18-171.53,87.1,52.7,157.12,126.71,205.27,212.8-11.45,3.41-23.88,6.15-36.66,8.96-17.81,3.92-36.22,7.97-54.28,14.3-63.72,22.25-116.72,73-141.77,135.77-20.4,51.17-16.26,102.16,11.08,136.42,16.53,20.71,38.66,32.47,60.77,39.47,21.86,6.93,43.71,9.22,60.05,10.94l169.14,17.78c-4.45,31.38-11.51,62.79-21.4,93.98Zm27.01-164.82l-167.33-17.59c-29.55-3.09-59.5-7.5-72.72-24.07-13.21-16.56-8.59-45.8-.62-65.79,17.54-43.94,54.63-79.46,99.27-95.05,14.05-4.93,29.6-8.35,46.07-11.97,17.43-3.83,35.18-7.81,52.49-13.77,29.17,71.54,44.2,149.09,42.85,228.24Z"/>
    </g>
  </g>
</svg>