<?xml version="1.0" encoding="UTF-8"?>
<svg id="Calque_2" data-name="Calque 2" xmlns="http://www.w3.org/2000/svg" viewBox="0 0 691.52 691.52">
  <defs>
    <style>
      .cls-1 {
        fill: #2bba7c;
      }

      .cls-1, .cls-2 {
        stroke-width: 0px;
      }

      .cls-2 {
        fill: #ffefe1;
      }
    </style>
  </defs>
  <g id="Calque_1-2" data-name="Calque 1">
    <g>
      <rect class="cls-2" width="691.52" height="691.52" rx="79.34" ry="79.34"/>
      <path class="cls-1" d="m402.87,165.64c-99.32-31.49-205.74,23.69-237.23,123.01-31.49,99.32,23.69,205.74,123.01,237.23,99.32,31.49,205.74-23.69,237.23-123,31.49-99.32-23.69-205.74-123-237.23Zm-6.24,19.68c5.75,1.82,11.33,3.94,16.74,6.3-15.66,14.6-30.2,30.44-43.33,47.28-.79,1.01-1.57,2.02-2.35,3.03-4.82,6.23-9.38,12.12-14.74,16.81-6.14,5.36-12.76,8.33-18.65,8.37-9.41.07-17.86-6.5-27.64-14.1-9.13-7.09-19.47-15.12-32.2-18.01-10.44-2.37-20.31-.93-29.85.47-5.13.75-9.98,1.46-14.62,1.52-3.8.05-7.67-.35-11.65-1.17,42.69-49.34,112.25-71.43,178.29-50.49Zm-101.74,320.87c-46.54-14.76-82.19-47.99-101.45-89.05,19.64-1.9,31.93-21.4,36.95-39.6.66-2.39,1.28-4.82,1.9-7.28,3.05-12.02,5.93-23.38,13.63-29.4,9.42-7.38,24.29-4.47,34.12,2.22,12.02,8.16,20.38,21.66,28.48,34.71,8.78,14.16,18.73,30.22,34.58,40.85,8.08,5.42,16.78,8.81,25.19,12.09,5.07,1.98,9.86,3.84,14.38,6.09,22.16,11,38.46,31.68,51.54,52.03-40.29,24.86-90.75,32.73-139.31,17.33Zm211.31-109.56c-10.41,32.84-30.03,60.26-55.1,80.33-14.56-22.55-33.03-45.6-59.24-58.61-5.34-2.65-10.79-4.78-16.06-6.83-7.71-3.01-14.99-5.85-21.19-10-12.15-8.15-20.86-22.2-28.54-34.58-8.8-14.19-18.77-30.28-34.41-40.91-15.52-10.57-40.44-15.52-58.46-1.41-13.25,10.37-17.32,26.42-20.91,40.58-.59,2.32-1.17,4.62-1.79,6.87-3.1,11.25-10.2,24.44-19.98,24.6-1.64.02-3.39-.3-5.42-1.02-9.91-31.75-10.55-66.72.24-100.76,4.74-14.96,11.4-28.79,19.61-41.31.22.07.45.16.68.23,8.44,2.68,16.57,3.93,24.65,3.83,6.01-.08,11.78-.92,17.35-1.73,8.03-1.17,15.61-2.28,22.29-.77,8.26,1.88,15.95,7.85,24.1,14.18,11.2,8.7,23.89,18.56,40.45,18.45,13.88-.1,25.11-7.37,32.09-13.47,6.88-6.01,12.27-12.98,17.49-19.73.76-.99,1.52-1.97,2.3-2.96,13.97-17.92,29.62-34.65,46.56-49.86,25.32,15.32,45.67,36.83,59.67,61.86-3.33.99-6.94,1.79-10.66,2.61-5.18,1.14-10.53,2.32-15.78,4.16-18.52,6.47-33.93,21.22-41.21,39.47-5.93,14.87-4.73,29.7,3.22,39.65,4.8,6.02,11.24,9.44,17.66,11.47,6.36,2.02,12.7,2.68,17.46,3.18l49.17,5.17c-1.29,9.12-3.34,18.25-6.22,27.32Zm7.85-47.91l-48.64-5.11c-8.59-.9-17.3-2.18-21.14-7-3.84-4.81-2.5-13.31-.18-19.12,5.1-12.77,15.88-23.1,28.86-27.63,4.08-1.43,8.6-2.43,13.39-3.48,5.07-1.11,10.23-2.27,15.26-4,8.48,20.8,12.85,43.34,12.46,66.35Z"/>
    </g>
  </g>
</svg>