<?xml version="1.0" encoding="UTF-8"?>
<svg id="Calque_2" data-name="Calque 2" xmlns="http://www.w3.org/2000/svg" viewBox="0 0 2809.89 1093.91">
  <defs>
    <style>
      .cls-1 {
        fill: #a9ffa4;
        font-family: ArialRoundedMTBold, 'Arial Rounded MT Bold';
        font-size: 204.21px;
      }

      .cls-2 {
        letter-spacing: .05em;
      }

      .cls-3 {
        fill: #2bba7c;
      }

      .cls-3, .cls-4 {
        stroke-width: 0px;
      }

      .cls-5 {
        letter-spacing: .03em;
      }

      .cls-6 {
        letter-spacing: .05em;
      }

      .cls-4 {
        fill: #1c3326;
      }

      .cls-7 {
        letter-spacing: .04em;
      }
    </style>
  </defs>
  <g id="Calque_1-2" data-name="Calque 1">
    <g>
      <rect class="cls-4" y="0" width="2809.89" height="1093.91" rx="166.55" ry="166.55"/>
      <g>
        <path class="cls-3" d="m982.81,332.86s-20.12-.22-34.44,10.24c-14.32,10.39-33,11.61-48.47,3.03-20.05-11.14-44.14-17.2-71.66-17.56-.9,0-1.77-.04-2.67-.04-100.26,0-166.62,71.41-166.62,181.77s66.11,181.48,166.01,181.77h.61c28.45,0,53.34-6.02,73.97-17.38,15.83-8.73,35.02-7.43,49.59,3.28,14.28,10.46,33.68,9.77,33.68,9.77,31.02,0,49.77-20.2,49.77-52.65v-250.29c0-32.46-18.75-51.93-49.77-51.93Zm-137.05,269.04c-50.49,0-85.83-37.51-85.83-91.6s35.34-91.6,85.83-91.6,88,38.23,88,91.6-36.79,91.6-88,91.6Z"/>
        <path class="cls-3" d="m437.11,328.53c-111.08,0-187.54,73.54-187.54,181.73s76.46,181.77,191.14,181.77c60.59,0,108.92-20.2,140.65-56.98,6.09-8.15,9.67-16.95,10.06-27.01.76-19.73-11.58-37.07-30.55-42.56-16.77-4.83-33.58.29-45.15,11.87-21.64,20.2-44,29.57-75.01,29.57-37.25,0-65.39-15.9-80.82-43.06-5.88-10.39,1.8-23.3,13.78-23.3h189.66c30.29,0,50.49-20.2,50.49-51.21v-5.77c0-82.95-77.18-155.04-176.72-155.04Zm51.03,144.22h-116.96c-10.82,0-17.78-11.9-12.01-21.06,14.86-23.73,44.4-38.08,77.94-38.08,26.62,0,50.2,9.7,65.67,26.33,11.61,12.44,2.38,32.82-14.64,32.82Z"/>
        <path class="cls-3" d="m1775.23,332.78c0,15.77,17.03,25.68,30.71,17.83,20.05-11.51,44.74-17.74,73.88-17.74,94.49,0,144.98,56.26,144.98,160.12v146.42c0,32.46-18.75,52.65-49.77,52.65s-49.05-20.2-49.05-52.65v-134.88c0-53.37-24.52-81.5-72.13-81.5-39.93,0-66.4,21.83-75.3,59.89-2.19,9.37-3.32,19.73-3.32,30.99v125.5c0,32.46-18.75,52.65-49.77,52.65s-49.05-20.2-49.05-52.65V231.16c0-32.46,18.75-52.65,49.05-52.65s49.77,20.19,49.77,52.65v101.61Z"/>
        <path class="cls-3" d="m2168.59,231.16v408.24c0,32.46-18.75,52.65-49.77,52.65s-49.05-20.2-49.05-52.65V231.16c0-32.46,18.75-52.65,49.05-52.65s49.77,20.19,49.77,52.65Z"/>
        <path class="cls-3" d="m1162.57,342.61c13.29,11.14,32.39,12.99,46.88,3.45,17.67-11.64,39.41-17.53,65.07-17.53,28.85,0,49.05,18.03,49.05,49.05s-20.19,49.05-49.05,49.05c-62.75,0-98.09,28.13-98.09,103.14v103.14c0,32.45-18.75,52.65-49.77,52.65s-49.05-20.2-49.05-52.65v-250.29c0-32.46,18.75-51.93,49.05-51.93,0,0,20.82-.74,35.91,11.91Z"/>
        <path class="cls-3" d="m1625.51,631.47c-21.64,40.39-63.47,60.59-120.45,60.59-85.83,0-136.32-52.66-136.32-142.81v-280.58c0-32.46,18.75-52.65,49.05-52.65s49.77,20.2,49.77,52.65v44.91c0,13.04,10.57,23.61,23.61,23.61h77.37c29.57,0,48.32,16.59,48.32,44.72s-18.75,45.44-48.32,45.44h-77.37c-13.04,0-23.61,10.57-23.61,23.61v101.89c0,31.01,15.87,49.05,42.56,49.05,16.59,0,27.41-7.21,39.67-22.36,9.38-12.26,22.36-18.03,36.79-18.03,25.97,0,44.72,18.75,44.72,46.16,0,8.66-2.16,16.59-5.77,23.8Z"/>
        <path class="cls-3" d="m2468.13,652.39c0,1.24.33,55.13.29,56.35-1.61,46.24-33.69,76.37-82.88,76.37-33.9,0-55.54-7.28-80.78-28.91-7.21-5.77-15.15-10.76-26.69-10.76-28.85,0-46.88,18.03-46.88,46.16,0,11.54,3.61,21.64,10.1,29.57,26.69,34.62,80.06,53.37,146.42,53.37,109.17,0,176.39-62.59,179.49-166.27.07-2.5-.24-57.68-.24-60.22v-267.6c0-32.46-18.75-51.93-49.05-51.93-9.92,0-18.59,1.99-25.78,5.76-15.31,8.02-23.98,24.09-23.98,46.17v110.36c0,56.98-28.85,90.88-77.9,90.88-46.16,0-70.69-28.85-70.69-81.5v-119.73c0-32.46-18.75-51.93-49.77-51.93s-49.05,19.47-49.05,51.93v131.27c0,103.87,50.49,160.12,143.54,160.12,35.73,0,65.01-9.67,87.11-27.54,6.73-5.44,16.75-.59,16.75,8.06h0Z"/>
      </g>
      <text class="cls-1" transform="translate(241.38 872.32)"><tspan class="cls-2" x="0" y="0">ca</tspan><tspan class="cls-5" x="264.76" y="0">r</tspan><tspan class="cls-6" x="360.15" y="0">e </tspan><tspan class="cls-7" x="554.61" y="0">f</tspan><tspan class="cls-2" x="630.95" y="0">or the </tspan><tspan class="cls-7" x="1340.03" y="0">w</tspan><tspan class="cls-2" x="1514.39" y="0">o</tspan><tspan class="cls-7" x="1648.76" y="0">r</tspan><tspan class="cls-2" x="1746.54" y="0">ld</tspan></text>
    </g>
  </g>
</svg>