<svg width="135" height="40" viewBox="0 0 135 40" fill="none" xmlns="http://www.w3.org/2000/svg">
<g clip-path="url(#clip0_227_14)">
<path d="M42.447 8.86688C42.447 8.86688 41.2822 8.85424 40.4533 9.45513C39.6243 10.052 38.5429 10.1221 37.6474 9.62919C36.4867 8.98924 35.0921 8.64111 33.499 8.62043C33.4469 8.62043 33.3965 8.61813 33.3444 8.61813C27.5404 8.61813 23.6989 12.7204 23.6989 19.0602C23.6989 25.4 27.5259 29.4856 33.3091 29.5022H33.3444C34.9914 29.5022 36.4322 29.1564 37.6265 28.5038C38.5429 28.0023 39.6538 28.077 40.4973 28.6922C41.3239 29.2931 42.447 29.2535 42.447 29.2535C44.2427 29.2535 45.3281 28.0931 45.3281 26.2289V11.8501C45.3281 9.98536 44.2427 8.86688 42.447 8.86688ZM34.5132 24.3223C31.5904 24.3223 29.5445 22.1675 29.5445 19.0602C29.5445 15.9529 31.5904 13.7981 34.5132 13.7981C37.4361 13.7981 39.6075 15.9943 39.6075 19.0602C39.6075 22.1261 37.4777 24.3223 34.5132 24.3223Z" fill="#2BBA7C"/>
<path d="M10.8566 8.61813C4.42624 8.61813 0 12.8427 0 19.0579C0 25.273 4.42624 29.4999 11.065 29.4999C14.5725 29.4999 17.3704 28.3395 19.2072 26.2266C19.5597 25.7584 19.767 25.2529 19.7896 24.675C19.8336 23.5416 19.1192 22.5455 18.021 22.2301C17.0502 21.9526 16.0771 22.2467 15.4073 22.912C14.1546 24.0724 12.8602 24.6107 11.065 24.6107C8.90863 24.6107 7.27962 23.6973 6.38638 22.137C6.04599 21.5401 6.49058 20.7985 7.1841 20.7985H18.1634C19.9169 20.7985 21.0863 19.6381 21.0863 17.8567V17.5252C21.0863 12.76 16.6184 8.61871 10.856 8.61871L10.8566 8.61813ZM13.8107 16.9031H7.03995C6.41359 16.9031 6.01068 16.2195 6.3447 15.6932C7.20494 14.33 8.915 13.5057 10.8566 13.5057C12.3976 13.5057 13.7627 14.0629 14.6582 15.0182C15.3303 15.7329 14.796 16.9036 13.8107 16.9036V16.9031Z" fill="#2BBA7C"/>
<path d="M88.3198 8.86227C88.3198 9.7682 89.3057 10.3375 90.0976 9.88654C91.2583 9.22533 92.6876 8.86744 94.3745 8.86744C99.8445 8.86744 102.767 12.0994 102.767 18.0658V26.4771C102.767 28.3418 101.682 29.5016 99.8862 29.5016C98.0904 29.5016 97.0467 28.3412 97.0467 26.4771V18.7287C97.0467 15.6628 95.6272 14.0468 92.8711 14.0468C90.5596 14.0468 89.0272 15.3009 88.512 17.4873C88.3852 18.0256 88.3198 18.6207 88.3198 19.2676V26.4771C88.3198 28.3418 87.2344 29.5016 85.4387 29.5016C83.6429 29.5016 82.5992 28.3412 82.5992 26.4771V3.02456C82.5992 1.15984 83.6846 0 85.4387 0C87.1927 0 88.3198 1.15984 88.3198 3.02456V8.8617V8.86227Z" fill="#2BBA7C"/>
<path d="M111.091 3.02456V26.4771C111.091 28.3418 110.006 29.5016 108.21 29.5016C106.414 29.5016 105.371 28.3412 105.371 26.4771V3.02456C105.371 1.15984 106.456 0 108.21 0C109.964 0 111.091 1.15984 111.091 3.02456Z" fill="#2BBA7C"/>
<path d="M52.8526 9.42698C53.622 10.0669 54.7277 10.1732 55.5665 9.62517C56.5894 8.95649 57.8479 8.61813 59.3334 8.61813C61.0035 8.61813 62.1728 9.65389 62.1728 11.4359C62.1728 13.2179 61.0041 14.2536 59.3334 14.2536C55.7008 14.2536 53.655 15.8696 53.655 20.1787V26.1037C53.655 27.9678 52.5695 29.1283 50.7738 29.1283C48.9781 29.1283 47.9343 27.9678 47.9343 26.1037V11.726C47.9343 9.86128 49.0198 8.74279 50.7738 8.74279C50.7738 8.74279 51.9791 8.70028 52.8526 9.42698Z" fill="#2BBA7C"/>
<path d="M79.6526 26.021C78.3999 28.3412 75.9784 29.5016 72.6798 29.5016C67.7112 29.5016 64.7883 26.4765 64.7883 21.2977V5.17937C64.7883 3.31466 65.8738 2.15482 67.6278 2.15482C69.3819 2.15482 70.509 3.31524 70.509 5.17937V7.7593C70.509 8.5084 71.1209 9.11561 71.8758 9.11561H76.3547C78.0665 9.11561 79.1519 10.0686 79.1519 11.6846C79.1519 13.3006 78.0665 14.295 76.3547 14.295H71.8758C71.1209 14.295 70.509 14.9022 70.509 15.6513V21.5045C70.509 23.2859 71.4277 24.3223 72.9728 24.3223C73.9332 24.3223 74.5595 23.9081 75.2692 23.0378C75.8122 22.3335 76.5637 22.002 77.399 22.002C78.9024 22.002 79.9878 23.0791 79.9878 24.6537C79.9878 25.1512 79.8628 25.6068 79.6538 26.021H79.6526Z" fill="#2BBA7C"/>
<path d="M128.432 27.2228C128.432 27.294 128.451 30.3898 128.448 30.4599C128.355 33.1162 126.498 34.8471 123.65 34.8471C121.688 34.8471 120.435 34.4288 118.974 33.1863C118.557 32.8548 118.097 32.5682 117.429 32.5682C115.759 32.5682 114.715 33.6039 114.715 35.2199C114.715 35.8828 114.924 36.463 115.3 36.9186C116.845 38.9074 119.934 39.9845 123.776 39.9845C130.096 39.9845 133.987 36.3889 134.167 30.4329C134.171 30.2893 134.153 27.1194 134.153 26.9734V11.6013C134.153 9.73662 133.067 8.61813 131.313 8.61813C130.739 8.61813 130.237 8.73245 129.821 8.94903C128.935 9.40975 128.433 10.3329 128.433 11.6013V17.9411C128.433 21.2144 126.763 23.1619 123.923 23.1619C121.251 23.1619 119.831 21.5045 119.831 18.48V11.6019C119.831 9.73719 118.745 8.61871 116.95 8.61871C115.154 8.61871 114.11 9.73719 114.11 11.6019V19.1429C114.11 25.1099 117.033 28.3412 122.42 28.3412C124.488 28.3412 126.183 27.7857 127.462 26.7592C127.852 26.4467 128.432 26.7253 128.432 27.2222L128.432 27.2228Z" fill="#2BBA7C"/>
<path d="M5.99099 38.064C5.99099 38.2588 5.93252 38.4667 5.815 38.6885C5.69749 38.9102 5.51861 39.1211 5.27837 39.3215C5.03755 39.522 4.73478 39.6835 4.36892 39.8058C4.00306 39.9282 3.59146 39.9891 3.13356 39.9891C2.15985 39.9891 1.39976 39.7076 0.853286 39.144C0.306808 38.5811 0.0335693 37.8256 0.0335693 36.8783C0.0335693 36.2367 0.158611 35.6697 0.408694 35.1773C0.658777 34.685 1.02059 34.3036 1.49412 34.0347C1.96766 33.7653 2.53324 33.6309 3.19145 33.6309C3.59957 33.6309 3.97354 33.6901 4.31393 33.8084C4.65432 33.9267 4.94319 34.0795 5.17996 34.2668C5.41672 34.4541 5.59734 34.6534 5.72238 34.8654C5.84742 35.0774 5.90994 35.275 5.90994 35.4583C5.90994 35.6415 5.8399 35.8041 5.69922 35.9339C5.55855 36.0638 5.38836 36.1287 5.18806 36.1287C5.05723 36.1287 4.9484 36.0953 4.86214 36.0281C4.77531 35.9615 4.67863 35.8535 4.57038 35.7047C4.3776 35.4146 4.17673 35.1969 3.96717 35.0515C3.75761 34.9062 3.49074 34.8338 3.16771 34.8338C2.70228 34.8338 2.32658 35.0142 2.04234 35.375C1.75752 35.7357 1.61511 36.2292 1.61511 36.8559C1.61511 37.1501 1.65158 37.4201 1.72452 37.6665C1.79747 37.913 1.9034 38.1226 2.04176 38.2967C2.18012 38.4708 2.34742 38.6023 2.54366 38.6919C2.73991 38.7815 2.95526 38.8264 3.19029 38.8264C3.50579 38.8264 3.77613 38.754 4.00132 38.6086C4.22651 38.4633 4.42565 38.2421 4.59874 37.944C4.69484 37.7682 4.79904 37.6309 4.91019 37.5315C5.02192 37.4321 5.15854 37.3827 5.32005 37.3827C5.51224 37.3827 5.67202 37.4551 5.79937 37.6004C5.92615 37.7458 5.98983 37.9003 5.98983 38.0646L5.99099 38.064Z" fill="#A9FFA4"/>
<path d="M7.70859 39.0492V32.2671C7.70859 31.954 7.77863 31.7174 7.91931 31.5571C8.05998 31.3968 8.24928 31.3164 8.48778 31.3164C8.72629 31.3164 8.91848 31.3957 9.06494 31.5542C9.2114 31.7128 9.28434 31.9506 9.28434 32.2671V39.0492C9.28434 39.3664 9.21024 39.6042 9.06205 39.7622C8.91385 39.9207 8.72223 40 8.48778 40C8.25333 40 8.06924 39.9178 7.92509 39.7535C7.78095 39.5892 7.70859 39.3543 7.70859 39.0487V39.0492Z" fill="#A9FFA4"/>
<path d="M15.5335 39.1182C15.1526 39.4123 14.7839 39.6329 14.4284 39.78C14.0724 39.927 13.673 40.0006 13.2307 40.0006C12.8266 40.0006 12.4717 39.9213 12.1655 39.7627C11.8593 39.6042 11.6237 39.3893 11.4581 39.1182C11.2925 38.8471 11.2097 38.5529 11.2097 38.2358C11.2097 37.8084 11.3464 37.4436 11.6196 37.1415C11.8928 36.8399 12.268 36.6377 12.745 36.5343C12.8451 36.5113 13.0935 36.4596 13.4894 36.3797C13.886 36.2993 14.2252 36.2263 14.5083 36.1591C14.7914 36.0925 15.0982 36.0109 15.4287 35.9156C15.4096 35.5031 15.3257 35.2004 15.1775 35.0079C15.0293 34.8149 14.7225 34.7184 14.2565 34.7184C13.8565 34.7184 13.5549 34.7735 13.3534 34.8844C13.1514 34.9953 12.9783 35.1613 12.8341 35.383C12.69 35.6048 12.5881 35.7507 12.5279 35.8213C12.4683 35.892 12.3403 35.927 12.1441 35.927C11.9669 35.927 11.8141 35.8708 11.685 35.7582C11.5559 35.6456 11.4917 35.5014 11.4917 35.3256C11.4917 35.0504 11.5901 34.7833 11.7863 34.5236C11.9826 34.264 12.2882 34.0503 12.7039 33.882C13.1195 33.7142 13.6371 33.6298 14.2565 33.6298C14.9494 33.6298 15.4936 33.7108 15.8901 33.8733C16.2867 34.0359 16.5663 34.2927 16.7301 34.6437C16.8939 34.9953 16.9756 35.4612 16.9756 36.0414C16.9756 36.4079 16.9744 36.7192 16.9727 36.9749C16.9709 37.2305 16.968 37.5154 16.964 37.8285C16.964 38.1227 17.0132 38.4288 17.111 38.7477C17.2094 39.0665 17.2581 39.2716 17.2581 39.3635C17.2581 39.5238 17.1822 39.6697 17.03 39.8018C16.8777 39.9334 16.7058 39.9994 16.5136 39.9994C16.3521 39.9994 16.1923 39.9242 16.0343 39.7731C15.8762 39.622 15.7089 39.4037 15.5324 39.1171L15.5335 39.1182ZM15.4299 36.8554C15.1989 36.9393 14.8632 37.0283 14.4226 37.1219C13.9821 37.2156 13.677 37.2845 13.5074 37.3282C13.3378 37.3724 13.1763 37.458 13.0223 37.5861C12.8683 37.7142 12.7913 37.8923 12.7913 38.1215C12.7913 38.3507 12.8816 38.5598 13.0628 38.7258C13.2434 38.8919 13.4802 38.9752 13.7725 38.9752C14.084 38.9752 14.3717 38.9074 14.6357 38.7718C14.8991 38.6362 15.0924 38.4616 15.2157 38.2479C15.3581 38.0112 15.4293 37.6217 15.4293 37.0794V36.856L15.4299 36.8554Z" fill="#A9FFA4"/>
<path d="M24.2882 37.9555C24.2882 38.3869 24.1822 38.7563 23.9709 39.0636C23.7591 39.3709 23.4465 39.6042 23.0331 39.7627C22.6192 39.9213 22.1162 40.0006 21.5234 40.0006C20.9306 40.0006 20.4727 39.9144 20.0686 39.7426C19.6645 39.5709 19.3664 39.356 19.1736 39.0981C18.9814 38.8401 18.8848 38.5816 18.8848 38.322C18.8848 38.1502 18.9461 38.0031 19.0694 37.8808C19.1927 37.7584 19.3485 37.6975 19.5372 37.6975C19.7027 37.6975 19.8295 37.7377 19.9181 37.8176C20.0067 37.898 20.0912 38.0106 20.1722 38.1554C20.3337 38.434 20.5271 38.6425 20.7523 38.7798C20.9775 38.9171 21.2843 38.9861 21.6727 38.9861C21.9882 38.9861 22.247 38.9165 22.449 38.7769C22.6511 38.6374 22.7524 38.4782 22.7524 38.2984C22.7524 38.0233 22.6476 37.8228 22.438 37.697C22.2285 37.5711 21.8829 37.4505 21.4018 37.3362C20.8594 37.2023 20.4177 37.0622 20.0773 36.9151C19.7369 36.768 19.4642 36.5744 19.2605 36.3337C19.0567 36.093 18.9542 35.7972 18.9542 35.4456C18.9542 35.1325 19.0486 34.8367 19.2373 34.5575C19.426 34.2789 19.7039 34.0566 20.0715 33.89C20.4391 33.724 20.8825 33.6407 21.4018 33.6407C21.8093 33.6407 22.1764 33.6826 22.5017 33.7665C22.827 33.8503 23.098 33.9629 23.3156 34.1042C23.5327 34.2456 23.6983 34.4024 23.8123 34.5742C23.9258 34.7459 23.9825 34.9142 23.9825 35.078C23.9825 35.2578 23.9217 35.4043 23.8008 35.5192C23.6798 35.6335 23.5073 35.6909 23.2844 35.6909C23.1229 35.6909 22.9851 35.645 22.8716 35.5536C22.7582 35.4617 22.6279 35.3244 22.482 35.1412C22.3628 34.9884 22.2221 34.866 22.0606 34.7747C21.8991 34.6833 21.6797 34.6374 21.4024 34.6374C21.1251 34.6374 20.8808 34.6977 20.6927 34.8177C20.5039 34.9378 20.4096 35.0877 20.4096 35.2675C20.4096 35.4318 20.479 35.5663 20.6174 35.6714C20.7558 35.7765 20.9427 35.8633 21.1772 35.9322C21.4116 36.0011 21.7353 36.085 22.1468 36.1844C22.6354 36.3027 23.0349 36.444 23.3446 36.6083C23.6543 36.7726 23.8893 36.9662 24.0491 37.1897C24.2089 37.4132 24.2888 37.6682 24.2888 37.9543L24.2882 37.9555Z" fill="#A9FFA4"/>
<path d="M31.3339 37.9555C31.3339 38.3869 31.228 38.7563 31.0167 39.0636C30.8048 39.3709 30.4922 39.6042 30.0789 39.7627C29.6649 39.9213 29.1619 40.0006 28.5691 40.0006C27.9763 40.0006 27.5184 39.9144 27.1143 39.7426C26.7103 39.5709 26.4121 39.356 26.2194 39.0981C26.0272 38.8401 25.9305 38.5816 25.9305 38.322C25.9305 38.1502 25.9918 38.0031 26.1151 37.8808C26.2385 37.7584 26.3942 37.6975 26.5829 37.6975C26.7485 37.6975 26.8752 37.7377 26.9638 37.8176C27.0524 37.898 27.1369 38.0106 27.2179 38.1554C27.3795 38.434 27.5728 38.6425 27.798 38.7798C28.0232 38.9171 28.33 38.9861 28.7184 38.9861C29.0339 38.9861 29.2927 38.9165 29.4947 38.7769C29.6968 38.6374 29.7981 38.4782 29.7981 38.2984C29.7981 38.0233 29.6933 37.8228 29.4837 37.697C29.2742 37.5711 28.9286 37.4505 28.4475 37.3362C27.9051 37.2023 27.4634 37.0622 27.123 36.9151C26.7826 36.768 26.51 36.5744 26.3062 36.3337C26.1024 36.093 25.9999 35.7972 25.9999 35.4456C25.9999 35.1325 26.0943 34.8367 26.283 34.5575C26.4717 34.2789 26.7496 34.0566 27.1172 33.89C27.4848 33.724 27.9283 33.6407 28.4475 33.6407C28.8551 33.6407 29.2221 33.6826 29.5474 33.7665C29.8728 33.8503 30.1437 33.9629 30.3614 34.1042C30.5784 34.2456 30.744 34.4024 30.858 34.5742C30.9715 34.7459 31.0282 34.9142 31.0282 35.078C31.0282 35.2578 30.9675 35.4043 30.8465 35.5192C30.7255 35.6335 30.553 35.6909 30.3301 35.6909C30.1686 35.6909 30.0308 35.645 29.9173 35.5536C29.8039 35.4617 29.6736 35.3244 29.5277 35.1412C29.4085 34.9884 29.2678 34.866 29.1063 34.7747C28.9448 34.6833 28.7254 34.6374 28.4481 34.6374C28.1708 34.6374 27.9265 34.6977 27.7384 34.8177C27.5497 34.9378 27.4553 35.0877 27.4553 35.2675C27.4553 35.4318 27.5248 35.5663 27.6631 35.6714C27.8015 35.7765 27.9885 35.8633 28.2229 35.9322C28.4574 36.0011 28.781 36.085 29.1926 36.1844C29.6811 36.3027 30.0806 36.444 30.3903 36.6083C30.7 36.7726 30.935 36.9662 31.0948 37.1897C31.2546 37.4132 31.3345 37.6682 31.3345 37.9543L31.3339 37.9555Z" fill="#A9FFA4"/>
<path d="M37.7046 37.2047H34.622C34.6261 37.5597 34.6979 37.8728 34.8385 38.1439C34.9792 38.4151 35.1656 38.6196 35.3983 38.7569C35.631 38.8942 35.8881 38.9631 36.1688 38.9631C36.3576 38.9631 36.5295 38.9413 36.6852 38.897C36.8409 38.8534 36.992 38.7844 37.1385 38.6908C37.2849 38.5972 37.4193 38.4972 37.5426 38.3904C37.6659 38.2835 37.8256 38.1382 38.0219 37.9549C38.1029 37.886 38.2181 37.8521 38.3681 37.8521C38.5296 37.8521 38.6604 37.8957 38.7606 37.9836C38.8607 38.0715 38.9105 38.1956 38.9105 38.3559C38.9105 38.4972 38.8549 38.6621 38.7432 38.8516C38.6315 39.0406 38.463 39.2222 38.2384 39.3957C38.0132 39.5697 37.7301 39.7133 37.3897 39.8282C37.0493 39.9431 36.6574 40 36.2151 40C35.2032 40 34.4159 39.7133 33.8544 39.1406C33.2923 38.5679 33.0115 37.7906 33.0115 36.8094C33.0115 36.3476 33.081 35.9184 33.2194 35.5232C33.3577 35.128 33.5598 34.789 33.8255 34.5064C34.0912 34.2238 34.4183 34.0072 34.8067 33.8561C35.1951 33.705 35.6264 33.6298 36.0999 33.6298C36.7153 33.6298 37.2438 33.7584 37.6844 34.0164C38.1249 34.2743 38.4549 34.6075 38.6743 35.0159C38.8937 35.4244 39.0031 35.8409 39.0031 36.2648C39.0031 36.6583 38.8896 36.9134 38.6627 37.0294C38.4358 37.1461 38.1162 37.2041 37.7046 37.2041V37.2047ZM34.622 36.3165H37.4795C37.4407 35.7817 37.2954 35.3819 37.0435 35.1165C36.7911 34.8511 36.4594 34.7184 36.0478 34.7184C35.6363 34.7184 35.3329 34.8528 35.0811 35.1222C34.8293 35.3916 34.6759 35.7898 34.622 36.3165Z" fill="#A9FFA4"/>
<path d="M46.2104 36.9358V39.0154C46.2104 39.3439 46.1351 39.5904 45.9852 39.7541C45.8352 39.9184 45.6367 40.0006 45.3906 40.0006C45.1446 40.0006 44.9588 39.9184 44.8106 39.7541C44.6624 39.5898 44.5883 39.3434 44.5883 39.0154V36.5233C44.5883 36.1298 44.575 35.8242 44.5478 35.6071C44.5206 35.3893 44.4476 35.2107 44.3284 35.0717C44.2091 34.9321 44.0204 34.8625 43.7628 34.8625C43.247 34.8625 42.9078 35.0383 42.7439 35.3893C42.5801 35.7409 42.4985 36.2447 42.4985 36.9013V39.0148C42.4985 39.3394 42.4244 39.5847 42.2762 39.7507C42.128 39.9167 41.9329 40 41.6903 40C41.4478 40 41.2562 39.9167 41.1045 39.7507C40.9522 39.5847 40.8764 39.3394 40.8764 39.0148V34.5408C40.8764 34.2467 40.9447 34.0233 41.0813 33.8704C41.218 33.7176 41.398 33.6412 41.6209 33.6412C41.8437 33.6412 42.0162 33.713 42.1604 33.8561C42.3045 33.9991 42.3769 34.1967 42.3769 34.4489V34.5977C42.6501 34.2731 42.9425 34.0347 43.2545 33.8819C43.566 33.7291 43.9127 33.6527 44.2936 33.6527C44.6745 33.6527 45.0306 33.7309 45.3154 33.8877C45.6002 34.0445 45.8346 34.2812 46.0199 34.5977C46.2856 34.2772 46.5704 34.0393 46.8743 33.8848C47.1783 33.7303 47.5152 33.6527 47.8845 33.6527C48.3152 33.6527 48.6869 33.7366 48.9983 33.9049C49.3098 34.0732 49.5431 34.3134 49.697 34.6264C49.8319 34.9091 49.8991 35.3537 49.8991 35.9609V39.0142C49.8991 39.3428 49.8238 39.5892 49.6739 39.753C49.524 39.9167 49.3254 39.9994 49.0794 39.9994C48.8333 39.9994 48.6452 39.9161 48.4935 39.7501C48.3413 39.5841 48.2654 39.3388 48.2654 39.0142V36.3849C48.2654 36.0488 48.251 35.7794 48.222 35.5772C48.1931 35.375 48.1155 35.2049 47.9881 35.0676C47.8614 34.9303 47.6686 34.8614 47.411 34.8614C47.2032 34.8614 47.0058 34.9223 46.8194 35.0447C46.6324 35.167 46.4876 35.3313 46.3834 35.5375C46.2682 35.8012 46.2104 36.2671 46.2104 36.9352V36.9358Z" fill="#A9FFA4"/>
<path d="M56.4655 37.2047H53.3829C53.3869 37.5597 53.4587 37.8728 53.5994 38.1439C53.7401 38.4151 53.9265 38.6196 54.1592 38.7569C54.3919 38.8942 54.6489 38.9631 54.9297 38.9631C55.1184 38.9631 55.2903 38.9413 55.4461 38.897C55.6018 38.8534 55.7529 38.7844 55.8993 38.6908C56.0458 38.5972 56.1801 38.4972 56.3034 38.3904C56.4267 38.2835 56.5865 38.1382 56.7827 37.9549C56.8638 37.886 56.979 37.8521 57.1289 37.8521C57.2904 37.8521 57.4213 37.8957 57.5214 37.9836C57.6216 38.0715 57.6713 38.1956 57.6713 38.3559C57.6713 38.4972 57.6158 38.6621 57.5041 38.8516C57.3923 39.0406 57.2239 39.2222 56.9993 39.3957C56.7741 39.5697 56.491 39.7133 56.1506 39.8282C55.8102 39.9431 55.4183 40 54.976 40C53.9641 40 53.1768 39.7133 52.6153 39.1406C52.0532 38.5679 51.7724 37.7906 51.7724 36.8094C51.7724 36.3476 51.8419 35.9184 51.9802 35.5232C52.1186 35.128 52.3206 34.789 52.5863 34.5064C52.852 34.2238 53.1791 34.0072 53.5676 33.8561C53.956 33.705 54.3873 33.6298 54.8608 33.6298C55.4762 33.6298 56.0047 33.7584 56.4452 34.0164C56.8858 34.2743 57.2158 34.6075 57.4352 35.0159C57.6546 35.4244 57.764 35.8409 57.764 36.2648C57.764 36.6583 57.6505 36.9134 57.4236 37.0294C57.1967 37.1461 56.8771 37.2041 56.4655 37.2041V37.2047ZM53.3829 36.3165H56.2403C56.2015 35.7817 56.0562 35.3819 55.8044 35.1165C55.552 34.8511 55.2203 34.7184 54.8087 34.7184C54.3971 34.7184 54.0938 34.8528 53.842 35.1222C53.5901 35.3916 53.4367 35.7898 53.3829 36.3165Z" fill="#A9FFA4"/>
<path d="M61.1621 34.5069V34.6959C61.4394 34.3335 61.7421 34.0669 62.0715 33.8969C62.4004 33.7268 62.7784 33.6418 63.2056 33.6418C63.6328 33.6418 63.9923 33.7314 64.3194 33.9112C64.6465 34.091 64.8908 34.345 65.0523 34.673C65.1559 34.8637 65.2236 35.0699 65.2543 35.2917C65.285 35.5134 65.3006 35.7955 65.3006 36.1396V39.0492C65.3006 39.3623 65.2283 39.599 65.0841 39.7593C64.94 39.9196 64.7524 40 64.5214 40C64.2905 40 64.0959 39.9178 63.9501 39.7535C63.8036 39.5892 63.7307 39.3543 63.7307 39.0487V36.4423C63.7307 35.927 63.6583 35.5324 63.5142 35.2595C63.37 34.9866 63.0823 34.8499 62.651 34.8499C62.3703 34.8499 62.1144 34.9332 61.8834 35.0992C61.6524 35.2652 61.4834 35.4933 61.3757 35.784C61.2987 36.0172 61.2605 36.4521 61.2605 37.0897V39.0487C61.2605 39.3658 61.1864 39.6036 61.0382 39.7616C60.89 39.9201 60.6984 39.9994 60.4639 39.9994C60.2295 39.9994 60.05 39.9173 59.9042 39.753C59.7583 39.5887 59.6848 39.3537 59.6848 39.0481V34.5288C59.6848 34.2306 59.7502 34.0083 59.881 33.8613C60.0118 33.7142 60.1907 33.6407 60.4176 33.6407C60.556 33.6407 60.681 33.6734 60.7928 33.7383C60.9045 33.8032 60.9936 33.9009 61.0614 34.0307C61.1285 34.1605 61.1627 34.3191 61.1627 34.5064L61.1621 34.5069Z" fill="#A9FFA4"/>
<path d="M67.596 33.7791H67.769V32.8399C67.769 32.5877 67.776 32.3901 67.7893 32.247C67.8026 32.104 67.8402 31.9805 67.9016 31.8776C67.963 31.7708 68.0515 31.684 68.1673 31.6168C68.2831 31.5502 68.4116 31.5163 68.554 31.5163C68.7543 31.5163 68.9349 31.591 69.0964 31.7398C69.2041 31.8391 69.2724 31.9604 69.3014 32.1034C69.3303 32.2464 69.3448 32.4498 69.3448 32.7135V33.7791H69.922C70.1448 33.7791 70.3156 33.8314 70.4325 33.9365C70.5501 34.0416 70.6085 34.1761 70.6085 34.3404C70.6085 34.5506 70.5246 34.6977 70.3573 34.7816C70.19 34.8654 69.9503 34.9074 69.6389 34.9074H69.3442V37.7831C69.3442 38.0273 69.3529 38.2157 69.3703 38.3473C69.3876 38.4788 69.4339 38.5862 69.5086 38.6678C69.5839 38.75 69.706 38.7907 69.8751 38.7907C69.9677 38.7907 70.0921 38.7747 70.2502 38.7419C70.4076 38.7097 70.531 38.6931 70.6195 38.6931C70.7463 38.6931 70.8609 38.7436 70.9628 38.8447C71.0647 38.9459 71.1156 39.0711 71.1156 39.2199C71.1156 39.4721 70.9773 39.6651 70.7 39.7984C70.4227 39.9322 70.0244 39.9988 69.5051 39.9988C69.0125 39.9988 68.6391 39.9167 68.3856 39.7524C68.1314 39.5881 67.9653 39.3612 67.8866 39.0705C67.8078 38.7804 67.7685 38.3926 67.7685 37.9078V34.9062H67.5606C67.3337 34.9062 67.1606 34.8528 67.0414 34.7459C66.9221 34.6391 66.8625 34.5035 66.8625 34.3392C66.8625 34.1749 66.925 34.0405 67.05 33.9354C67.1751 33.8302 67.3569 33.778 67.5954 33.778L67.596 33.7791Z" fill="#A9FFA4"/>
</g>
<defs>
<clipPath id="clip0_227_14">
<rect width="134.167" height="40" fill="white"/>
</clipPath>
</defs>
</svg>
