<svg width="45" height="45" viewBox="0 0 45 45" fill="none" xmlns="http://www.w3.org/2000/svg">
<g clip-path="url(#clip0_28_109)">
<path d="M0.914809 22.5316C-0.324189 21.3434 -0.28914 19.321 0.925324 18.1066L18.1066 0.925324C19.321 -0.28914 21.3416 -0.324189 22.5316 0.914809C23.6812 2.1135 23.6672 4.01143 22.486 5.1926C21.4117 6.26686 21.4783 8.02985 22.6332 9.02L30.5439 15.8003C30.9837 16.1771 31.5761 16.3296 32.1404 16.1964C35.7259 15.3447 39.5866 15.7232 43.0425 17.4546L43.3124 17.5896C44.1974 18.0295 44.8055 18.8671 44.9615 19.8328C45.1174 20.7984 44.7985 21.792 44.1028 22.4878L22.486 44.1045C21.7903 44.8002 20.8106 45.1174 19.831 44.9632C18.8514 44.8072 18.0207 44.1939 17.5878 43.3141L17.4529 43.0443C15.7215 39.5884 15.3429 35.7277 16.1946 32.1421C16.3278 31.5796 16.1753 30.9855 15.7986 30.5456L9.01824 22.635C8.0281 21.4801 6.26686 21.4135 5.19084 22.4878C4.00968 23.6689 2.11175 23.6829 0.913057 22.5333L0.914809 22.5316ZM33.2935 37.6186L37.6169 33.2952L44.1028 39.7812C45.2979 40.9763 45.2979 42.9093 44.1028 44.1045C42.9076 45.2997 40.9746 45.2997 39.7794 44.1045L33.2935 37.6186Z" fill="#AAFFA5"/>
</g>
<defs>
<clipPath id="clip0_28_109">
<rect width="45" height="45" fill="white"/>
</clipPath>
</defs>
</svg>
