<svg width="25" height="25" viewBox="0 0 25 25" fill="none" xmlns="http://www.w3.org/2000/svg">
<path d="M12.5 10.9375V17.1875M15.625 14.0625H9.375M13.6042 6.57292L11.3958 4.36458C11.2508 4.21933 11.0785 4.10408 10.8888 4.02544C10.6992 3.94679 10.4959 3.90629 10.2906 3.90625H4.6875C4.0659 3.90625 3.46976 4.15318 3.03022 4.59272C2.59068 5.03226 2.34375 5.6284 2.34375 6.25V18.75C2.34375 19.3716 2.59068 19.9677 3.03022 20.4073C3.46976 20.8468 4.0659 21.0938 4.6875 21.0938H20.3125C20.9341 21.0938 21.5302 20.8468 21.9698 20.4073C22.4093 19.9677 22.6562 19.3716 22.6562 18.75V9.375C22.6562 8.7534 22.4093 8.15726 21.9698 7.71772C21.5302 7.27818 20.9341 7.03125 20.3125 7.03125H14.7094C14.2951 7.03089 13.8969 6.86603 13.6042 6.57292Z" stroke="#A9FFA4" stroke-width="1.5" stroke-linecap="round" stroke-linejoin="round"/>
</svg>
