<svg width="45" height="45" viewBox="0 0 45 45" fill="none" xmlns="http://www.w3.org/2000/svg">
<g clip-path="url(#clip0_78_34)">
<path d="M0.35995 3.35747C0.122569 3.00528 0 2.58326 0 2.16281C0 0.966591 0.966591 0 2.16281 0H11.7698C12.7534 0 13.6766 0.518204 14.1777 1.36223L20.1976 11.3912C15.9619 11.928 12.1731 13.9046 9.3525 16.8323L0.35995 3.35747ZM44.6307 3.35747L35.6475 16.8308C32.8269 13.9046 29.0381 11.9265 24.8024 11.3896L30.8239 1.36223C31.3343 0.518204 32.2481 0 33.2318 0H42.8387C44.0334 0 45.0015 0.966591 45.0015 2.16281C45.0015 2.58482 44.879 3.00683 44.6416 3.35747H44.6323H44.6307ZM7.03144 29.5314C7.03144 20.9888 13.9574 14.0629 22.5 14.0629C31.0426 14.0629 37.9686 20.9888 37.9686 29.5314C37.9686 38.0741 31.0426 45 22.5 45C13.9574 45 7.03144 38.0741 7.03144 29.5314ZM23.2385 21.1905C22.9391 20.5746 22.0702 20.5746 21.7615 21.1905L19.7926 25.181C19.67 25.4277 19.4404 25.5937 19.1767 25.6294L14.7642 26.2717C14.0877 26.3679 13.824 27.1949 14.3065 27.6774L17.4964 30.7882C17.6903 30.9821 17.7772 31.2459 17.7338 31.5174L16.9782 35.9035C16.8634 36.5722 17.5677 37.0904 18.1728 36.7739L22.1106 34.6995C22.3479 34.577 22.6381 34.577 22.8755 34.6995L26.8132 36.7739C27.4198 37.0904 28.1227 36.58 28.0079 35.9035L27.2523 31.5174C27.2088 31.2536 27.2957 30.9806 27.4897 30.7882L30.6796 27.6774C31.1714 27.2026 30.8999 26.3772 30.2219 26.2717L25.8187 25.6294C25.5549 25.5937 25.3175 25.4184 25.2027 25.181L23.2339 21.1905H23.2385Z" fill="#AAFFA5"/>
</g>
<defs>
<clipPath id="clip0_78_34">
<rect width="45" height="45" fill="white"/>
</clipPath>
</defs>
</svg>
