<svg width="25" height="25" viewBox="0 0 25 25" fill="none" xmlns="http://www.w3.org/2000/svg">
<path d="M18.1451 19.5C19.4221 19.6078 20.7068 19.4378 21.9163 19.001C21.9625 18.4129 21.8466 17.8233 21.582 17.3004C21.3174 16.7775 20.9149 16.3427 20.4212 16.0463C19.9274 15.7499 19.3625 15.604 18.7919 15.6255C18.2212 15.6469 17.6681 15.8349 17.1966 16.1677M18.1441 19.499L18.1451 19.5312C18.1451 19.7656 18.1331 19.9969 18.1079 20.225C16.2786 21.3095 14.2057 21.8785 12.0968 21.875C9.90926 21.875 7.85583 21.275 6.08567 20.225C6.05976 19.9839 6.0473 19.7415 6.04838 19.499M18.1451 19.5C18.1412 18.3194 17.8122 17.1633 17.1966 16.1687L18.1451 19.5ZM17.1966 16.1687C16.6501 15.2831 15.8963 14.5542 15.0049 14.0495C14.1134 13.5448 13.1132 13.2805 12.0968 13.2812C11.0805 13.2807 10.0805 13.545 9.18923 14.0497C8.298 14.5544 7.54435 15.2833 6.99797 16.1687M6.99797 16.1687C6.52641 15.8363 5.97342 15.6485 5.40293 15.6272C4.83244 15.6059 4.26776 15.7518 3.77418 16.0482C3.2806 16.3446 2.87828 16.7793 2.61373 17.302C2.34918 17.8247 2.2332 18.4141 2.27922 19.0021C3.4878 19.4413 4.77179 19.6107 6.04838 19.499M6.99797 16.1687C6.38267 17.1634 6.052 18.3185 6.04838 19.499L6.99797 16.1687ZM15.121 7.03125C15.121 7.86005 14.8023 8.65491 14.2352 9.24096C13.668 9.82701 12.8988 10.1562 12.0968 10.1562C11.2947 10.1562 10.5255 9.82701 9.95833 9.24096C9.39119 8.65491 9.07257 7.86005 9.07257 7.03125C9.07257 6.20245 9.39119 5.40759 9.95833 4.82154C10.5255 4.23549 11.2947 3.90625 12.0968 3.90625C12.8988 3.90625 13.668 4.23549 14.2352 4.82154C14.8023 5.40759 15.121 6.20245 15.121 7.03125ZM21.1693 10.1562C21.1693 10.464 21.1107 10.7688 20.9967 11.0532C20.8827 11.3375 20.7156 11.5959 20.505 11.8135C20.2944 12.0312 20.0444 12.2038 19.7692 12.3216C19.494 12.4394 19.1991 12.5 18.9012 12.5C18.6033 12.5 18.3084 12.4394 18.0332 12.3216C17.758 12.2038 17.508 12.0312 17.2974 11.8135C17.0868 11.5959 16.9197 11.3375 16.8057 11.0532C16.6917 10.7688 16.6331 10.464 16.6331 10.1562C16.6331 9.53465 16.872 8.93851 17.2974 8.49897C17.7227 8.05943 18.2996 7.8125 18.9012 7.8125C19.5027 7.8125 20.0797 8.05943 20.505 8.49897C20.9304 8.93851 21.1693 9.53465 21.1693 10.1562ZM7.56047 10.1562C7.56047 10.464 7.5018 10.7688 7.38782 11.0532C7.27383 11.3375 7.10676 11.5959 6.89615 11.8135C6.68553 12.0312 6.43549 12.2038 6.16031 12.3216C5.88512 12.4394 5.59018 12.5 5.29233 12.5C4.99447 12.5 4.69953 12.4394 4.42435 12.3216C4.14916 12.2038 3.89912 12.0312 3.68851 11.8135C3.47789 11.5959 3.31082 11.3375 3.19683 11.0532C3.08285 10.7688 3.02418 10.464 3.02418 10.1562C3.02418 9.53465 3.26315 8.93851 3.68851 8.49897C4.11387 8.05943 4.69078 7.8125 5.29233 7.8125C5.89388 7.8125 6.47079 8.05943 6.89615 8.49897C7.32151 8.93851 7.56047 9.53465 7.56047 10.1562Z" fill="#1C3326"/>
<path d="M17.1966 16.1677C17.6681 15.8349 18.2212 15.6469 18.7919 15.6255C19.3625 15.604 19.9274 15.7499 20.4212 16.0463C20.9149 16.3427 21.3174 16.7775 21.582 17.3004C21.8466 17.8233 21.9625 18.4129 21.9163 19.001C20.7068 19.4378 19.4221 19.6078 18.1451 19.5C18.1412 18.3194 17.8122 17.1633 17.1966 16.1687C16.6501 15.2831 15.8963 14.5542 15.0049 14.0495C14.1134 13.5448 13.1132 13.2805 12.0968 13.2812C11.0805 13.2807 10.0805 13.545 9.18923 14.0497C8.298 14.5544 7.54435 15.2833 6.99797 16.1687M18.1441 19.499L18.1451 19.5312C18.1451 19.7656 18.1331 19.9969 18.1078 20.225C16.2786 21.3095 14.2057 21.8785 12.0968 21.875C9.90926 21.875 7.85584 21.275 6.08567 20.225C6.05976 19.9839 6.0473 19.7415 6.04838 19.499M6.04838 19.499C4.77179 19.6107 3.4878 19.4413 2.27922 19.0021C2.2332 18.4141 2.34918 17.8247 2.61373 17.302C2.87828 16.7793 3.2806 16.3446 3.77418 16.0482C4.26776 15.7518 4.83244 15.6059 5.40293 15.6272C5.97342 15.6485 6.52641 15.8363 6.99797 16.1687M6.04838 19.499C6.052 18.3185 6.38267 17.1634 6.99797 16.1687M15.121 7.03125C15.121 7.86005 14.8023 8.65491 14.2352 9.24096C13.668 9.82701 12.8988 10.1562 12.0968 10.1562C11.2947 10.1562 10.5255 9.82701 9.95833 9.24096C9.39119 8.65491 9.07257 7.86005 9.07257 7.03125C9.07257 6.20245 9.39119 5.40759 9.95833 4.82154C10.5255 4.23549 11.2947 3.90625 12.0968 3.90625C12.8988 3.90625 13.668 4.23549 14.2352 4.82154C14.8023 5.40759 15.121 6.20245 15.121 7.03125ZM21.1693 10.1562C21.1693 10.464 21.1107 10.7688 20.9967 11.0532C20.8827 11.3375 20.7156 11.5959 20.505 11.8135C20.2944 12.0312 20.0444 12.2038 19.7692 12.3216C19.494 12.4394 19.1991 12.5 18.9012 12.5C18.6033 12.5 18.3084 12.4394 18.0332 12.3216C17.758 12.2038 17.508 12.0312 17.2974 11.8135C17.0868 11.5959 16.9197 11.3375 16.8057 11.0532C16.6917 10.7688 16.6331 10.464 16.6331 10.1562C16.6331 9.53465 16.872 8.93851 17.2974 8.49897C17.7227 8.05943 18.2996 7.8125 18.9012 7.8125C19.5027 7.8125 20.0797 8.05943 20.505 8.49897C20.9304 8.93851 21.1693 9.53465 21.1693 10.1562ZM7.56047 10.1562C7.56047 10.464 7.5018 10.7688 7.38782 11.0532C7.27383 11.3375 7.10676 11.5959 6.89615 11.8135C6.68553 12.0312 6.43549 12.2038 6.16031 12.3216C5.88512 12.4394 5.59018 12.5 5.29233 12.5C4.99447 12.5 4.69953 12.4394 4.42435 12.3216C4.14916 12.2038 3.89912 12.0312 3.68851 11.8135C3.47789 11.5959 3.31082 11.3375 3.19683 11.0532C3.08285 10.7688 3.02418 10.464 3.02418 10.1562C3.02418 9.53465 3.26315 8.93851 3.68851 8.49897C4.11387 8.05943 4.69078 7.8125 5.29233 7.8125C5.89388 7.8125 6.47079 8.05943 6.89615 8.49897C7.32151 8.93851 7.56047 9.53465 7.56047 10.1562Z" stroke="#1C3326" stroke-width="1.5" stroke-linecap="round" stroke-linejoin="round"/>
<rect x="6.0484" y="15.625" width="12.0968" height="5.20833" fill="#1C3326"/>
</svg>
