<?xml version="1.0" encoding="UTF-8"?><svg xmlns="http://www.w3.org/2000/svg" viewBox="0 0 2827.36 784.77"><defs><style>.d{fill:#2bba7c;}</style></defs><g id="a"/><g id="b"><g id="c"><g><path class="d" d="M894.45,188.29s-24.55-.26-42.01,12.49c-17.47,12.67-40.25,14.17-59.13,3.7-24.46-13.59-53.85-20.99-87.42-21.43-1.1,0-2.16-.04-3.26-.04-122.3,0-203.25,87.11-203.25,221.73s80.64,221.38,202.5,221.73h.75c34.71,0,65.07-7.35,90.23-21.21,19.31-10.65,42.72-9.06,60.49,4,17.42,12.76,41.09,11.92,41.09,11.92,37.83,0,60.71-24.64,60.71-64.23V251.64c0-39.59-22.88-63.35-60.71-63.35Zm-167.18,328.2c-61.59,0-104.71-45.75-104.71-111.74s43.11-111.74,104.71-111.74,107.35,46.63,107.35,111.74-44.87,111.74-107.35,111.74Z"/><path class="d" d="M228.77,183.01C93.27,183.01,0,272.71,0,404.69s93.27,221.73,233.17,221.73c73.91,0,132.86-24.64,171.58-69.51,7.43-9.94,11.79-20.68,12.27-32.95,.92-24.06-14.12-45.23-37.26-51.91-20.46-5.9-40.96,.35-55.08,14.47-26.4,24.64-53.67,36.08-91.51,36.08-45.45,0-79.76-19.4-98.59-52.53-7.17-12.67,2.2-28.42,16.81-28.42h231.36c36.96,0,61.59-24.64,61.59-62.47v-7.04c0-101.19-94.15-189.13-215.57-189.13Zm62.25,175.93H148.35c-13.2,0-21.69-14.52-14.65-25.69,18.13-28.95,54.16-46.46,95.07-46.46,32.47,0,61.24,11.83,80.11,32.12,14.17,15.18,2.9,40.03-17.86,40.03Z"/><path class="d" d="M1861.1,188.18c0,19.24,20.77,31.32,37.46,21.74,24.46-14.04,54.58-21.64,90.12-21.64,115.26,0,176.85,68.63,176.85,195.33v178.61c0,39.59-22.88,64.23-60.71,64.23s-59.83-24.64-59.83-64.23v-164.54c0-65.11-29.92-99.42-87.99-99.42-48.71,0-81,26.62-91.86,73.06-2.67,11.44-4.05,24.07-4.05,37.81v153.1c0,39.59-22.88,64.23-60.71,64.23s-59.83-24.64-59.83-64.23V64.23c0-39.59,22.88-64.23,59.83-64.23s60.71,24.63,60.71,64.23v123.95Z"/><path class="d" d="M2340.95,64.23v498c0,39.59-22.88,64.23-60.71,64.23s-59.83-24.64-59.83-64.23V64.23c0-39.59,22.88-64.23,59.83-64.23s60.71,24.63,60.71,64.23Z"/><path class="d" d="M1113.73,200.18c16.21,13.59,39.51,15.85,57.18,4.21,21.55-14.2,48.07-21.38,79.38-21.38,35.2,0,59.83,22,59.83,59.83s-24.63,59.83-59.83,59.83c-76.55,0-119.66,34.31-119.66,125.82v125.82c0,39.59-22.88,64.23-60.71,64.23s-59.83-24.64-59.83-64.23V249c0-39.59,22.88-63.35,59.83-63.35,0,0,25.4-.9,43.81,14.53Z"/><path class="d" d="M1678.46,552.56c-26.4,49.27-77.43,73.91-146.94,73.91-104.7,0-166.3-64.23-166.3-174.21V109.98c0-39.59,22.88-64.23,59.83-64.23s60.71,24.64,60.71,64.23v54.78c0,15.91,12.9,28.8,28.8,28.8h94.38c36.08,0,58.95,20.24,58.95,54.55s-22.87,55.43-58.95,55.43h-94.38c-15.91,0-28.8,12.9-28.8,28.8v124.29c0,37.83,19.36,59.83,51.91,59.83,20.24,0,33.44-8.8,48.39-27.28,11.44-14.96,27.28-22,44.87-22,31.68,0,54.55,22.88,54.55,56.31,0,10.56-2.64,20.24-7.04,29.04Z"/><path class="d" d="M2706.81,578c0,58.95-39.59,97.66-101.19,97.66-41.36,0-67.75-10.56-98.54-36.95-8.8-7.04-18.48-11.44-32.56-11.44-35.2,0-57.19,22-57.19,56.31,0,14.08,4.4,26.4,12.32,36.08,32.55,42.23,97.66,65.11,178.61,65.11,136.38,0,219.09-80.07,219.09-212.05V246.29c0-39.59-22.88-63.35-59.83-63.35-12.1,0-22.67,2.43-31.45,7.03-18.68,9.78-29.26,29.39-29.26,56.32v134.62c0,69.51-35.2,110.86-95.03,110.86-56.31,0-86.23-35.19-86.23-99.42V246.29c0-39.59-22.87-63.35-60.71-63.35s-59.83,23.75-59.83,63.35v160.14c0,126.7,61.59,195.33,175.1,195.33,43.58,0,79.31-11.8,106.27-33.59,8.21-6.64,20.44-.72,20.43,9.84h0Z"/></g></g></g></svg>